<svg width="144" height="26" viewBox="0 0 144 26" fill="none" xmlns="http://www.w3.org/2000/svg">
<g clip-path="url(#clip0_250_977)">
<path d="M143.946 13.0233V13.0391V13.0866V13.1182C143.935 14.1521 143.724 15.1226 143.313 16.0299C142.912 16.9266 142.369 17.7178 141.683 18.4035C141.008 19.0787 140.211 19.6114 139.293 20.0018C138.386 20.3921 137.421 20.5873 136.398 20.5873C135.353 20.5873 134.372 20.3921 133.454 20.0018C132.536 19.6009 131.735 19.0576 131.049 18.3719C130.374 17.6862 129.841 16.8844 129.451 15.9666C129.06 15.0488 128.865 14.073 128.865 13.0391C128.865 11.9947 129.06 11.0136 129.451 10.0958C129.841 9.17802 130.374 8.38154 131.049 7.70637C131.735 7.02066 132.536 6.48264 133.454 6.09231C134.372 5.69143 135.353 5.49099 136.398 5.49099C137.315 5.49099 138.18 5.64923 138.993 5.96571C139.805 6.27165 140.543 6.69363 141.208 7.23165V1.42418C141.208 1.0233 141.335 0.685714 141.588 0.411429C141.841 0.137143 142.168 0 142.569 0C142.949 0 143.271 0.137143 143.534 0.411429C143.809 0.685714 143.946 1.0233 143.946 1.42418V13.0233ZM141.208 13.0391C141.208 12.3745 141.082 11.7521 140.828 11.1719C140.575 10.5811 140.232 10.0695 139.8 9.63692C139.367 9.19385 138.856 8.85099 138.265 8.60835C137.685 8.35516 137.062 8.22857 136.398 8.22857C135.722 8.22857 135.089 8.35516 134.499 8.60835C133.918 8.85099 133.412 9.19385 132.98 9.63692C132.547 10.0695 132.204 10.5811 131.951 11.1719C131.708 11.7521 131.587 12.3745 131.587 13.0391C131.587 13.6932 131.708 14.3156 131.951 14.9064C132.204 15.4866 132.547 15.9982 132.98 16.4413C133.412 16.8738 133.918 17.222 134.499 17.4857C135.089 17.7389 135.722 17.8655 136.398 17.8655C137.062 17.8655 137.685 17.7389 138.265 17.4857C138.856 17.222 139.367 16.8738 139.8 16.4413C140.232 15.9982 140.575 15.4866 140.828 14.9064C141.082 14.3156 141.208 13.6932 141.208 13.0391Z" fill="#F8FAFC"/>
<path d="M126.629 12.8492V19.0681C126.629 19.4585 126.503 19.7802 126.249 20.0334C125.996 20.2866 125.68 20.4132 125.3 20.4132C124.92 20.4132 124.593 20.2866 124.319 20.0334C124.045 19.7802 123.907 19.4585 123.907 19.0681V12.8176V12.8018C123.907 12.1688 123.802 11.578 123.591 11.0295C123.38 10.4703 123.085 9.98506 122.705 9.57363C122.336 9.16221 121.887 8.83517 121.36 8.59254C120.843 8.3499 120.273 8.22858 119.651 8.22858C119.018 8.22858 118.438 8.34462 117.91 8.57671C117.383 8.8088 116.924 9.13056 116.533 9.54199C116.143 9.94287 115.837 10.4229 115.616 10.982C115.405 11.5306 115.299 12.1213 115.299 12.7543V19.0681C115.299 19.4585 115.173 19.7802 114.919 20.0334C114.666 20.2866 114.35 20.4132 113.97 20.4132C113.78 20.4132 113.601 20.3815 113.432 20.3183C113.263 20.2444 113.115 20.1495 112.989 20.0334C112.862 19.9174 112.762 19.775 112.688 19.6062C112.614 19.4374 112.577 19.258 112.577 19.0681V12.8018V12.7543V12.7385C112.577 11.7363 112.757 10.7974 113.115 9.92177C113.474 9.03561 113.97 8.2655 114.603 7.61144C115.236 6.95737 115.985 6.44045 116.85 6.06067C117.715 5.68089 118.649 5.491 119.651 5.491C120.653 5.491 121.581 5.68089 122.436 6.06067C123.29 6.44045 124.029 6.95737 124.651 7.61144C125.274 8.2655 125.759 9.03561 126.107 9.92177C126.455 10.7974 126.629 11.7363 126.629 12.7385V12.7701V12.8176V12.8492Z" fill="#F8FAFC"/>
<path d="M94.405 13.0391C94.405 11.9947 94.6002 11.0136 94.9905 10.0958C95.3914 9.17803 95.9347 8.38155 96.6204 7.70638C97.3061 7.02067 98.1079 6.48265 99.0257 6.09232C99.9435 5.69144 100.919 5.491 101.953 5.491C102.987 5.491 103.958 5.68616 104.865 6.07649C105.772 6.46682 106.563 6.99957 107.238 7.67473C107.924 8.3499 108.467 9.14111 108.868 10.0484C109.269 10.9556 109.475 11.9262 109.485 12.96V13.0391V18.989C109.485 19.3793 109.348 19.7117 109.074 19.9859C108.81 20.2602 108.478 20.3974 108.077 20.3974C107.687 20.3974 107.365 20.2602 107.112 19.9859C106.869 19.7117 106.748 19.3793 106.748 18.989L106.732 18.6567C106.078 19.2369 105.345 19.7064 104.533 20.0651C103.731 20.4132 102.871 20.5873 101.953 20.5873C100.919 20.5873 99.9435 20.3921 99.0257 20.0018C98.1079 19.6009 97.3061 19.0576 96.6204 18.3719C95.9347 17.6862 95.3914 16.8897 94.9905 15.9824C94.6002 15.0646 94.405 14.0835 94.405 13.0391ZM97.1268 13.0391C97.1268 13.6932 97.2534 14.3156 97.5066 14.9064C97.7598 15.4866 98.1026 15.9982 98.5351 16.4413C98.9677 16.8739 99.4793 17.222 100.07 17.4857C100.661 17.7389 101.289 17.8655 101.953 17.8655C102.628 17.8655 103.256 17.7389 103.836 17.4857C104.416 17.222 104.923 16.8739 105.355 16.4413C105.788 15.9982 106.125 15.4866 106.368 14.9064C106.621 14.3156 106.748 13.6932 106.748 13.0391C106.748 12.3745 106.621 11.7521 106.368 11.1719C106.125 10.5811 105.788 10.0695 105.355 9.63693C104.923 9.2044 104.416 8.86155 103.836 8.60836C103.256 8.35517 102.628 8.22858 101.953 8.22858C101.289 8.22858 100.661 8.35517 100.07 8.60836C99.4899 8.86155 98.9782 9.2044 98.5351 9.63693C98.1026 10.0695 97.7598 10.5811 97.5066 11.1719C97.2534 11.7521 97.1268 12.3745 97.1268 13.0391Z" fill="#F8FAFC"/>
<path d="M92.2882 8.41846H92.2724C91.5761 8.41846 90.9168 8.5556 90.2944 8.82989C89.6719 9.09362 89.1286 9.45758 88.6645 9.92176C88.2003 10.3859 87.8311 10.9345 87.5568 11.5675C87.2825 12.1899 87.1453 12.8598 87.1453 13.5771V19.0365C87.1453 19.4268 87.0188 19.7538 86.7656 20.0176C86.5124 20.2708 86.2012 20.3974 85.8319 20.3974C85.4416 20.3974 85.1093 20.2708 84.835 20.0176C84.5607 19.7538 84.4236 19.4268 84.4236 19.0365V13.5771C84.4236 12.4905 84.6293 11.4725 85.0407 10.5231C85.4522 9.56308 86.0113 8.72439 86.7181 8.00703C87.4355 7.28967 88.2689 6.72527 89.2183 6.31384C90.1783 5.89187 91.1963 5.68088 92.2724 5.68088H92.2882H92.3515C92.8051 5.68088 93.1533 5.81275 93.3959 6.07648C93.6491 6.32967 93.7757 6.65143 93.7757 7.04176C93.7757 7.43209 93.6385 7.75912 93.3642 8.02286C93.09 8.28659 92.7524 8.41846 92.3515 8.41846H92.2882Z" fill="#F8FAFC"/>
<path d="M69.5598 13.3398C69.5598 13.9727 69.6759 14.5635 69.908 15.1121C70.1506 15.6607 70.4776 16.1407 70.8891 16.5521C71.3005 16.953 71.7805 17.2694 72.3291 17.5015C72.8776 17.7336 73.4684 17.8497 74.1014 17.8497C74.7238 17.8497 75.304 17.7336 75.842 17.5015C76.3906 17.2694 76.8653 16.9477 77.2662 16.5363C77.6777 16.1248 77.9994 15.6448 78.2315 15.0963C78.4741 14.5371 78.6007 13.9411 78.6113 13.3081V13.2448V13.2132V7.05758C78.6113 6.86769 78.6482 6.68835 78.722 6.51956C78.7959 6.35077 78.8961 6.20835 79.0227 6.09231C79.1493 5.96571 79.297 5.86549 79.4658 5.79165C79.6346 5.7178 79.8139 5.68088 80.0038 5.68088C80.3941 5.68088 80.7159 5.81802 80.9691 6.09231C81.2223 6.35604 81.3489 6.6778 81.3489 7.05758V13.1974V13.2448V13.3081C81.3489 14.1943 81.1959 15.0382 80.89 15.84C80.5946 16.6418 80.1831 17.3591 79.6557 17.9921C79.1282 18.6251 78.5005 19.1578 77.7726 19.5903C77.0552 20.0123 76.2746 20.3024 75.4306 20.4607V24.3692C75.4306 24.5591 75.3937 24.7385 75.3198 24.9073C75.246 25.076 75.1458 25.2237 75.0192 25.3503C74.9031 25.4769 74.7607 25.5771 74.5919 25.651C74.4337 25.7248 74.2596 25.7618 74.0697 25.7618C73.6794 25.7618 73.3524 25.6246 73.0886 25.3503C72.8249 25.0866 72.693 24.7596 72.693 24.3692V20.4448C71.8491 20.2866 71.0684 19.9912 70.3511 19.5587C69.6442 19.1262 69.0271 18.5934 68.4996 17.9604C67.9722 17.3275 67.5607 16.6154 67.2653 15.8242C66.97 15.033 66.8223 14.1943 66.8223 13.3081V7.05758C66.8223 6.6778 66.9541 6.35604 67.2179 6.09231C67.4816 5.81802 67.8034 5.68088 68.1831 5.68088C68.373 5.68088 68.5471 5.7178 68.7053 5.79165C68.8741 5.86549 69.0218 5.96571 69.1484 6.09231C69.275 6.20835 69.3752 6.35077 69.4491 6.51956C69.5229 6.68835 69.5598 6.86769 69.5598 7.05758V13.3398Z" fill="#F8FAFC"/>
<path d="M63.827 12.8492V19.0681C63.827 19.4585 63.7004 19.7802 63.4472 20.0334C63.194 20.2866 62.8776 20.4132 62.4978 20.4132C62.118 20.4132 61.791 20.2866 61.5167 20.0334C61.2424 19.7802 61.1053 19.4585 61.1053 19.0681V12.8176V12.8018C61.1053 12.1688 60.9998 11.578 60.7888 11.0295C60.5778 10.4703 60.2824 9.98506 59.9026 9.57363C59.5334 9.16221 59.085 8.83517 58.5576 8.59254C58.0406 8.3499 57.471 8.22858 56.8486 8.22858C56.2156 8.22858 55.6354 8.34462 55.1079 8.57671C54.5804 8.8088 54.1215 9.13056 53.7312 9.54199C53.3409 9.94287 53.0349 10.4229 52.8134 10.982C52.6024 11.5306 52.4969 12.1213 52.4969 12.7543V19.0681C52.4969 19.4585 52.3703 19.7802 52.1171 20.0334C51.8639 20.2866 51.5475 20.4132 51.1677 20.4132C50.9778 20.4132 50.7984 20.3815 50.6297 20.3183C50.4609 20.2444 50.3132 20.1495 50.1866 20.0334C50.06 19.9174 49.9598 19.775 49.8859 19.6062C49.8121 19.4374 49.7751 19.258 49.7751 19.0681V12.8018V12.7543V12.7385C49.7751 11.7363 49.9545 10.7974 50.3132 9.92177C50.6719 9.03561 51.1677 8.2655 51.8006 7.61144C52.4336 6.95737 53.1826 6.44045 54.0477 6.06067C54.9127 5.68089 55.8464 5.491 56.8486 5.491C57.8508 5.491 58.7791 5.68089 59.6336 6.06067C60.4881 6.44045 61.2266 6.95737 61.849 7.61144C62.4714 8.2655 62.9567 9.03561 63.3048 9.92177C63.6529 10.7974 63.827 11.7363 63.827 12.7385V12.7701V12.8176V12.8492Z" fill="#F8FAFC"/>
<path d="M31.6021 13.0391C31.6021 11.9947 31.7972 11.0136 32.1875 10.0958C32.5884 9.17803 33.1317 8.38155 33.8174 7.70638C34.5031 7.02067 35.3049 6.48265 36.2227 6.09232C37.1405 5.69144 38.1163 5.491 39.1502 5.491C40.184 5.491 41.1546 5.68616 42.0618 6.07649C42.9691 6.46682 43.7603 6.99957 44.4355 7.67473C45.1212 8.3499 45.6645 9.14111 46.0653 10.0484C46.4662 10.9556 46.6719 11.9262 46.6825 12.96V13.0391V18.989C46.6825 19.3793 46.5453 19.7117 46.2711 19.9859C46.0073 20.2602 45.675 20.3974 45.2741 20.3974C44.8838 20.3974 44.5621 20.2602 44.3089 19.9859C44.0662 19.7117 43.9449 19.3793 43.9449 18.989L43.9291 18.6567C43.275 19.2369 42.5418 19.7064 41.7295 20.0651C40.9278 20.4132 40.068 20.5873 39.1502 20.5873C38.1163 20.5873 37.1405 20.3921 36.2227 20.0018C35.3049 19.6009 34.5031 19.0576 33.8174 18.3719C33.1317 17.6862 32.5884 16.8897 32.1875 15.9824C31.7972 15.0646 31.6021 14.0835 31.6021 13.0391ZM34.3238 13.0391C34.3238 13.6932 34.4504 14.3156 34.7036 14.9064C34.9568 15.4866 35.2996 15.9982 35.7322 16.4413C36.1647 16.8739 36.6763 17.222 37.2671 17.4857C37.8579 17.7389 38.4856 17.8655 39.1502 17.8655C39.8253 17.8655 40.453 17.7389 41.0333 17.4857C41.6135 17.222 42.1199 16.8739 42.5524 16.4413C42.9849 15.9982 43.3225 15.4866 43.5651 14.9064C43.8183 14.3156 43.9449 13.6932 43.9449 13.0391C43.9449 12.3745 43.8183 11.7521 43.5651 11.1719C43.3225 10.5811 42.9849 10.0695 42.5524 9.63693C42.1199 9.2044 41.6135 8.86155 41.0333 8.60836C40.453 8.35517 39.8253 8.22858 39.1502 8.22858C38.4856 8.22858 37.8579 8.35517 37.2671 8.60836C36.6869 8.86155 36.1752 9.2044 35.7322 9.63693C35.2996 10.0695 34.9568 10.5811 34.7036 11.1719C34.4504 11.7521 34.3238 12.3745 34.3238 13.0391Z" fill="#F8FAFC"/>
<path d="M31.6021 24.596C31.6021 23.9551 32.1216 23.4356 32.7625 23.4356H74.1163V25.7565H32.7625C32.1216 25.7565 31.6021 25.2369 31.6021 24.596V24.596Z" fill="#F8FAFC"/>
<path d="M7.19915 1.71045L2.2126 5.6266C1.98967 5.80167 2.11347 6.15976 2.39693 6.15976H18.8906C19.0554 6.15976 19.1891 6.29337 19.1891 6.45821V23.9711C19.1891 24.234 19.5042 24.3685 19.694 24.1866L24.8006 19.2914C25.0943 19.01 25.2602 18.621 25.2602 18.2142V2.88404C25.2602 2.05991 24.5922 1.3918 23.768 1.3918H8.12082C7.78658 1.3918 7.46202 1.50402 7.19915 1.71045Z" fill="#F8FAFC" stroke="#F8FAFC" stroke-width="1.79068"/>
<path d="M18.2462 5.94312H2.727C1.86166 5.94312 1.16016 6.64462 1.16016 7.50997V23.0292C1.16016 23.8945 1.86166 24.5961 2.727 24.5961H18.2462C19.1116 24.5961 19.8131 23.8945 19.8131 23.0292V7.50997C19.8131 6.64462 19.1116 5.94312 18.2462 5.94312Z" fill="#020617" stroke="#F8FAFC" stroke-width="2.23835"/>
<path d="M14.7396 12.7328C15.7697 12.7328 16.6049 11.8977 16.6049 10.8675C16.6049 9.83732 15.7697 9.0022 14.7396 9.0022C13.7094 9.0022 12.8743 9.83732 12.8743 10.8675C12.8743 11.8977 13.7094 12.7328 14.7396 12.7328Z" fill="#F1F5F9"/>
<path d="M6.08502 12.7328C7.11519 12.7328 7.95031 11.8977 7.95031 10.8675C7.95031 9.83732 7.11519 9.0022 6.08502 9.0022C5.05485 9.0022 4.21973 9.83732 4.21973 10.8675C4.21973 11.8977 5.05485 12.7328 6.08502 12.7328Z" fill="#F1F5F9"/>
<path d="M14.7396 21.3877C15.7697 21.3877 16.6049 20.5526 16.6049 19.5224C16.6049 18.4923 15.7697 17.6571 14.7396 17.6571C13.7094 17.6571 12.8743 18.4923 12.8743 19.5224C12.8743 20.5526 13.7094 21.3877 14.7396 21.3877Z" fill="#F1F5F9"/>
<path d="M6.08502 21.3877C7.11519 21.3877 7.95031 20.5526 7.95031 19.5224C7.95031 18.4923 7.11519 17.6571 6.08502 17.6571C5.05485 17.6571 4.21973 18.4923 4.21973 19.5224C4.21973 20.5526 5.05485 21.3877 6.08502 21.3877Z" fill="#F1F5F9"/>
<path d="M10.4127 17.0603C11.4428 17.0603 12.2779 16.2251 12.2779 15.195C12.2779 14.1648 11.4428 13.3297 10.4127 13.3297C9.38248 13.3297 8.54736 14.1648 8.54736 15.195C8.54736 16.2251 9.38248 17.0603 10.4127 17.0603Z" fill="#F1F5F9"/>
<path d="M22.6358 4.91583C22.6195 4.85186 22.5286 4.85186 22.5122 4.91583L22.492 4.99411C22.4862 5.01667 22.4687 5.03428 22.446 5.04008L22.3678 5.06018C22.3038 5.07662 22.3038 5.16745 22.3678 5.18389L22.446 5.20399C22.4687 5.20979 22.4862 5.2274 22.492 5.24996L22.5122 5.32824C22.5286 5.39221 22.6195 5.39221 22.6358 5.32824L22.656 5.24996C22.6618 5.2274 22.6794 5.20979 22.702 5.20399L22.7802 5.18389C22.8442 5.16745 22.8442 5.07662 22.7802 5.06018L22.702 5.04008C22.6794 5.03428 22.6618 5.01667 22.656 4.99411L22.6358 4.91583Z" fill="black" fill-opacity="0.88"/>
<path d="M18.3089 2.08057C18.2925 2.0166 18.2017 2.0166 18.1853 2.08057L18.1651 2.15885C18.1593 2.18141 18.1417 2.19902 18.1191 2.20482L18.0409 2.22492C17.9769 2.24136 17.9769 2.3322 18.0409 2.34863L18.1191 2.36873C18.1417 2.37453 18.1593 2.39214 18.1651 2.4147L18.1853 2.49298C18.2017 2.55695 18.2925 2.55695 18.3089 2.49298L18.3291 2.4147C18.3349 2.39214 18.3525 2.37453 18.3751 2.36873L18.4533 2.34863C18.5173 2.3322 18.5173 2.24136 18.4533 2.22492L18.3751 2.20482C18.3525 2.19902 18.3349 2.18141 18.3291 2.15885L18.3089 2.08057Z" fill="black" fill-opacity="0.88"/>
<path d="M20.2486 13.5708C20.2322 13.5068 20.1413 13.5068 20.125 13.5708L20.1048 13.6491C20.099 13.6716 20.0814 13.6892 20.0588 13.695L19.9806 13.7151C19.9166 13.7316 19.9166 13.8224 19.9806 13.8388L20.0588 13.8589C20.0814 13.8647 20.099 13.8824 20.1048 13.9049L20.125 13.9832C20.1413 14.0472 20.2322 14.0472 20.2486 13.9832L20.2688 13.9049C20.2746 13.8824 20.2921 13.8647 20.3148 13.8589L20.393 13.8388C20.457 13.8224 20.457 13.7316 20.393 13.7151L20.3148 13.695C20.2921 13.6892 20.2746 13.6716 20.2688 13.6491L20.2486 13.5708Z" fill="black" fill-opacity="0.88"/>
<path d="M20.995 8.04951C20.9786 7.98554 20.8877 7.98554 20.8713 8.04951L20.8512 8.12779C20.8454 8.15035 20.8278 8.16796 20.8051 8.17376L20.7269 8.19386C20.663 8.2103 20.663 8.30114 20.7269 8.31757L20.8051 8.33767C20.8278 8.34347 20.8454 8.36109 20.8512 8.38365L20.8713 8.46192C20.8877 8.52589 20.9786 8.52589 20.995 8.46192L21.0151 8.38365C21.0209 8.36109 21.0385 8.34347 21.0611 8.33767L21.1394 8.31757C21.2033 8.30114 21.2033 8.2103 21.1394 8.19386L21.0611 8.17376C21.0385 8.16796 21.0209 8.15035 21.0151 8.12779L20.995 8.04951Z" fill="black" fill-opacity="0.88"/>
<path d="M21.4432 18.7936C21.4268 18.7297 21.3359 18.7297 21.3195 18.7936L21.2994 18.8718C21.2936 18.8945 21.276 18.912 21.2534 18.9179L21.1751 18.938C21.1112 18.9544 21.1112 19.0453 21.1751 19.0617L21.2534 19.0818C21.276 19.0876 21.2936 19.1052 21.2994 19.1278L21.3195 19.206C21.3359 19.27 21.4268 19.27 21.4432 19.206L21.4633 19.1278C21.4691 19.1052 21.4867 19.0876 21.5094 19.0818L21.5876 19.0617C21.6515 19.0453 21.6515 18.9544 21.5876 18.938L21.5094 18.9179C21.4867 18.912 21.4691 18.8945 21.4633 18.8718L21.4432 18.7936Z" fill="black" fill-opacity="0.88"/>
<path d="M24.8744 6.40806C24.858 6.34409 24.7671 6.34409 24.7507 6.40806L24.7306 6.48634C24.7248 6.5089 24.7072 6.52651 24.6845 6.53231L24.6063 6.55241C24.5424 6.56885 24.5424 6.65968 24.6063 6.67612L24.6845 6.69622C24.7072 6.70202 24.7248 6.71963 24.7306 6.74219L24.7507 6.82047C24.7671 6.88444 24.858 6.88444 24.8744 6.82047L24.8945 6.74219C24.9003 6.71963 24.9179 6.70202 24.9405 6.69622L25.0188 6.67612C25.0827 6.65968 25.0827 6.56885 25.0188 6.55241L24.9405 6.53231C24.9179 6.52651 24.9003 6.5089 24.8945 6.48634L24.8744 6.40806Z" fill="black" fill-opacity="0.88"/>
<path d="M24.129 10.7356C24.1126 10.6716 24.0217 10.6716 24.0053 10.7356L23.9852 10.8138C23.9794 10.8364 23.9618 10.854 23.9392 10.8598L23.8609 10.8799C23.797 10.8963 23.797 10.9872 23.8609 11.0036L23.9392 11.0237C23.9618 11.0295 23.9794 11.0471 23.9852 11.0697L24.0053 11.148C24.0217 11.2119 24.1126 11.2119 24.129 11.148L24.1491 11.0697C24.1549 11.0471 24.1725 11.0295 24.1952 11.0237L24.2734 11.0036C24.3373 10.9872 24.3373 10.8963 24.2734 10.8799L24.1952 10.8598C24.1725 10.854 24.1549 10.8364 24.1491 10.8138L24.129 10.7356Z" fill="black" fill-opacity="0.52"/>
<path d="M10.8473 3.4236C10.8309 3.35963 10.74 3.35963 10.7236 3.4236L10.7035 3.50187C10.6977 3.52443 10.6801 3.54205 10.6575 3.54784L10.5792 3.56795C10.5153 3.58438 10.5153 3.67522 10.5792 3.69166L10.6575 3.71176C10.6801 3.71756 10.6977 3.73517 10.7035 3.75773L10.7236 3.83601C10.74 3.89998 10.8309 3.89998 10.8473 3.83601L10.8674 3.75773C10.8732 3.73517 10.8908 3.71756 10.9134 3.71176L10.9916 3.69166C11.0556 3.67522 11.0556 3.58438 10.9916 3.56795L10.9134 3.54784C10.8908 3.54205 10.8732 3.52443 10.8674 3.50187L10.8473 3.4236Z" fill="black" fill-opacity="0.52"/>
<path d="M19.2047 5.3635C19.1883 5.29952 19.0974 5.29952 19.081 5.3635L19.0609 5.44177C19.0551 5.46433 19.0375 5.48195 19.0148 5.48774L18.9366 5.50785C18.8727 5.52428 18.8727 5.61512 18.9366 5.63156L19.0148 5.65166C19.0375 5.65746 19.0551 5.67507 19.0609 5.69763L19.081 5.77591C19.0974 5.83988 19.1883 5.83988 19.2047 5.77591L19.2248 5.69763C19.2306 5.67507 19.2482 5.65746 19.2709 5.65166L19.3491 5.63156C19.413 5.61512 19.413 5.52428 19.3491 5.50785L19.2709 5.48774C19.2482 5.48195 19.2306 5.46433 19.2248 5.44177L19.2047 5.3635Z" fill="black" fill-opacity="0.52"/>
<path d="M8.01184 1.33446C7.9954 1.2705 7.90457 1.2705 7.88813 1.33446L7.86803 1.41274C7.86223 1.4353 7.84462 1.45292 7.82206 1.45871L7.74378 1.47882C7.67981 1.49525 7.67981 1.5861 7.74378 1.60253L7.82206 1.62263C7.84462 1.62843 7.86223 1.64604 7.86803 1.6686L7.88813 1.74688C7.90457 1.81085 7.9954 1.81085 8.01184 1.74688L8.03194 1.6686C8.03774 1.64604 8.05535 1.62843 8.07791 1.62263L8.15619 1.60253C8.22016 1.5861 8.22016 1.49525 8.15619 1.47882L8.07791 1.45871C8.05535 1.45292 8.03774 1.4353 8.03194 1.41274L8.01184 1.33446Z" fill="black" fill-opacity="0.92"/>
<path d="M7.071 4.27328C7.02713 4.10246 6.78452 4.10246 6.74065 4.27328L6.68696 4.48233C6.67149 4.54257 6.62445 4.5896 6.56421 4.60508L6.35516 4.65877C6.18435 4.70264 6.18435 4.94525 6.35516 4.98912L6.56421 5.04281C6.62445 5.05829 6.67149 5.10532 6.68696 5.16556L6.74065 5.37461C6.78452 5.54543 7.02713 5.54543 7.071 5.37461L7.12469 5.16556C7.14017 5.10532 7.18722 5.05829 7.24746 5.04281L7.45649 4.98912C7.62731 4.94525 7.62731 4.70264 7.45649 4.65877L7.24744 4.60508C7.1872 4.5896 7.14017 4.54255 7.12469 4.48233L7.071 4.27328Z" fill="black"/>
<path d="M14.5319 1.73647C14.4881 1.56565 14.2455 1.56565 14.2016 1.73647L14.1479 1.94551C14.1324 2.00576 14.0854 2.0528 14.0251 2.06827L13.8161 2.12196C13.6453 2.16583 13.6453 2.40844 13.8161 2.45231L14.0251 2.506C14.0854 2.52148 14.1324 2.56851 14.1479 2.62875L14.2016 2.8378C14.2455 3.00862 14.4881 3.00862 14.5319 2.8378L14.5856 2.62875C14.6011 2.56851 14.6482 2.52148 14.7084 2.506L14.9174 2.45231C15.0883 2.40844 15.0883 2.16583 14.9174 2.12196L14.7084 2.06827C14.6481 2.0528 14.6011 2.00575 14.5856 1.94551L14.5319 1.73647Z" fill="black"/>
<path d="M22.8884 12.0329C22.8445 11.8621 22.6019 11.8621 22.558 12.0329L22.5043 12.2419C22.4889 12.3022 22.4418 12.3492 22.3816 12.3647L22.1726 12.4184C22.0017 12.4623 22.0017 12.7049 22.1726 12.7487L22.3816 12.8024C22.4418 12.8179 22.4889 12.8649 22.5043 12.9252L22.558 13.1342C22.6019 13.305 22.8445 13.305 22.8884 13.1342L22.9421 12.9252C22.9575 12.8649 23.0046 12.8179 23.0648 12.8024L23.2738 12.7487C23.4447 12.7049 23.4447 12.4623 23.2738 12.4184L23.0648 12.3647C23.0046 12.3492 22.9575 12.3022 22.9421 12.2419L22.8884 12.0329Z" fill="black"/>
<path d="M17.9631 4.57173C17.9192 4.40091 17.6766 4.40091 17.6327 4.57173L17.579 4.78077C17.5636 4.84102 17.5165 4.88805 17.4563 4.90353L17.2473 4.95722C17.0764 5.00109 17.0764 5.2437 17.2473 5.28757L17.4563 5.34126C17.5165 5.35673 17.5636 5.40377 17.579 5.46401L17.6327 5.67306C17.6766 5.84387 17.9192 5.84387 17.9631 5.67306L18.0168 5.46401C18.0322 5.40377 18.0794 5.35673 18.1395 5.34126L18.3486 5.28757C18.5194 5.2437 18.5194 5.00109 18.3486 4.95722L18.1395 4.90353C18.0794 4.88805 18.0322 4.841 18.0168 4.78077L17.9631 4.57173Z" fill="black"/>
<path d="M23.4035 14.9942C23.3816 14.9088 23.2604 14.9088 23.2385 14.9942L23.2116 15.0988C23.2039 15.1289 23.1803 15.1524 23.1502 15.1601L23.0457 15.187C22.9604 15.2089 22.9604 15.3302 23.0457 15.3522L23.1502 15.379C23.1803 15.3868 23.2039 15.4103 23.2116 15.4404L23.2385 15.5449C23.2604 15.6303 23.3816 15.6303 23.4035 15.5449L23.4304 15.4404C23.4382 15.4103 23.4617 15.3868 23.4919 15.379L23.5963 15.3522C23.6817 15.3302 23.6817 15.2089 23.5963 15.187L23.4919 15.1601C23.4617 15.1524 23.4382 15.1289 23.4304 15.0988L23.4035 14.9942Z" fill="black" fill-opacity="0.57"/>
<path d="M15.7922 3.80249C15.7703 3.71707 15.6491 3.71707 15.6272 3.80249L15.6003 3.907C15.5926 3.93713 15.569 3.96065 15.5388 3.96838L15.4344 3.99522C15.349 4.01716 15.349 4.13848 15.4344 4.16042L15.5388 4.18726C15.569 4.19499 15.5926 4.21851 15.6003 4.24864L15.6272 4.35315C15.6491 4.43857 15.7703 4.43857 15.7922 4.35315L15.8191 4.24864C15.8268 4.21851 15.8504 4.19499 15.8806 4.18726L15.985 4.16042C16.0704 4.13848 16.0704 4.01716 15.985 3.99522L15.8806 3.96838C15.8504 3.96065 15.8268 3.93713 15.8191 3.907L15.7922 3.80249Z" fill="black" fill-opacity="0.57"/>
<path d="M22.9553 2.01182C22.9334 1.92641 22.8122 1.92641 22.7903 2.01182L22.7634 2.11634C22.7556 2.14647 22.7321 2.16999 22.7019 2.17772L22.5975 2.20456C22.5121 2.2265 22.5121 2.34782 22.5975 2.36975L22.7019 2.3966C22.7321 2.40433 22.7556 2.42784 22.7634 2.45797L22.7903 2.56249C22.8122 2.6479 22.9334 2.6479 22.9553 2.56249L22.9822 2.45797C22.9899 2.42784 23.0135 2.40433 23.0436 2.3966L23.1481 2.36975C23.2335 2.34782 23.2335 2.2265 23.1481 2.20456L23.0436 2.17772C23.0135 2.16999 22.9899 2.14647 22.9822 2.11634L22.9553 2.01182Z" fill="black" fill-opacity="0.57"/>
</g>
<defs>
<clipPath id="clip0_250_977">
<rect width="144" height="25.8462" fill="white"/>
</clipPath>
</defs>
</svg>
