<svg width="144" height="26" viewBox="0 0 144 26" fill="none" xmlns="http://www.w3.org/2000/svg">
<g clip-path="url(#clip0_250_941)">
<path d="M143.946 13.0233V13.0391V13.0866V13.1182C143.936 14.1521 143.725 15.1226 143.313 16.0299C142.913 16.9266 142.369 17.7178 141.684 18.4035C141.008 19.0787 140.212 19.6114 139.294 20.0018C138.387 20.3921 137.422 20.5873 136.398 20.5873C135.354 20.5873 134.373 20.3921 133.455 20.0018C132.537 19.6009 131.735 19.0576 131.05 18.3719C130.375 17.6862 129.842 16.8844 129.451 15.9666C129.061 15.0488 128.866 14.073 128.866 13.0391C128.866 11.9947 129.061 11.0136 129.451 10.0958C129.842 9.17802 130.375 8.38154 131.05 7.70637C131.735 7.02066 132.537 6.48264 133.455 6.09231C134.373 5.69143 135.354 5.49099 136.398 5.49099C137.316 5.49099 138.181 5.64923 138.993 5.96571C139.806 6.27165 140.544 6.69363 141.209 7.23165V1.42418C141.209 1.0233 141.335 0.685714 141.589 0.411429C141.842 0.137143 142.169 0 142.57 0C142.949 0 143.271 0.137143 143.535 0.411429C143.809 0.685714 143.946 1.0233 143.946 1.42418V13.0233ZM141.209 13.0391C141.209 12.3745 141.082 11.7521 140.829 11.1719C140.576 10.5811 140.233 10.0694 139.8 9.63692C139.368 9.19385 138.856 8.85099 138.266 8.60835C137.685 8.35516 137.063 8.22857 136.398 8.22857C135.723 8.22857 135.09 8.35516 134.499 8.60835C133.919 8.85099 133.413 9.19385 132.98 9.63692C132.548 10.0694 132.205 10.5811 131.952 11.1719C131.709 11.7521 131.588 12.3745 131.588 13.0391C131.588 13.6932 131.709 14.3156 131.952 14.9064C132.205 15.4866 132.548 15.9982 132.98 16.4413C133.413 16.8738 133.919 17.222 134.499 17.4857C135.09 17.7389 135.723 17.8655 136.398 17.8655C137.063 17.8655 137.685 17.7389 138.266 17.4857C138.856 17.222 139.368 16.8738 139.8 16.4413C140.233 15.9982 140.576 15.4866 140.829 14.9064C141.082 14.3156 141.209 13.6932 141.209 13.0391Z" fill="#020617"/>
<path d="M126.629 12.8492V19.0681C126.629 19.4585 126.503 19.7802 126.249 20.0334C125.996 20.2866 125.68 20.4132 125.3 20.4132C124.92 20.4132 124.593 20.2866 124.319 20.0334C124.045 19.7802 123.907 19.4585 123.907 19.0681V12.8176V12.8018C123.907 12.1688 123.802 11.578 123.591 11.0295C123.38 10.4703 123.085 9.98506 122.705 9.57363C122.336 9.1622 121.887 8.83517 121.36 8.59253C120.843 8.34989 120.273 8.22857 119.651 8.22857C119.018 8.22857 118.438 8.34462 117.91 8.5767C117.383 8.80879 116.924 9.13055 116.533 9.54198C116.143 9.94286 115.837 10.4229 115.616 10.982C115.405 11.5306 115.299 12.1213 115.299 12.7543V19.0681C115.299 19.4585 115.173 19.7802 114.919 20.0334C114.666 20.2866 114.35 20.4132 113.97 20.4132C113.78 20.4132 113.601 20.3815 113.432 20.3182C113.263 20.2444 113.115 20.1495 112.989 20.0334C112.862 19.9174 112.762 19.7749 112.688 19.6062C112.614 19.4374 112.577 19.258 112.577 19.0681V12.8018V12.7543V12.7385C112.577 11.7363 112.757 10.7974 113.115 9.92176C113.474 9.0356 113.97 8.2655 114.603 7.61143C115.236 6.95736 115.985 6.44044 116.85 6.06066C117.715 5.68088 118.649 5.49099 119.651 5.49099C120.653 5.49099 121.581 5.68088 122.436 6.06066C123.29 6.44044 124.029 6.95736 124.651 7.61143C125.274 8.2655 125.759 9.0356 126.107 9.92176C126.455 10.7974 126.629 11.7363 126.629 12.7385V12.7701V12.8176V12.8492Z" fill="#020617"/>
<path d="M94.4043 13.0391C94.4043 11.9947 94.5995 11.0136 94.9898 10.0958C95.3907 9.17802 95.934 8.38154 96.6197 7.70637C97.3054 7.02066 98.1072 6.48264 99.025 6.09231C99.9428 5.69143 100.919 5.49099 101.952 5.49099C102.986 5.49099 103.957 5.68615 104.864 6.07648C105.771 6.46681 106.563 6.99956 107.238 7.67473C107.923 8.34989 108.467 9.1411 108.868 10.0484C109.268 10.9556 109.474 11.9262 109.485 12.96V13.0391V18.989C109.485 19.3793 109.348 19.7116 109.073 19.9859C108.81 20.2602 108.477 20.3974 108.076 20.3974C107.686 20.3974 107.364 20.2602 107.111 19.9859C106.868 19.7116 106.747 19.3793 106.747 18.989L106.731 18.6567C106.077 19.2369 105.344 19.7064 104.532 20.0651C103.73 20.4132 102.87 20.5873 101.952 20.5873C100.919 20.5873 99.9428 20.3921 99.025 20.0018C98.1072 19.6009 97.3054 19.0576 96.6197 18.3719C95.934 17.6862 95.3907 16.8897 94.9898 15.9824C94.5995 15.0646 94.4043 14.0835 94.4043 13.0391ZM97.1261 13.0391C97.1261 13.6932 97.2527 14.3156 97.5058 14.9064C97.759 15.4866 98.1019 15.9982 98.5344 16.4413C98.9669 16.8738 99.4786 17.222 100.069 17.4857C100.66 17.7389 101.288 17.8655 101.952 17.8655C102.628 17.8655 103.255 17.7389 103.836 17.4857C104.416 17.222 104.922 16.8738 105.355 16.4413C105.787 15.9982 106.125 15.4866 106.367 14.9064C106.621 14.3156 106.747 13.6932 106.747 13.0391C106.747 12.3745 106.621 11.7521 106.367 11.1719C106.125 10.5811 105.787 10.0695 105.355 9.63692C104.922 9.2044 104.416 8.86154 103.836 8.60835C103.255 8.35516 102.628 8.22857 101.952 8.22857C101.288 8.22857 100.66 8.35516 100.069 8.60835C99.4891 8.86154 98.9775 9.2044 98.5344 9.63692C98.1019 10.0695 97.759 10.5811 97.5058 11.1719C97.2527 11.7521 97.1261 12.3745 97.1261 13.0391Z" fill="#020617"/>
<path d="M92.2887 8.41847H92.2729C91.5766 8.41847 90.9173 8.55561 90.2948 8.8299C89.6724 9.09363 89.1291 9.45759 88.665 9.92176C88.2008 10.3859 87.8315 10.9345 87.5573 11.5675C87.283 12.1899 87.1458 12.8598 87.1458 13.5771V19.0365C87.1458 19.4268 87.0192 19.7539 86.7661 20.0176C86.5129 20.2708 86.2017 20.3974 85.8324 20.3974C85.4421 20.3974 85.1098 20.2708 84.8355 20.0176C84.5612 19.7539 84.4241 19.4268 84.4241 19.0365V13.5771C84.4241 12.4906 84.6298 11.4725 85.0412 10.5231C85.4526 9.56308 86.0118 8.7244 86.7186 8.00704C87.4359 7.28968 88.2693 6.72528 89.2188 6.31385C90.1788 5.89187 91.1968 5.68089 92.2729 5.68089H92.2887H92.352C92.8056 5.68089 93.1537 5.81275 93.3964 6.07649C93.6496 6.32968 93.7762 6.65143 93.7762 7.04176C93.7762 7.43209 93.639 7.75913 93.3647 8.02286C93.0904 8.2866 92.7529 8.41847 92.352 8.41847H92.2887Z" fill="#020617"/>
<path d="M69.5606 13.3398C69.5606 13.9728 69.6766 14.5635 69.9087 15.1121C70.1514 15.6607 70.4784 16.1407 70.8898 16.5521C71.3012 16.953 71.7812 17.2695 72.3298 17.5015C72.8784 17.7336 73.4692 17.8497 74.1021 17.8497C74.7245 17.8497 75.3048 17.7336 75.8428 17.5015C76.3914 17.2695 76.8661 16.9477 77.267 16.5363C77.6784 16.1248 78.0001 15.6448 78.2322 15.0963C78.4749 14.5372 78.6015 13.9411 78.612 13.3081V13.2448V13.2132V7.05759C78.612 6.8677 78.6489 6.68836 78.7228 6.51957C78.7966 6.35078 78.8968 6.20836 79.0234 6.09231C79.15 5.96572 79.2977 5.8655 79.4665 5.79165C79.6353 5.71781 79.8146 5.68089 80.0045 5.68089C80.3949 5.68089 80.7166 5.81803 80.9698 6.09231C81.223 6.35605 81.3496 6.67781 81.3496 7.05759V13.1974V13.2448V13.3081C81.3496 14.1943 81.1966 15.0382 80.8907 15.84C80.5953 16.6418 80.1839 17.3591 79.6564 17.9921C79.1289 18.6251 78.5012 19.1578 77.7733 19.5903C77.056 20.0123 76.2753 20.3024 75.4313 20.4607V24.3692C75.4313 24.5591 75.3944 24.7385 75.3206 24.9073C75.2467 25.0761 75.1465 25.2237 75.0199 25.3503C74.9039 25.4769 74.7615 25.5771 74.5927 25.651C74.4344 25.7248 74.2604 25.7618 74.0705 25.7618C73.6801 25.7618 73.3531 25.6246 73.0894 25.3503C72.8256 25.0866 72.6938 24.7596 72.6938 24.3692V20.4448C71.8498 20.2866 71.0692 19.9912 70.3518 19.5587C69.645 19.1262 69.0278 18.5934 68.5004 17.9604C67.9729 17.3275 67.5615 16.6154 67.2661 15.8242C66.9707 15.033 66.823 14.1943 66.823 13.3081V7.05759C66.823 6.67781 66.9549 6.35605 67.2186 6.09231C67.4823 5.81803 67.8041 5.68089 68.1839 5.68089C68.3738 5.68089 68.5478 5.71781 68.7061 5.79165C68.8749 5.8655 69.0226 5.96572 69.1492 6.09231C69.2757 6.20836 69.376 6.35078 69.4498 6.51957C69.5237 6.68836 69.5606 6.8677 69.5606 7.05759V13.3398Z" fill="#020617"/>
<path d="M63.827 12.8492V19.0681C63.827 19.4585 63.7004 19.7802 63.4472 20.0334C63.194 20.2866 62.8776 20.4132 62.4978 20.4132C62.118 20.4132 61.791 20.2866 61.5167 20.0334C61.2424 19.7802 61.1053 19.4585 61.1053 19.0681V12.8176V12.8018C61.1053 12.1688 60.9998 11.578 60.7888 11.0295C60.5778 10.4703 60.2824 9.98506 59.9026 9.57363C59.5334 9.1622 59.085 8.83517 58.5576 8.59253C58.0406 8.34989 57.471 8.22857 56.8486 8.22857C56.2156 8.22857 55.6354 8.34462 55.1079 8.5767C54.5804 8.80879 54.1215 9.13055 53.7312 9.54198C53.3409 9.94286 53.0349 10.4229 52.8134 10.982C52.6024 11.5306 52.4969 12.1213 52.4969 12.7543V19.0681C52.4969 19.4585 52.3703 19.7802 52.1171 20.0334C51.8639 20.2866 51.5475 20.4132 51.1677 20.4132C50.9778 20.4132 50.7984 20.3815 50.6297 20.3182C50.4609 20.2444 50.3132 20.1495 50.1866 20.0334C50.06 19.9174 49.9598 19.7749 49.8859 19.6062C49.8121 19.4374 49.7751 19.258 49.7751 19.0681V12.8018V12.7543V12.7385C49.7751 11.7363 49.9545 10.7974 50.3132 9.92176C50.6719 9.0356 51.1677 8.2655 51.8006 7.61143C52.4336 6.95736 53.1826 6.44044 54.0477 6.06066C54.9127 5.68088 55.8464 5.49099 56.8486 5.49099C57.8508 5.49099 58.7791 5.68088 59.6336 6.06066C60.4881 6.44044 61.2266 6.95736 61.849 7.61143C62.4714 8.2655 62.9567 9.0356 63.3048 9.92176C63.6529 10.7974 63.827 11.7363 63.827 12.7385V12.7701V12.8176V12.8492Z" fill="#020617"/>
<path d="M31.6018 13.0391C31.6018 11.9947 31.797 11.0136 32.1873 10.0958C32.5882 9.17802 33.1315 8.38154 33.8172 7.70637C34.5029 7.02066 35.3047 6.48264 36.2225 6.09231C37.1403 5.69143 38.1161 5.49099 39.1499 5.49099C40.1838 5.49099 41.1543 5.68615 42.0616 6.07648C42.9688 6.46681 43.76 6.99956 44.4352 7.67473C45.1209 8.34989 45.6642 9.1411 46.0651 10.0484C46.466 10.9556 46.6717 11.9262 46.6822 12.96V13.0391V18.989C46.6822 19.3793 46.5451 19.7116 46.2708 19.9859C46.0071 20.2602 45.6748 20.3974 45.2739 20.3974C44.8836 20.3974 44.5618 20.2602 44.3086 19.9859C44.066 19.7116 43.9447 19.3793 43.9447 18.989L43.9288 18.6567C43.2748 19.2369 42.5416 19.7064 41.7293 20.0651C40.9275 20.4132 40.0677 20.5873 39.1499 20.5873C38.1161 20.5873 37.1403 20.3921 36.2225 20.0018C35.3047 19.6009 34.5029 19.0576 33.8172 18.3719C33.1315 17.6862 32.5882 16.8897 32.1873 15.9824C31.797 15.0646 31.6018 14.0835 31.6018 13.0391ZM34.3236 13.0391C34.3236 13.6932 34.4502 14.3156 34.7033 14.9064C34.9565 15.4866 35.2994 15.9982 35.7319 16.4413C36.1644 16.8738 36.6761 17.222 37.2669 17.4857C37.8576 17.7389 38.4853 17.8655 39.1499 17.8655C39.8251 17.8655 40.4528 17.7389 41.033 17.4857C41.6132 17.222 42.1196 16.8738 42.5521 16.4413C42.9847 15.9982 43.3222 15.4866 43.5649 14.9064C43.8181 14.3156 43.9447 13.6932 43.9447 13.0391C43.9447 12.3745 43.8181 11.7521 43.5649 11.1719C43.3222 10.5811 42.9847 10.0695 42.5521 9.63692C42.1196 9.2044 41.6132 8.86154 41.033 8.60835C40.4528 8.35516 39.8251 8.22857 39.1499 8.22857C38.4853 8.22857 37.8576 8.35516 37.2669 8.60835C36.6866 8.86154 36.175 9.2044 35.7319 9.63692C35.2994 10.0695 34.9565 10.5811 34.7033 11.1719C34.4502 11.7521 34.3236 12.3745 34.3236 13.0391Z" fill="#020617"/>
<path d="M31.6018 24.596C31.6018 23.9551 32.1214 23.4356 32.7622 23.4356H74.1161V25.7565H32.7622C32.1214 25.7565 31.6018 25.2369 31.6018 24.596V24.596Z" fill="#020617"/>
<path d="M7.1994 1.71045L2.21284 5.62659C1.98992 5.80166 2.11371 6.15975 2.39718 6.15975H18.8909C19.0556 6.15975 19.1893 6.29337 19.1893 6.4582V23.9711C19.1893 24.234 19.5045 24.3685 19.6943 24.1866L24.8009 19.2914C25.0945 19.01 25.2605 18.621 25.2605 18.2142V2.88403C25.2605 2.0599 24.5924 1.3918 23.7682 1.3918H8.12106C7.78683 1.3918 7.46227 1.50401 7.1994 1.71045Z" fill="#020617" stroke="#020617" stroke-width="1.79068"/>
<path d="M18.246 5.94312H2.72676C1.86141 5.94312 1.15991 6.64462 1.15991 7.50996V23.0292C1.15991 23.8945 1.86141 24.596 2.72676 24.596H18.246C19.1113 24.596 19.8128 23.8945 19.8128 23.0292V7.50996C19.8128 6.64462 19.1113 5.94312 18.246 5.94312Z" fill="#F1F5F9" stroke="#020617" stroke-width="2.23835"/>
<path d="M14.7396 12.7328C15.7697 12.7328 16.6049 11.8977 16.6049 10.8675C16.6049 9.83732 15.7697 9.0022 14.7396 9.0022C13.7094 9.0022 12.8743 9.83732 12.8743 10.8675C12.8743 11.8977 13.7094 12.7328 14.7396 12.7328Z" fill="#020617"/>
<path d="M6.08502 12.7328C7.11519 12.7328 7.95031 11.8977 7.95031 10.8675C7.95031 9.83732 7.11519 9.0022 6.08502 9.0022C5.05485 9.0022 4.21973 9.83732 4.21973 10.8675C4.21973 11.8977 5.05485 12.7328 6.08502 12.7328Z" fill="#020617"/>
<path d="M14.7396 21.3877C15.7697 21.3877 16.6049 20.5526 16.6049 19.5224C16.6049 18.4923 15.7697 17.6572 14.7396 17.6572C13.7094 17.6572 12.8743 18.4923 12.8743 19.5224C12.8743 20.5526 13.7094 21.3877 14.7396 21.3877Z" fill="#020617"/>
<path d="M6.08502 21.3877C7.11519 21.3877 7.95031 20.5526 7.95031 19.5224C7.95031 18.4923 7.11519 17.6572 6.08502 17.6572C5.05485 17.6572 4.21973 18.4923 4.21973 19.5224C4.21973 20.5526 5.05485 21.3877 6.08502 21.3877Z" fill="#020617"/>
<path d="M10.4127 17.0603C11.4428 17.0603 12.2779 16.2251 12.2779 15.195C12.2779 14.1648 11.4428 13.3297 10.4127 13.3297C9.38248 13.3297 8.54736 14.1648 8.54736 15.195C8.54736 16.2251 9.38248 17.0603 10.4127 17.0603Z" fill="#020617"/>
<path d="M22.6359 4.9157C22.6196 4.8519 22.5289 4.8519 22.5126 4.9157L22.4925 4.99375C22.4867 5.01625 22.4692 5.03381 22.4466 5.03959L22.3686 5.05964C22.3049 5.07603 22.3049 5.16661 22.3686 5.183L22.4466 5.20305C22.4692 5.20883 22.4867 5.22639 22.4925 5.24889L22.5126 5.32695C22.5289 5.39074 22.6196 5.39074 22.6359 5.32695L22.656 5.24889C22.6618 5.22639 22.6793 5.20883 22.7019 5.20305L22.7799 5.183C22.8437 5.16661 22.8437 5.07603 22.7799 5.05964L22.7019 5.03959C22.6793 5.03381 22.6618 5.01625 22.656 4.99375L22.6359 4.9157Z" fill="white" fill-opacity="0.88"/>
<path d="M18.3083 2.08044C18.292 2.01665 18.2013 2.01665 18.185 2.08044L18.1649 2.1585C18.1591 2.181 18.1416 2.19856 18.119 2.20434L18.041 2.22439C17.9772 2.24078 17.9772 2.33136 18.041 2.34775L18.119 2.3678C18.1416 2.37358 18.1591 2.39114 18.1649 2.41364L18.185 2.4917C18.2013 2.55549 18.292 2.55549 18.3083 2.4917L18.3284 2.41364C18.3342 2.39114 18.3517 2.37358 18.3743 2.3678L18.4523 2.34775C18.516 2.33136 18.516 2.24078 18.4523 2.22439L18.3743 2.20434C18.3517 2.19856 18.3342 2.181 18.3284 2.1585L18.3083 2.08044Z" fill="white" fill-opacity="0.88"/>
<path d="M20.2477 13.5707C20.2314 13.5069 20.1408 13.5069 20.1244 13.5707L20.1044 13.6487C20.0986 13.6712 20.081 13.6888 20.0584 13.6946L19.9804 13.7146C19.9167 13.731 19.9167 13.8216 19.9804 13.838L20.0584 13.858C20.081 13.8638 20.0986 13.8814 20.1044 13.9039L20.1244 13.9819C20.1408 14.0457 20.2314 14.0457 20.2477 13.9819L20.2678 13.9039C20.2736 13.8814 20.2911 13.8638 20.3137 13.858L20.3917 13.838C20.4555 13.8216 20.4555 13.731 20.3917 13.7146L20.3137 13.6946C20.2911 13.6888 20.2736 13.6712 20.2678 13.6487L20.2477 13.5707Z" fill="white" fill-opacity="0.88"/>
<path d="M20.9951 8.04939C20.9787 7.98559 20.8881 7.98559 20.8717 8.04939L20.8517 8.12744C20.8459 8.14994 20.8283 8.1675 20.8058 8.17328L20.7277 8.19333C20.664 8.20972 20.664 8.3003 20.7277 8.31669L20.8058 8.33674C20.8283 8.34252 20.8459 8.36008 20.8517 8.38258L20.8717 8.46064C20.8881 8.52443 20.9787 8.52443 20.9951 8.46064L21.0151 8.38258C21.0209 8.36008 21.0385 8.34252 21.061 8.33674L21.1391 8.31669C21.2028 8.3003 21.2028 8.20972 21.1391 8.19333L21.061 8.17328C21.0385 8.1675 21.0209 8.14994 21.0151 8.12744L20.9951 8.04939Z" fill="white" fill-opacity="0.88"/>
<path d="M21.4411 18.7934C21.4248 18.7297 21.3341 18.7297 21.3178 18.7934L21.2977 18.8715C21.2919 18.894 21.2744 18.9116 21.2518 18.9174L21.1738 18.9374C21.11 18.9538 21.11 19.0444 21.1738 19.0608L21.2518 19.0808C21.2744 19.0866 21.2919 19.1042 21.2977 19.1267L21.3178 19.2048C21.3341 19.2685 21.4248 19.2685 21.4411 19.2048L21.4612 19.1267C21.467 19.1042 21.4845 19.0866 21.5071 19.0808L21.5851 19.0608C21.6488 19.0444 21.6488 18.9538 21.5851 18.9374L21.5071 18.9174C21.4845 18.9116 21.467 18.894 21.4612 18.8715L21.4411 18.7934Z" fill="white" fill-opacity="0.88"/>
<path d="M24.8745 6.40792C24.8581 6.34413 24.7675 6.34413 24.7511 6.40792L24.7311 6.48598C24.7253 6.50848 24.7077 6.52604 24.6852 6.53182L24.6071 6.55187C24.5434 6.56826 24.5434 6.65884 24.6071 6.67523L24.6852 6.69528C24.7077 6.70106 24.7253 6.71862 24.7311 6.74112L24.7511 6.81918C24.7675 6.88297 24.8581 6.88297 24.8745 6.81918L24.8945 6.74112C24.9003 6.71862 24.9178 6.70106 24.9404 6.69528L25.0184 6.67523C25.0822 6.65884 25.0822 6.56826 25.0184 6.55187L24.9404 6.53182C24.9178 6.52604 24.9003 6.50848 24.8945 6.48598L24.8745 6.40792Z" fill="white" fill-opacity="0.88"/>
<path d="M24.1274 10.7354C24.111 10.6716 24.0204 10.6716 24.0041 10.7354L23.984 10.8135C23.9782 10.836 23.9607 10.8535 23.9381 10.8593L23.8601 10.8794C23.7963 10.8957 23.7963 10.9863 23.8601 11.0027L23.9381 11.0228C23.9607 11.0285 23.9782 11.0461 23.984 11.0686L24.0041 11.1467C24.0204 11.2105 24.111 11.2105 24.1274 11.1467L24.1474 11.0686C24.1532 11.0461 24.1708 11.0285 24.1934 11.0228L24.2714 11.0027C24.3351 10.9863 24.3351 10.8957 24.2714 10.8794L24.1934 10.8593C24.1708 10.8535 24.1532 10.836 24.1474 10.8135L24.1274 10.7354Z" fill="white" fill-opacity="0.52"/>
<path d="M10.8464 3.42346C10.83 3.35967 10.7394 3.35967 10.723 3.42346L10.703 3.50152C10.6972 3.52401 10.6796 3.54158 10.6572 3.54736L10.5791 3.5674C10.5153 3.58379 10.5153 3.67438 10.5791 3.69077L10.6572 3.71081C10.6796 3.71659 10.6972 3.73416 10.703 3.75665L10.723 3.83471C10.7394 3.8985 10.83 3.8985 10.8464 3.83471L10.8664 3.75665C10.8722 3.73416 10.8898 3.71659 10.9123 3.71081L10.9903 3.69077C11.0541 3.67438 11.0541 3.58379 10.9903 3.5674L10.9123 3.54736C10.8898 3.54158 10.8722 3.52401 10.8664 3.50152L10.8464 3.42346Z" fill="white" fill-opacity="0.52"/>
<path d="M19.2038 5.36337C19.1875 5.29958 19.0968 5.29958 19.0805 5.36337L19.0604 5.44143C19.0546 5.46392 19.0371 5.48149 19.0145 5.48727L18.9365 5.50731C18.8727 5.5237 18.8727 5.61429 18.9365 5.63068L19.0145 5.65072C19.0371 5.6565 19.0546 5.67407 19.0604 5.69656L19.0805 5.77462C19.0968 5.83841 19.1875 5.83841 19.2038 5.77462L19.2239 5.69656C19.2297 5.67407 19.2472 5.6565 19.2698 5.65072L19.3478 5.63068C19.4115 5.61429 19.4115 5.5237 19.3478 5.50731L19.2698 5.48727C19.2472 5.48149 19.2297 5.46392 19.2239 5.44143L19.2038 5.36337Z" fill="white" fill-opacity="0.52"/>
<path d="M8.01095 1.33433C7.99456 1.27054 7.90398 1.27054 7.88759 1.33433L7.86754 1.41238C7.86176 1.43488 7.8442 1.45245 7.8217 1.45822L7.74364 1.47827C7.67985 1.49466 7.67985 1.58525 7.74364 1.60164L7.8217 1.62168C7.8442 1.62746 7.86176 1.64503 7.86754 1.66752L7.88759 1.74558C7.90398 1.80937 7.99456 1.80937 8.01095 1.74558L8.031 1.66752C8.03678 1.64503 8.05434 1.62746 8.07684 1.62168L8.1549 1.60164C8.21869 1.58525 8.21869 1.49466 8.1549 1.47827L8.07684 1.45822C8.05434 1.45245 8.03678 1.43488 8.031 1.41238L8.01095 1.33433Z" fill="white" fill-opacity="0.92"/>
<path d="M7.06884 4.2731C7.02503 4.10252 6.78276 4.10252 6.73895 4.2731L6.68534 4.48185C6.66989 4.54201 6.62292 4.58898 6.56276 4.60443L6.35401 4.65804C6.18343 4.70185 6.18343 4.94412 6.35401 4.98793L6.56276 5.04154C6.62292 5.057 6.66989 5.10397 6.68534 5.16412L6.73895 5.37288C6.78276 5.54345 7.02503 5.54345 7.06884 5.37288L7.12245 5.16412C7.13791 5.10397 7.18489 5.057 7.24505 5.04154L7.45379 4.98793C7.62436 4.94412 7.62436 4.70185 7.45379 4.65804L7.24503 4.60443C7.18488 4.58898 7.13791 4.54199 7.12245 4.48185L7.06884 4.2731Z" fill="white"/>
<path d="M14.531 1.7363C14.4872 1.56572 14.2449 1.56572 14.2011 1.7363L14.1475 1.94505C14.132 2.00521 14.0851 2.05218 14.0249 2.06763L13.8162 2.12125C13.6456 2.16506 13.6456 2.40732 13.8162 2.45113L14.0249 2.50475C14.0851 2.5202 14.132 2.56717 14.1475 2.62733L14.2011 2.83608C14.2449 3.00666 14.4872 3.00666 14.531 2.83608L14.5846 2.62733C14.6001 2.56717 14.647 2.5202 14.7072 2.50475L14.9159 2.45113C15.0865 2.40732 15.0865 2.16506 14.9159 2.12125L14.7072 2.06763C14.647 2.05218 14.6001 2.0052 14.5846 1.94505L14.531 1.7363Z" fill="white"/>
<path d="M22.8884 12.0327C22.8446 11.8621 22.6023 11.8621 22.5585 12.0327L22.5049 12.2415C22.4895 12.3016 22.4424 12.3486 22.3824 12.364L22.1736 12.4177C22.003 12.4615 22.003 12.7037 22.1736 12.7475L22.3824 12.8012C22.4424 12.8166 22.4895 12.8636 22.5049 12.9237L22.5585 13.1325C22.6023 13.3031 22.8446 13.3031 22.8884 13.1325L22.9421 12.9237C22.9574 12.8636 23.0045 12.8166 23.0646 12.8012L23.2733 12.7475C23.444 12.7037 23.444 12.4615 23.2733 12.4177L23.0646 12.364C23.0045 12.3486 22.9574 12.3016 22.9421 12.2415L22.8884 12.0327Z" fill="white"/>
<path d="M17.9629 4.57154C17.9191 4.40097 17.6768 4.40097 17.633 4.57154L17.5793 4.7803C17.564 4.84045 17.5169 4.88742 17.4569 4.90288L17.2481 4.95649C17.0775 5.0003 17.0775 5.24257 17.2481 5.28638L17.4569 5.33999C17.5169 5.35544 17.564 5.40241 17.5793 5.46257L17.633 5.67132C17.6768 5.8419 17.9191 5.8419 17.9629 5.67132L18.0165 5.46257C18.0319 5.40241 18.079 5.35544 18.139 5.33999L18.3478 5.28638C18.5184 5.24257 18.5184 5.0003 18.3478 4.95649L18.139 4.90288C18.079 4.88742 18.0319 4.84044 18.0165 4.7803L17.9629 4.57154Z" fill="white"/>
<path d="M23.4018 14.994C23.3799 14.9089 23.2593 14.9089 23.2374 14.994L23.2107 15.0981C23.2029 15.1281 23.1795 15.1515 23.1495 15.1592L23.0454 15.1859C22.9604 15.2077 22.9604 15.3286 23.0454 15.3504L23.1495 15.3771C23.1795 15.3848 23.2029 15.4082 23.2107 15.4383L23.2374 15.5423C23.2593 15.6273 23.3799 15.6273 23.4018 15.5423L23.4285 15.4383C23.4362 15.4082 23.4597 15.3848 23.4897 15.3771L23.5938 15.3504C23.6787 15.3286 23.6787 15.2077 23.5938 15.1859L23.4897 15.1592C23.4597 15.1515 23.4362 15.1281 23.4285 15.0981L23.4018 14.994Z" fill="white" fill-opacity="0.57"/>
<path d="M15.7904 3.80223C15.7686 3.71717 15.6479 3.71717 15.6261 3.80223L15.5993 3.9063C15.5916 3.9363 15.5681 3.95972 15.5381 3.96742L15.4341 3.99415C15.3491 4.01599 15.3491 4.1368 15.4341 4.15865L15.5381 4.18538C15.5681 4.19308 15.5916 4.21649 15.5993 4.24649L15.6261 4.35057C15.6479 4.43563 15.7686 4.43563 15.7904 4.35057L15.8172 4.24649C15.8249 4.21649 15.8484 4.19308 15.8784 4.18538L15.9824 4.15865C16.0674 4.1368 16.0674 4.01599 15.9824 3.99415L15.8784 3.96742C15.8484 3.95972 15.8249 3.9363 15.8172 3.9063L15.7904 3.80223Z" fill="white" fill-opacity="0.57"/>
<path d="M22.9543 2.01155C22.9324 1.9265 22.8118 1.9265 22.7899 2.01155L22.7632 2.11563C22.7554 2.14563 22.732 2.16905 22.7019 2.17675L22.5979 2.20348C22.5129 2.22532 22.5129 2.34613 22.5979 2.36797L22.7019 2.39471C22.732 2.4024 22.7554 2.42582 22.7632 2.45582L22.7899 2.5599C22.8118 2.64495 22.9324 2.64495 22.9543 2.5599L22.981 2.45582C22.9887 2.42582 23.0122 2.4024 23.0422 2.39471L23.1462 2.36797C23.2312 2.34613 23.2312 2.22532 23.1462 2.20348L23.0422 2.17675C23.0122 2.16905 22.9887 2.14563 22.981 2.11563L22.9543 2.01155Z" fill="white" fill-opacity="0.57"/>
</g>
<defs>
<clipPath id="clip0_250_941">
<rect width="144" height="25.8462" fill="white"/>
</clipPath>
</defs>
</svg>
