<svg width="201" height="36" viewBox="0 0 201 36" fill="none" xmlns="http://www.w3.org/2000/svg">
<g clip-path="url(#clip0_250_977)">
<path d="M200.496 18.1396V18.1616V18.2278V18.2718C200.481 19.7118 200.187 21.0637 199.614 22.3273C199.056 23.5763 198.299 24.6784 197.344 25.6335C196.403 26.5739 195.294 27.3159 194.016 27.8596C192.752 28.4033 191.407 28.6751 189.982 28.6751C188.527 28.6751 187.161 28.4033 185.883 27.8596C184.604 27.3012 183.487 26.5445 182.532 25.5894C181.592 24.6343 180.85 23.5176 180.306 22.2392C179.763 20.9608 179.491 19.6016 179.491 18.1616C179.491 16.7069 179.763 15.3404 180.306 14.062C180.85 12.7837 181.592 11.6743 182.532 10.7339C183.487 9.77878 184.604 9.02939 185.883 8.48571C187.161 7.92735 188.527 7.64816 189.982 7.64816C191.261 7.64816 192.465 7.86857 193.597 8.30939C194.728 8.73551 195.757 9.32327 196.683 10.0727V1.98367C196.683 1.42531 196.859 0.955101 197.212 0.573062C197.564 0.191021 198.02 0 198.578 0C199.107 0 199.555 0.191021 199.923 0.573062C200.305 0.955101 200.496 1.42531 200.496 1.98367V18.1396ZM196.683 18.1616C196.683 17.2359 196.506 16.369 196.154 15.5608C195.801 14.738 195.323 14.0253 194.721 13.4229C194.118 12.8057 193.406 12.3282 192.583 11.9902C191.775 11.6376 190.908 11.4612 189.982 11.4612C189.042 11.4612 188.16 11.6376 187.337 11.9902C186.529 12.3282 185.824 12.8057 185.221 13.4229C184.619 14.0253 184.141 14.738 183.789 15.5608C183.451 16.369 183.282 17.2359 183.282 18.1616C183.282 19.0727 183.451 19.9396 183.789 20.7625C184.141 21.5706 184.619 22.2833 185.221 22.9004C185.824 23.5029 186.529 23.9878 187.337 24.3551C188.16 24.7078 189.042 24.8841 189.982 24.8841C190.908 24.8841 191.775 24.7078 192.583 24.3551C193.406 23.9878 194.118 23.5029 194.721 22.9004C195.323 22.2833 195.801 21.5706 196.154 20.7625C196.506 19.9396 196.683 19.0727 196.683 18.1616Z" fill="#F8FAFC"/>
<path d="M176.376 17.8972V26.5592C176.376 27.1029 176.2 27.551 175.847 27.9037C175.495 28.2563 175.054 28.4327 174.525 28.4327C173.996 28.4327 173.541 28.2563 173.158 27.9037C172.776 27.551 172.585 27.1029 172.585 26.5592V17.8531V17.831C172.585 16.9494 172.438 16.1265 172.145 15.3625C171.851 14.5837 171.439 13.9078 170.91 13.3347C170.396 12.7616 169.772 12.3061 169.037 11.9682C168.317 11.6302 167.523 11.4612 166.656 11.4612C165.775 11.4612 164.967 11.6229 164.232 11.9461C163.497 12.2694 162.858 12.7176 162.314 13.2906C161.771 13.849 161.345 14.5176 161.036 15.2963C160.742 16.0604 160.595 16.8833 160.595 17.7649V26.5592C160.595 27.1029 160.419 27.551 160.066 27.9037C159.714 28.2563 159.273 28.4327 158.744 28.4327C158.479 28.4327 158.23 28.3886 157.994 28.3004C157.759 28.1976 157.554 28.0653 157.377 27.9037C157.201 27.7421 157.061 27.5437 156.958 27.3086C156.856 27.0735 156.804 26.8237 156.804 26.5592V17.831V17.7649V17.7429C156.804 16.347 157.054 15.0392 157.554 13.8196C158.053 12.5853 158.744 11.5127 159.625 10.6016C160.507 9.69062 161.55 8.97062 162.755 8.44164C163.96 7.91266 165.261 7.64817 166.656 7.64817C168.052 7.64817 169.345 7.91266 170.536 8.44164C171.726 8.97062 172.754 9.69062 173.621 10.6016C174.488 11.5127 175.164 12.5853 175.649 13.8196C176.134 15.0392 176.376 16.347 176.376 17.7429V17.787V17.8531V17.8972Z" fill="#F8FAFC"/>
<path d="M131.493 18.1616C131.493 16.707 131.765 15.3404 132.308 14.0621C132.867 12.7837 133.623 11.6743 134.578 10.7339C135.533 9.77879 136.65 9.0294 137.929 8.48572C139.207 7.92736 140.566 7.64817 142.006 7.64817C143.446 7.64817 144.798 7.92001 146.062 8.46368C147.325 9.00736 148.427 9.7494 149.368 10.6898C150.323 11.6302 151.08 12.7323 151.638 13.9959C152.196 15.2596 152.483 16.6114 152.498 18.0514V18.1616V26.449C152.498 26.9927 152.307 27.4555 151.925 27.8376C151.557 28.2196 151.094 28.4106 150.536 28.4106C149.992 28.4106 149.544 28.2196 149.191 27.8376C148.853 27.4555 148.685 26.9927 148.685 26.449L148.662 25.9861C147.751 26.7943 146.73 27.4482 145.599 27.9478C144.482 28.4327 143.285 28.6751 142.006 28.6751C140.566 28.6751 139.207 28.4033 137.929 27.8596C136.65 27.3012 135.533 26.5445 134.578 25.5894C133.623 24.6343 132.867 23.5249 132.308 22.2612C131.765 20.9829 131.493 19.6163 131.493 18.1616ZM135.284 18.1616C135.284 19.0727 135.46 19.9396 135.813 20.7625C136.165 21.5706 136.643 22.2833 137.245 22.9004C137.848 23.5029 138.56 23.9878 139.383 24.3551C140.206 24.7078 141.08 24.8841 142.006 24.8841C142.947 24.8841 143.821 24.7078 144.629 24.3551C145.437 23.9878 146.142 23.5029 146.745 22.9004C147.347 22.2833 147.818 21.5706 148.156 20.7625C148.508 19.9396 148.685 19.0727 148.685 18.1616C148.685 17.2359 148.508 16.369 148.156 15.5608C147.818 14.738 147.347 14.0253 146.745 13.4229C146.142 12.8204 145.437 12.3429 144.629 11.9902C143.821 11.6376 142.947 11.4612 142.006 11.4612C141.08 11.4612 140.206 11.6376 139.383 11.9902C138.575 12.3429 137.862 12.8204 137.245 13.4229C136.643 14.0253 136.165 14.738 135.813 15.5608C135.46 16.369 135.284 17.2359 135.284 18.1616Z" fill="#F8FAFC"/>
<path d="M128.544 11.7257H128.522C127.552 11.7257 126.634 11.9167 125.767 12.2988C124.9 12.6661 124.143 13.1731 123.497 13.8196C122.85 14.4661 122.336 15.2302 121.954 16.1118C121.572 16.9788 121.381 17.9118 121.381 18.911V26.5151C121.381 27.0588 121.205 27.5143 120.852 27.8816C120.499 28.2343 120.066 28.4106 119.551 28.4106C119.008 28.4106 118.545 28.2343 118.163 27.8816C117.781 27.5143 117.59 27.0588 117.59 26.5151V18.911C117.59 17.3975 117.876 15.9796 118.449 14.6571C119.023 13.32 119.801 12.1518 120.786 11.1527C121.785 10.1535 122.946 9.36735 124.268 8.79428C125.605 8.20653 127.023 7.91265 128.522 7.91265H128.544H128.632C129.264 7.91265 129.749 8.09632 130.087 8.46367C130.44 8.81632 130.616 9.26449 130.616 9.80816C130.616 10.3518 130.425 10.8073 130.043 11.1747C129.661 11.542 129.191 11.7257 128.632 11.7257H128.544Z" fill="#F8FAFC"/>
<path d="M96.8868 18.5804C96.8868 19.462 97.0484 20.2849 97.3717 21.049C97.7096 21.8131 98.1652 22.4816 98.7382 23.0547C99.3113 23.6131 99.9799 24.0539 100.744 24.3771C101.508 24.7004 102.331 24.862 103.213 24.862C104.079 24.862 104.888 24.7004 105.637 24.3771C106.401 24.0539 107.062 23.6057 107.621 23.0327C108.194 22.4596 108.642 21.791 108.965 21.0269C109.303 20.2482 109.479 19.418 109.494 18.5363V18.4482V18.4041V9.8302C109.494 9.56571 109.546 9.31592 109.648 9.08082C109.751 8.84571 109.891 8.64734 110.067 8.48571C110.244 8.30939 110.449 8.16979 110.684 8.06694C110.919 7.96408 111.169 7.91265 111.434 7.91265C111.977 7.91265 112.426 8.10367 112.778 8.48571C113.131 8.85306 113.307 9.30122 113.307 9.8302V18.382V18.4482V18.5363C113.307 19.7706 113.094 20.9461 112.668 22.0629C112.257 23.1796 111.684 24.1788 110.949 25.0604C110.214 25.942 109.34 26.6841 108.326 27.2865C107.327 27.8743 106.239 28.2784 105.064 28.4988V33.9429C105.064 34.2074 105.013 34.4571 104.91 34.6922C104.807 34.9273 104.667 35.1331 104.491 35.3094C104.329 35.4857 104.131 35.6253 103.896 35.7282C103.675 35.831 103.433 35.8824 103.168 35.8824C102.625 35.8824 102.169 35.6914 101.802 35.3094C101.435 34.942 101.251 34.4865 101.251 33.9429V28.4767C100.075 28.2563 98.988 27.8449 97.9888 27.2425C97.0043 26.64 96.1448 25.898 95.4101 25.0163C94.6754 24.1347 94.1023 23.1429 93.6909 22.0408C93.2794 20.9388 93.0737 19.7706 93.0737 18.5363V9.8302C93.0737 9.30122 93.2574 8.85306 93.6248 8.48571C93.9921 8.10367 94.4403 7.91265 94.9692 7.91265C95.2337 7.91265 95.4762 7.96408 95.6966 8.06694C95.9317 8.16979 96.1374 8.30939 96.3137 8.48571C96.4901 8.64734 96.6296 8.84571 96.7325 9.08082C96.8354 9.31592 96.8868 9.56571 96.8868 9.8302V18.5804Z" fill="#F8FAFC"/>
<path d="M88.9021 17.8972V26.5592C88.9021 27.1029 88.7258 27.551 88.3731 27.9037C88.0204 28.2563 87.5796 28.4327 87.0507 28.4327C86.5217 28.4327 86.0662 28.2563 85.6841 27.9037C85.3021 27.551 85.1111 27.1029 85.1111 26.5592V17.8531V17.831C85.1111 16.9494 84.9641 16.1265 84.6702 15.3625C84.3764 14.5837 83.9649 13.9078 83.436 13.3347C82.9217 12.7616 82.2972 12.3061 81.5625 11.9682C80.8425 11.6302 80.049 11.4612 79.1821 11.4612C78.3004 11.4612 77.4923 11.6229 76.7576 11.9461C76.0229 12.2694 75.3837 12.7176 74.84 13.2906C74.2964 13.849 73.8702 14.5176 73.5617 15.2963C73.2678 16.0604 73.1209 16.8833 73.1209 17.7649V26.5592C73.1209 27.1029 72.9445 27.551 72.5919 27.9037C72.2392 28.2563 71.7984 28.4327 71.2694 28.4327C71.0049 28.4327 70.7551 28.3886 70.52 28.3004C70.2849 28.1976 70.0792 28.0653 69.9029 27.9037C69.7266 27.7421 69.587 27.5437 69.4841 27.3086C69.3813 27.0735 69.3298 26.8237 69.3298 26.5592V17.831V17.7649V17.7429C69.3298 16.347 69.5796 15.0392 70.0792 13.8196C70.5788 12.5853 71.2694 11.5127 72.1511 10.6016C73.0327 9.69062 74.076 8.97062 75.2809 8.44164C76.4858 7.91266 77.7862 7.64817 79.1821 7.64817C80.578 7.64817 81.8711 7.91266 83.0613 8.44164C84.2515 8.97062 85.28 9.69062 86.147 10.6016C87.0139 11.5127 87.6898 12.5853 88.1747 13.8196C88.6596 15.0392 88.9021 16.347 88.9021 17.7429V17.787V17.8531V17.8972Z" fill="#F8FAFC"/>
<path d="M44.0171 18.1616C44.0171 16.707 44.2889 15.3404 44.8326 14.0621C45.391 12.7837 46.1477 11.6743 47.1028 10.7339C48.0579 9.77879 49.1746 9.0294 50.453 8.48572C51.7314 7.92736 53.0906 7.64817 54.5306 7.64817C55.9706 7.64817 57.3224 7.92001 58.5861 8.46368C59.8497 9.00736 60.9518 9.7494 61.8922 10.6898C62.8473 11.6302 63.604 12.7323 64.1624 13.9959C64.7208 15.2596 65.0073 16.6114 65.022 18.0514V18.1616V26.449C65.022 26.9927 64.831 27.4555 64.4489 27.8376C64.0816 28.2196 63.6187 28.4106 63.0604 28.4106C62.5167 28.4106 62.0685 28.2196 61.7159 27.8376C61.3779 27.4555 61.2089 26.9927 61.2089 26.449L61.1869 25.9861C60.2759 26.7943 59.2546 27.4482 58.1232 27.9478C57.0065 28.4327 55.8089 28.6751 54.5306 28.6751C53.0906 28.6751 51.7314 28.4033 50.453 27.8596C49.1746 27.3012 48.0579 26.5445 47.1028 25.5894C46.1477 24.6343 45.391 23.5249 44.8326 22.2612C44.2889 20.9829 44.0171 19.6163 44.0171 18.1616ZM47.8081 18.1616C47.8081 19.0727 47.9844 19.9396 48.3371 20.7625C48.6897 21.5706 49.1673 22.2833 49.7697 22.9004C50.3722 23.5029 51.0848 23.9878 51.9077 24.3551C52.7306 24.7078 53.6048 24.8841 54.5306 24.8841C55.471 24.8841 56.3453 24.7078 57.1534 24.3551C57.9616 23.9878 58.6669 23.5029 59.2693 22.9004C59.8718 22.2833 60.342 21.5706 60.6799 20.7625C61.0326 19.9396 61.2089 19.0727 61.2089 18.1616C61.2089 17.2359 61.0326 16.369 60.6799 15.5608C60.342 14.738 59.8718 14.0253 59.2693 13.4229C58.6669 12.8204 57.9616 12.3429 57.1534 11.9902C56.3453 11.6376 55.471 11.4612 54.5306 11.4612C53.6048 11.4612 52.7306 11.6376 51.9077 11.9902C51.0995 12.3429 50.3869 12.8204 49.7697 13.4229C49.1673 14.0253 48.6897 14.738 48.3371 15.5608C47.9844 16.369 47.8081 17.2359 47.8081 18.1616Z" fill="#F8FAFC"/>
<path d="M44.0171 34.2588C44.0171 33.3661 44.7407 32.6424 45.6334 32.6424H103.233V35.8751H45.6334C44.7407 35.8751 44.0171 35.1514 44.0171 34.2588V34.2588Z" fill="#F8FAFC"/>
<path d="M10.0274 2.38242L3.08188 7.83705C2.77137 8.0809 2.9438 8.57967 3.33863 8.57967H26.312C26.5415 8.57967 26.7277 8.76577 26.7277 8.99536V33.3883C26.7277 33.7545 27.1667 33.9418 27.431 33.6884L34.5438 26.8702C34.9528 26.4782 35.1839 25.9364 35.1839 25.3698V4.01705C35.1839 2.86916 34.2534 1.93858 33.1055 1.93858H11.3112C10.8456 1.93858 10.3936 2.09488 10.0274 2.38242Z" fill="#F8FAFC" stroke="#F8FAFC" stroke-width="2.49416"/>
<path d="M25.4144 8.27792H3.79836C2.59306 8.27792 1.61597 9.25501 1.61597 10.4603V32.0764C1.61597 33.2817 2.59306 34.2588 3.79836 34.2588H25.4144C26.6197 34.2588 27.5968 33.2817 27.5968 32.0764V10.4603C27.5968 9.25501 26.6197 8.27792 25.4144 8.27792Z" fill="#020617" stroke="#F8FAFC" stroke-width="3.1177"/>
<path d="M20.53 17.7349C21.9649 17.7349 23.1281 16.5717 23.1281 15.1369C23.1281 13.702 21.9649 12.5388 20.53 12.5388C19.0951 12.5388 17.9319 13.702 17.9319 15.1369C17.9319 16.5717 19.0951 17.7349 20.53 17.7349Z" fill="#F1F5F9"/>
<path d="M8.47553 17.7349C9.91041 17.7349 11.0736 16.5717 11.0736 15.1369C11.0736 13.702 9.91041 12.5388 8.47553 12.5388C7.04064 12.5388 5.87744 13.702 5.87744 15.1369C5.87744 16.5717 7.04064 17.7349 8.47553 17.7349Z" fill="#F1F5F9"/>
<path d="M20.53 29.7901C21.9649 29.7901 23.1281 28.6269 23.1281 27.192C23.1281 25.7571 21.9649 24.5939 20.53 24.5939C19.0951 24.5939 17.9319 25.7571 17.9319 27.192C17.9319 28.6269 19.0951 29.7901 20.53 29.7901Z" fill="#F1F5F9"/>
<path d="M8.47553 29.7901C9.91041 29.7901 11.0736 28.6269 11.0736 27.192C11.0736 25.7571 9.91041 24.5939 8.47553 24.5939C7.04064 24.5939 5.87744 25.7571 5.87744 27.192C5.87744 28.6269 7.04064 29.7901 8.47553 29.7901Z" fill="#F1F5F9"/>
<path d="M14.5034 23.7625C15.9382 23.7625 17.1014 22.5993 17.1014 21.1644C17.1014 19.7295 15.9382 18.5663 14.5034 18.5663C13.0685 18.5663 11.9053 19.7295 11.9053 21.1644C11.9053 22.5993 13.0685 23.7625 14.5034 23.7625Z" fill="#F1F5F9"/>
<path d="M31.5285 6.84705C31.5057 6.75794 31.3791 6.75794 31.3563 6.84705L31.3283 6.95608C31.3202 6.9875 31.2957 7.01203 31.2641 7.02011L31.1552 7.04811C31.0661 7.071 31.0661 7.19752 31.1552 7.22042L31.2641 7.24842C31.2957 7.25649 31.3202 7.28102 31.3283 7.31245L31.3563 7.42148C31.3791 7.51058 31.5057 7.51058 31.5285 7.42148L31.5566 7.31245C31.5647 7.28102 31.5892 7.25649 31.6207 7.24842L31.7297 7.22042C31.8187 7.19752 31.8187 7.071 31.7297 7.04811L31.6207 7.02011C31.5892 7.01203 31.5647 6.9875 31.5566 6.95608L31.5285 6.84705Z" fill="black" fill-opacity="0.88"/>
<path d="M25.5017 2.89794C25.4789 2.80884 25.3523 2.80884 25.3294 2.89794L25.3014 3.00697C25.2933 3.03839 25.2688 3.06292 25.2373 3.071L25.1283 3.099C25.0393 3.12189 25.0393 3.24842 25.1283 3.27131L25.2373 3.29931C25.2688 3.30738 25.2933 3.33192 25.3014 3.36334L25.3294 3.47237C25.3523 3.56147 25.4789 3.56147 25.5017 3.47237L25.5297 3.36334C25.5378 3.33192 25.5623 3.30738 25.5939 3.29931L25.7028 3.27131C25.7919 3.24842 25.7919 3.12189 25.7028 3.099L25.5939 3.071C25.5623 3.06292 25.5378 3.03839 25.5297 3.00697L25.5017 2.89794Z" fill="black" fill-opacity="0.88"/>
<path d="M28.2036 18.9022C28.1808 18.8131 28.0542 18.8131 28.0313 18.9022L28.0033 19.0112C27.9952 19.0426 27.9707 19.0672 27.9392 19.0752L27.8302 19.1032C27.7412 19.1261 27.7412 19.2526 27.8302 19.2755L27.9392 19.3035C27.9707 19.3116 27.9952 19.3361 28.0033 19.3676L28.0313 19.4766C28.0542 19.5657 28.1808 19.5657 28.2036 19.4766L28.2316 19.3676C28.2397 19.3361 28.2642 19.3116 28.2958 19.3035L28.4047 19.2755C28.4938 19.2526 28.4938 19.1261 28.4047 19.1032L28.2958 19.0752C28.2642 19.0672 28.2397 19.0426 28.2316 19.0112L28.2036 18.9022Z" fill="black" fill-opacity="0.88"/>
<path d="M29.2429 11.2118C29.2201 11.1227 29.0935 11.1227 29.0706 11.2118L29.0426 11.3209C29.0345 11.3523 29.01 11.3768 28.9785 11.3849L28.8695 11.4129C28.7805 11.4358 28.7805 11.5623 28.8695 11.5852L28.9785 11.6132C29.01 11.6213 29.0345 11.6458 29.0426 11.6772L29.0706 11.7863C29.0935 11.8754 29.2201 11.8754 29.2429 11.7863L29.2709 11.6772C29.279 11.6458 29.3035 11.6213 29.3351 11.6132L29.444 11.5852C29.5331 11.5623 29.5331 11.4358 29.444 11.4129L29.3351 11.3849C29.3035 11.3768 29.279 11.3523 29.2709 11.3209L29.2429 11.2118Z" fill="black" fill-opacity="0.88"/>
<path d="M29.8674 26.1768C29.8446 26.0877 29.718 26.0877 29.6951 26.1768L29.6671 26.2857C29.659 26.3173 29.6345 26.3418 29.603 26.3499L29.494 26.3779C29.405 26.4007 29.405 26.5273 29.494 26.5502L29.603 26.5782C29.6345 26.5863 29.659 26.6108 29.6671 26.6423L29.6951 26.7513C29.718 26.8403 29.8446 26.8403 29.8674 26.7513L29.8954 26.6423C29.9035 26.6108 29.928 26.5863 29.9596 26.5782L30.0685 26.5502C30.1576 26.5273 30.1576 26.4007 30.0685 26.3779L29.9596 26.3499C29.928 26.3418 29.9035 26.3173 29.8954 26.2857L29.8674 26.1768Z" fill="black" fill-opacity="0.88"/>
<path d="M34.6465 8.92551C34.6236 8.83641 34.497 8.83641 34.4742 8.92551L34.4462 9.03454C34.4381 9.06596 34.4136 9.0905 34.382 9.09857L34.2731 9.12657C34.184 9.14946 34.184 9.27599 34.2731 9.29888L34.382 9.32688C34.4136 9.33496 34.4381 9.35949 34.4462 9.39091L34.4742 9.49994C34.497 9.58904 34.6236 9.58904 34.6465 9.49994L34.6745 9.39091C34.6826 9.35949 34.7071 9.33496 34.7386 9.32688L34.8476 9.29888C34.9366 9.27599 34.9366 9.14946 34.8476 9.12657L34.7386 9.09857C34.7071 9.0905 34.6826 9.06596 34.6745 9.03454L34.6465 8.92551Z" fill="black" fill-opacity="0.88"/>
<path d="M33.6081 14.9531C33.5853 14.864 33.4587 14.864 33.4359 14.9531L33.4079 15.0621C33.3998 15.0935 33.3753 15.1181 33.3437 15.1261L33.2347 15.1541C33.1457 15.177 33.1457 15.3036 33.2347 15.3265L33.3437 15.3545C33.3753 15.3625 33.3998 15.3871 33.4079 15.4185L33.4359 15.5275C33.4587 15.6166 33.5853 15.6166 33.6081 15.5275L33.6362 15.4185C33.6443 15.3871 33.6687 15.3625 33.7003 15.3545L33.8093 15.3265C33.8983 15.3036 33.8983 15.177 33.8093 15.1541L33.7003 15.1261C33.6687 15.1181 33.6443 15.0935 33.6362 15.0621L33.6081 14.9531Z" fill="black" fill-opacity="0.52"/>
<path d="M15.1087 4.76858C15.0858 4.67948 14.9592 4.67948 14.9363 4.76858L14.9083 4.87761C14.9003 4.90903 14.8757 4.93356 14.8443 4.94164L14.7353 4.96964C14.6462 4.99253 14.6462 5.11906 14.7353 5.14195L14.8443 5.16995C14.8757 5.17802 14.9003 5.20256 14.9083 5.23398L14.9363 5.34301C14.9592 5.43211 15.0858 5.43211 15.1087 5.34301L15.1367 5.23398C15.1447 5.20256 15.1693 5.17802 15.2007 5.16995L15.3097 5.14195C15.3988 5.11906 15.3988 4.99253 15.3097 4.96964L15.2007 4.94164C15.1693 4.93356 15.1447 4.90903 15.1367 4.87761L15.1087 4.76858Z" fill="black" fill-opacity="0.52"/>
<path d="M26.7493 7.47058C26.7264 7.38148 26.5998 7.38148 26.577 7.47058L26.549 7.57961C26.5409 7.61103 26.5164 7.63557 26.4848 7.64364L26.3759 7.67164C26.2868 7.69453 26.2868 7.82106 26.3759 7.84395L26.4848 7.87195C26.5164 7.88003 26.5409 7.90456 26.549 7.93598L26.577 8.04501C26.5998 8.13411 26.7264 8.13411 26.7493 8.04501L26.7773 7.93598C26.7854 7.90456 26.8099 7.88003 26.8414 7.87195L26.9504 7.84395C27.0394 7.82106 27.0394 7.69453 26.9504 7.67164L26.8414 7.64364C26.8099 7.63557 26.7854 7.61103 26.7773 7.57961L26.7493 7.47058Z" fill="black" fill-opacity="0.52"/>
<path d="M11.1592 1.85872C11.1363 1.76962 11.0098 1.76962 10.9869 1.85872L10.9589 1.96775C10.9508 1.99917 10.9263 2.02371 10.8948 2.03178L10.7858 2.05978C10.6967 2.08266 10.6967 2.20921 10.7858 2.23209L10.8948 2.2601C10.9263 2.26816 10.9508 2.2927 10.9589 2.32412L10.9869 2.43315C11.0098 2.52225 11.1363 2.52225 11.1592 2.43315L11.1872 2.32412C11.1953 2.2927 11.2198 2.26816 11.2512 2.2601L11.3603 2.23209C11.4494 2.20921 11.4494 2.08266 11.3603 2.05978L11.2512 2.03178C11.2198 2.02371 11.1953 1.99917 11.1872 1.96775L11.1592 1.85872Z" fill="black" fill-opacity="0.92"/>
<path d="M9.84884 5.95207C9.78774 5.71415 9.44982 5.71415 9.38871 5.95207L9.31393 6.24324C9.29238 6.32715 9.22686 6.39266 9.14295 6.41422L8.85178 6.489C8.61386 6.55011 8.61386 6.88803 8.85178 6.94913L9.14295 7.02392C9.22686 7.04547 9.29238 7.11098 9.31393 7.19489L9.38871 7.48606C9.44982 7.72399 9.78774 7.72399 9.84884 7.48606L9.92363 7.19489C9.94518 7.11098 10.0107 7.04547 10.0946 7.02392L10.3858 6.94913C10.6237 6.88803 10.6237 6.55011 10.3858 6.489L10.0946 6.41422C10.0107 6.39266 9.94518 6.32713 9.92363 6.24324L9.84884 5.95207Z" fill="black"/>
<path d="M20.2409 2.41866C20.1798 2.18073 19.8419 2.18073 19.7808 2.41866L19.706 2.70982C19.6845 2.79374 19.619 2.85925 19.535 2.88081L19.2439 2.95559C19.0059 3.0167 19.0059 3.35461 19.2439 3.41572L19.535 3.4905C19.619 3.51206 19.6845 3.57757 19.706 3.66148L19.7808 3.95265C19.8419 4.19057 20.1798 4.19057 20.2409 3.95265L20.3157 3.66148C20.3373 3.57757 20.4028 3.51206 20.4867 3.4905L20.7779 3.41572C21.0158 3.35461 21.0158 3.0167 20.7779 2.95559L20.4867 2.88081C20.4028 2.85925 20.3373 2.79372 20.3157 2.70982L20.2409 2.41866Z" fill="black"/>
<path d="M31.8804 16.7601C31.8193 16.5222 31.4813 16.5222 31.4202 16.7601L31.3454 17.0513C31.324 17.1352 31.2583 17.2007 31.1745 17.2223L30.8833 17.297C30.6453 17.3581 30.6453 17.6961 30.8833 17.7572L31.1745 17.832C31.2583 17.8535 31.324 17.919 31.3454 18.0029L31.4202 18.2941C31.4813 18.532 31.8193 18.532 31.8804 18.2941L31.9552 18.0029C31.9766 17.919 32.0423 17.8535 32.126 17.832L32.4172 17.7572C32.6552 17.6961 32.6552 17.3581 32.4172 17.297L32.126 17.2223C32.0423 17.2007 31.9766 17.1352 31.9552 17.0513L31.8804 16.7601Z" fill="black"/>
<path d="M25.02 6.36776C24.9589 6.12984 24.6209 6.12984 24.5598 6.36776L24.485 6.65893C24.4636 6.74284 24.3979 6.80836 24.3142 6.82991L24.023 6.90469C23.785 6.9658 23.785 7.30372 24.023 7.36482L24.3142 7.43961C24.3979 7.46116 24.4636 7.52667 24.485 7.61058L24.5598 7.90176C24.6209 8.13968 24.9589 8.13968 25.02 7.90176L25.0948 7.61058C25.1162 7.52667 25.1819 7.46116 25.2657 7.43961L25.5569 7.36482C25.7949 7.30372 25.7949 6.9658 25.5569 6.90469L25.2657 6.82991C25.1819 6.80836 25.1162 6.74282 25.0948 6.65893L25.02 6.36776Z" fill="black"/>
<path d="M32.5978 20.8848C32.5673 20.7659 32.3985 20.7659 32.368 20.8848L32.3305 21.0304C32.3197 21.0724 32.2869 21.1051 32.2449 21.1159L32.0994 21.1533C31.9805 21.1839 31.9805 21.3528 32.0994 21.3834L32.2449 21.4208C32.2869 21.4315 32.3197 21.4643 32.3305 21.5063L32.368 21.6518C32.3985 21.7707 32.5673 21.7707 32.5978 21.6518L32.6353 21.5063C32.6461 21.4643 32.6789 21.4315 32.7209 21.4208L32.8664 21.3834C32.9853 21.3528 32.9853 21.1839 32.8664 21.1533L32.7209 21.1159C32.6789 21.1051 32.6461 21.0724 32.6353 21.0304L32.5978 20.8848Z" fill="black" fill-opacity="0.57"/>
<path d="M21.9963 5.29632C21.9657 5.17735 21.7969 5.17735 21.7664 5.29632L21.729 5.4419C21.7182 5.48386 21.6853 5.51662 21.6434 5.52738L21.4979 5.56478C21.379 5.59533 21.379 5.76431 21.4979 5.79486L21.6434 5.83225C21.6853 5.84302 21.7182 5.87578 21.729 5.91774L21.7664 6.06332C21.7969 6.18229 21.9657 6.18229 21.9963 6.06332L22.0337 5.91774C22.0445 5.87578 22.0773 5.84302 22.1193 5.83225L22.2648 5.79486C22.3837 5.76431 22.3837 5.59533 22.2648 5.56478L22.1193 5.52738C22.0773 5.51662 22.0445 5.48386 22.0337 5.4419L21.9963 5.29632Z" fill="black" fill-opacity="0.57"/>
<path d="M31.9733 2.80218C31.9428 2.68322 31.774 2.68322 31.7434 2.80218L31.706 2.94776C31.6952 2.98972 31.6624 3.02248 31.6204 3.03325L31.4749 3.07064C31.356 3.10119 31.356 3.27017 31.4749 3.30072L31.6204 3.33812C31.6624 3.34888 31.6952 3.38164 31.706 3.4236L31.7434 3.56918C31.774 3.68815 31.9428 3.68815 31.9733 3.56918L32.0107 3.4236C32.0215 3.38164 32.0544 3.34888 32.0964 3.33812L32.2419 3.30072C32.3608 3.27017 32.3608 3.10119 32.2419 3.07064L32.0964 3.03325C32.0544 3.02248 32.0215 2.98972 32.0107 2.94776L31.9733 2.80218Z" fill="black" fill-opacity="0.57"/>
</g>
<defs>
<clipPath id="clip0_250_977">
<rect width="200.571" height="36" fill="white"/>
</clipPath>
</defs>
</svg>
