<svg width="201" height="36" viewBox="0 0 201 36" fill="none" xmlns="http://www.w3.org/2000/svg">
<g clip-path="url(#clip0_250_941)">
<path d="M200.497 18.1396V18.1616V18.2278V18.2718C200.482 19.7118 200.188 21.0637 199.615 22.3273C199.057 23.5763 198.3 24.6784 197.345 25.6335C196.405 26.5739 195.295 27.3159 194.017 27.8596C192.753 28.4033 191.409 28.6751 189.983 28.6751C188.529 28.6751 187.162 28.4033 185.884 27.8596C184.605 27.3012 183.489 26.5445 182.534 25.5894C181.593 24.6343 180.851 23.5175 180.307 22.2392C179.764 20.9608 179.492 19.6016 179.492 18.1616C179.492 16.7069 179.764 15.3404 180.307 14.062C180.851 12.7837 181.593 11.6743 182.534 10.7339C183.489 9.77877 184.605 9.02939 185.884 8.48571C187.162 7.92735 188.529 7.64816 189.983 7.64816C191.262 7.64816 192.467 7.86857 193.598 8.30939C194.729 8.73551 195.758 9.32326 196.684 10.0727V1.98367C196.684 1.42531 196.86 0.955101 197.213 0.573062C197.565 0.191021 198.021 0 198.579 0C199.108 0 199.556 0.191021 199.924 0.573062C200.306 0.955101 200.497 1.42531 200.497 1.98367V18.1396ZM196.684 18.1616C196.684 17.2359 196.507 16.369 196.155 15.5608C195.802 14.738 195.325 14.0253 194.722 13.4229C194.12 12.8057 193.407 12.3282 192.584 11.9902C191.776 11.6375 190.909 11.4612 189.983 11.4612C189.043 11.4612 188.161 11.6375 187.338 11.9902C186.53 12.3282 185.825 12.8057 185.223 13.4229C184.62 14.0253 184.143 14.738 183.79 15.5608C183.452 16.369 183.283 17.2359 183.283 18.1616C183.283 19.0727 183.452 19.9396 183.79 20.7624C184.143 21.5706 184.62 22.2833 185.223 22.9004C185.825 23.5029 186.53 23.9878 187.338 24.3551C188.161 24.7078 189.043 24.8841 189.983 24.8841C190.909 24.8841 191.776 24.7078 192.584 24.3551C193.407 23.9878 194.12 23.5029 194.722 22.9004C195.325 22.2833 195.802 21.5706 196.155 20.7624C196.507 19.9396 196.684 19.0727 196.684 18.1616Z" fill="#020617"/>
<path d="M176.376 17.8971V26.5592C176.376 27.1029 176.2 27.551 175.847 27.9037C175.495 28.2563 175.054 28.4327 174.525 28.4327C173.996 28.4327 173.541 28.2563 173.158 27.9037C172.776 27.551 172.585 27.1029 172.585 26.5592V17.8531V17.831C172.585 16.9494 172.438 16.1265 172.145 15.3624C171.851 14.5837 171.439 13.9078 170.91 13.3347C170.396 12.7616 169.772 12.3061 169.037 11.9682C168.317 11.6302 167.523 11.4612 166.656 11.4612C165.775 11.4612 164.967 11.6229 164.232 11.9461C163.497 12.2694 162.858 12.7176 162.314 13.2906C161.771 13.849 161.345 14.5176 161.036 15.2963C160.742 16.0604 160.595 16.8833 160.595 17.7649V26.5592C160.595 27.1029 160.419 27.551 160.066 27.9037C159.714 28.2563 159.273 28.4327 158.744 28.4327C158.479 28.4327 158.23 28.3886 157.994 28.3004C157.759 28.1976 157.554 28.0653 157.377 27.9037C157.201 27.742 157.061 27.5437 156.958 27.3086C156.856 27.0735 156.804 26.8237 156.804 26.5592V17.831V17.7649V17.7429C156.804 16.3469 157.054 15.0392 157.554 13.8196C158.053 12.5853 158.744 11.5127 159.625 10.6016C160.507 9.69061 161.55 8.97061 162.755 8.44163C163.96 7.91265 165.261 7.64816 166.656 7.64816C168.052 7.64816 169.345 7.91265 170.536 8.44163C171.726 8.97061 172.754 9.69061 173.621 10.6016C174.488 11.5127 175.164 12.5853 175.649 13.8196C176.134 15.0392 176.376 16.3469 176.376 17.7429V17.7869V17.8531V17.8971Z" fill="#020617"/>
<path d="M131.492 18.1616C131.492 16.7069 131.764 15.3404 132.307 14.062C132.866 12.7837 133.622 11.6743 134.577 10.7339C135.533 9.77877 136.649 9.02939 137.928 8.48571C139.206 7.92735 140.565 7.64816 142.005 7.64816C143.445 7.64816 144.797 7.92 146.061 8.46367C147.324 9.00735 148.426 9.74939 149.367 10.6898C150.322 11.6302 151.079 12.7322 151.637 13.9959C152.195 15.2596 152.482 16.6114 152.497 18.0514V18.1616V26.449C152.497 26.9926 152.306 27.4555 151.924 27.8375C151.556 28.2196 151.093 28.4106 150.535 28.4106C149.991 28.4106 149.543 28.2196 149.19 27.8375C148.853 27.4555 148.684 26.9926 148.684 26.449L148.661 25.9861C147.75 26.7943 146.729 27.4482 145.598 27.9478C144.481 28.4327 143.284 28.6751 142.005 28.6751C140.565 28.6751 139.206 28.4033 137.928 27.8596C136.649 27.3012 135.533 26.5445 134.577 25.5894C133.622 24.6343 132.866 23.5249 132.307 22.2612C131.764 20.9829 131.492 19.6163 131.492 18.1616ZM135.283 18.1616C135.283 19.0727 135.459 19.9396 135.812 20.7624C136.164 21.5706 136.642 22.2833 137.244 22.9004C137.847 23.5029 138.559 23.9878 139.382 24.3551C140.205 24.7078 141.079 24.8841 142.005 24.8841C142.946 24.8841 143.82 24.7078 144.628 24.3551C145.436 23.9878 146.141 23.5029 146.744 22.9004C147.346 22.2833 147.817 21.5706 148.155 20.7624C148.507 19.9396 148.684 19.0727 148.684 18.1616C148.684 17.2359 148.507 16.369 148.155 15.5608C147.817 14.738 147.346 14.0253 146.744 13.4229C146.141 12.8204 145.436 12.3429 144.628 11.9902C143.82 11.6375 142.946 11.4612 142.005 11.4612C141.079 11.4612 140.205 11.6375 139.382 11.9902C138.574 12.3429 137.861 12.8204 137.244 13.4229C136.642 14.0253 136.164 14.738 135.812 15.5608C135.459 16.369 135.283 17.2359 135.283 18.1616Z" fill="#020617"/>
<path d="M128.545 11.7257H128.523C127.553 11.7257 126.635 11.9167 125.768 12.2988C124.901 12.6661 124.144 13.1731 123.498 13.8196C122.851 14.4661 122.337 15.2302 121.955 16.1118C121.573 16.9788 121.382 17.9118 121.382 18.911V26.5151C121.382 27.0588 121.206 27.5143 120.853 27.8816C120.5 28.2343 120.067 28.4106 119.552 28.4106C119.009 28.4106 118.546 28.2343 118.164 27.8816C117.782 27.5143 117.591 27.0588 117.591 26.5151V18.911C117.591 17.3976 117.877 15.9796 118.45 14.6571C119.023 13.32 119.802 12.1518 120.787 11.1527C121.786 10.1535 122.947 9.36735 124.269 8.79429C125.606 8.20654 127.024 7.91266 128.523 7.91266H128.545H128.633C129.265 7.91266 129.75 8.09633 130.088 8.46368C130.441 8.81633 130.617 9.2645 130.617 9.80817C130.617 10.3518 130.426 10.8074 130.044 11.1747C129.662 11.542 129.192 11.7257 128.633 11.7257H128.545Z" fill="#020617"/>
<path d="M96.888 18.5804C96.888 19.462 97.0496 20.2849 97.3729 21.049C97.7109 21.8131 98.1664 22.4816 98.7394 23.0547C99.3125 23.6131 99.9811 24.0539 100.745 24.3771C101.509 24.7004 102.332 24.862 103.214 24.862C104.081 24.862 104.889 24.7004 105.638 24.3771C106.402 24.0539 107.064 23.6057 107.622 23.0327C108.195 22.4596 108.643 21.791 108.966 21.0269C109.304 20.2482 109.481 19.418 109.495 18.5363V18.4482V18.4041V9.83021C109.495 9.56572 109.547 9.31592 109.65 9.08082C109.753 8.84572 109.892 8.64735 110.068 8.48572C110.245 8.30939 110.45 8.1698 110.686 8.06694C110.921 7.96409 111.17 7.91266 111.435 7.91266C111.979 7.91266 112.427 8.10368 112.779 8.48572C113.132 8.85307 113.308 9.30123 113.308 9.83021V18.382V18.4482V18.5363C113.308 19.7706 113.095 20.9461 112.669 22.0629C112.258 23.1796 111.685 24.1788 110.95 25.0604C110.215 25.942 109.341 26.6841 108.327 27.2865C107.328 27.8743 106.241 28.2784 105.065 28.4988V33.9429C105.065 34.2074 105.014 34.4571 104.911 34.6922C104.808 34.9274 104.668 35.1331 104.492 35.3094C104.33 35.4857 104.132 35.6253 103.897 35.7282C103.677 35.831 103.434 35.8825 103.17 35.8825C102.626 35.8825 102.17 35.6914 101.803 35.3094C101.436 34.942 101.252 34.4865 101.252 33.9429V28.4767C100.077 28.2563 98.9892 27.8449 97.9901 27.2425C97.0056 26.64 96.146 25.898 95.4113 25.0163C94.6766 24.1347 94.1035 23.1429 93.6921 22.0408C93.2807 20.9388 93.075 19.7706 93.075 18.5363V9.83021C93.075 9.30123 93.2586 8.85307 93.626 8.48572C93.9933 8.10368 94.4415 7.91266 94.9705 7.91266C95.235 7.91266 95.4774 7.96409 95.6978 8.06694C95.9329 8.1698 96.1386 8.30939 96.3149 8.48572C96.4913 8.64735 96.6309 8.84572 96.7337 9.08082C96.8366 9.31592 96.888 9.56572 96.888 9.83021V18.5804Z" fill="#020617"/>
<path d="M88.9021 17.8971V26.5592C88.9021 27.1029 88.7258 27.551 88.3731 27.9037C88.0204 28.2563 87.5796 28.4327 87.0507 28.4327C86.5217 28.4327 86.0662 28.2563 85.6841 27.9037C85.3021 27.551 85.1111 27.1029 85.1111 26.5592V17.8531V17.831C85.1111 16.9494 84.9641 16.1265 84.6702 15.3624C84.3764 14.5837 83.9649 13.9078 83.436 13.3347C82.9217 12.7616 82.2972 12.3061 81.5625 11.9682C80.8425 11.6302 80.049 11.4612 79.1821 11.4612C78.3004 11.4612 77.4923 11.6229 76.7576 11.9461C76.0229 12.2694 75.3837 12.7176 74.84 13.2906C74.2964 13.849 73.8702 14.5176 73.5617 15.2963C73.2678 16.0604 73.1209 16.8833 73.1209 17.7649V26.5592C73.1209 27.1029 72.9445 27.551 72.5919 27.9037C72.2392 28.2563 71.7984 28.4327 71.2694 28.4327C71.0049 28.4327 70.7551 28.3886 70.52 28.3004C70.2849 28.1976 70.0792 28.0653 69.9029 27.9037C69.7266 27.742 69.587 27.5437 69.4841 27.3086C69.3813 27.0735 69.3298 26.8237 69.3298 26.5592V17.831V17.7649V17.7429C69.3298 16.3469 69.5796 15.0392 70.0792 13.8196C70.5788 12.5853 71.2694 11.5127 72.1511 10.6016C73.0327 9.69061 74.076 8.97061 75.2809 8.44163C76.4858 7.91265 77.7862 7.64816 79.1821 7.64816C80.578 7.64816 81.8711 7.91265 83.0613 8.44163C84.2515 8.97061 85.28 9.69061 86.147 10.6016C87.0139 11.5127 87.6898 12.5853 88.1747 13.8196C88.6596 15.0392 88.9021 16.3469 88.9021 17.7429V17.7869V17.8531V17.8971Z" fill="#020617"/>
<path d="M44.0168 18.1616C44.0168 16.7069 44.2887 15.3404 44.8324 14.062C45.3907 12.7837 46.1475 11.6743 47.1026 10.7339C48.0577 9.77877 49.1744 9.02939 50.4528 8.48571C51.7311 7.92735 53.0903 7.64816 54.5303 7.64816C55.9703 7.64816 57.3222 7.92 58.5858 8.46367C59.8495 9.00735 60.9515 9.74939 61.892 10.6898C62.8471 11.6302 63.6038 12.7322 64.1622 13.9959C64.7205 15.2596 65.0071 16.6114 65.0217 18.0514V18.1616V26.449C65.0217 26.9926 64.8307 27.4555 64.4487 27.8375C64.0813 28.2196 63.6185 28.4106 63.0601 28.4106C62.5164 28.4106 62.0683 28.2196 61.7156 27.8375C61.3777 27.4555 61.2087 26.9926 61.2087 26.449L61.1866 25.9861C60.2756 26.7943 59.2544 27.4482 58.123 27.9478C57.0062 28.4327 55.8087 28.6751 54.5303 28.6751C53.0903 28.6751 51.7311 28.4033 50.4528 27.8596C49.1744 27.3012 48.0577 26.5445 47.1026 25.5894C46.1475 24.6343 45.3907 23.5249 44.8324 22.2612C44.2887 20.9829 44.0168 19.6163 44.0168 18.1616ZM47.8079 18.1616C47.8079 19.0727 47.9842 19.9396 48.3368 20.7624C48.6895 21.5706 49.1671 22.2833 49.7695 22.9004C50.3719 23.5029 51.0846 23.9878 51.9075 24.3551C52.7303 24.7078 53.6046 24.8841 54.5303 24.8841C55.4707 24.8841 56.345 24.7078 57.1532 24.3551C57.9613 23.9878 58.6666 23.5029 59.2691 22.9004C59.8715 22.2833 60.3417 21.5706 60.6797 20.7624C61.0324 19.9396 61.2087 19.0727 61.2087 18.1616C61.2087 17.2359 61.0324 16.369 60.6797 15.5608C60.3417 14.738 59.8715 14.0253 59.2691 13.4229C58.6666 12.8204 57.9613 12.3429 57.1532 11.9902C56.345 11.6375 55.4707 11.4612 54.5303 11.4612C53.6046 11.4612 52.7303 11.6375 51.9075 11.9902C51.0993 12.3429 50.3866 12.8204 49.7695 13.4229C49.1671 14.0253 48.6895 14.738 48.3368 15.5608C47.9842 16.369 47.8079 17.2359 47.8079 18.1616Z" fill="#020617"/>
<path d="M44.0168 34.2588C44.0168 33.3661 44.7405 32.6424 45.6332 32.6424H103.233V35.8751H45.6332C44.7405 35.8751 44.0168 35.1514 44.0168 34.2588V34.2588Z" fill="#020617"/>
<path d="M10.0277 2.38241L3.08212 7.83704C2.77162 8.08089 2.94405 8.57966 3.33887 8.57966H26.3122C26.5417 8.57966 26.7279 8.76576 26.7279 8.99535V33.3883C26.7279 33.7545 27.1669 33.9418 27.4313 33.6884L34.544 26.8702C34.9531 26.4782 35.1842 25.9364 35.1842 25.3698V4.01704C35.1842 2.86915 34.2536 1.93858 33.1057 1.93858H11.3114C10.8459 1.93858 10.3938 2.09487 10.0277 2.38241Z" fill="#020617" stroke="#020617" stroke-width="2.49416"/>
<path d="M25.4142 8.27792H3.79811C2.59281 8.27792 1.61572 9.25501 1.61572 10.4603V32.0764C1.61572 33.2817 2.59281 34.2588 3.79811 34.2588H25.4142C26.6195 34.2588 27.5966 33.2817 27.5966 32.0764V10.4603C27.5966 9.25501 26.6195 8.27792 25.4142 8.27792Z" fill="#F1F5F9" stroke="#020617" stroke-width="3.1177"/>
<path d="M20.5302 17.7349C21.9651 17.7349 23.1283 16.5717 23.1283 15.1369C23.1283 13.702 21.9651 12.5388 20.5302 12.5388C19.0953 12.5388 17.9321 13.702 17.9321 15.1369C17.9321 16.5717 19.0953 17.7349 20.5302 17.7349Z" fill="#020617"/>
<path d="M8.47553 17.7349C9.91041 17.7349 11.0736 16.5717 11.0736 15.1369C11.0736 13.702 9.91041 12.5388 8.47553 12.5388C7.04064 12.5388 5.87744 13.702 5.87744 15.1369C5.87744 16.5717 7.04064 17.7349 8.47553 17.7349Z" fill="#020617"/>
<path d="M20.5302 29.7901C21.9651 29.7901 23.1283 28.6269 23.1283 27.192C23.1283 25.7571 21.9651 24.5939 20.5302 24.5939C19.0953 24.5939 17.9321 25.7571 17.9321 27.192C17.9321 28.6269 19.0953 29.7901 20.5302 29.7901Z" fill="#020617"/>
<path d="M8.47553 29.7901C9.91041 29.7901 11.0736 28.6269 11.0736 27.192C11.0736 25.7571 9.91041 24.5939 8.47553 24.5939C7.04064 24.5939 5.87744 25.7571 5.87744 27.192C5.87744 28.6269 7.04064 29.7901 8.47553 29.7901Z" fill="#020617"/>
<path d="M14.5034 23.7625C15.9382 23.7625 17.1014 22.5993 17.1014 21.1644C17.1014 19.7295 15.9382 18.5663 14.5034 18.5663C13.0685 18.5663 11.9053 19.7295 11.9053 21.1644C11.9053 22.5993 13.0685 23.7625 14.5034 23.7625Z" fill="#020617"/>
<path d="M31.5285 6.84686C31.5058 6.75801 31.3795 6.75801 31.3568 6.84686L31.3288 6.95558C31.3207 6.98692 31.2963 7.01138 31.2649 7.01943L31.1562 7.04735C31.0674 7.07018 31.0674 7.19635 31.1562 7.21918L31.2649 7.2471C31.2963 7.25515 31.3207 7.27962 31.3288 7.31095L31.3568 7.41967C31.3795 7.50853 31.5058 7.50853 31.5285 7.41967L31.5565 7.31095C31.5645 7.27962 31.589 7.25515 31.6204 7.2471L31.7291 7.21918C31.8179 7.19635 31.8179 7.07018 31.7291 7.04735L31.6204 7.01943C31.589 7.01138 31.5645 6.98692 31.5565 6.95558L31.5285 6.84686Z" fill="white" fill-opacity="0.88"/>
<path d="M25.5007 2.89776C25.4779 2.80891 25.3517 2.80891 25.3289 2.89776L25.301 3.00649C25.2929 3.03782 25.2685 3.06228 25.237 3.07034L25.1284 3.09826C25.0396 3.12109 25.0396 3.24726 25.1284 3.27008L25.237 3.298C25.2685 3.30606 25.2929 3.33052 25.301 3.36186L25.3289 3.47058C25.3517 3.55943 25.4779 3.55943 25.5007 3.47058L25.5286 3.36186C25.5367 3.33052 25.5611 3.30606 25.5926 3.298L25.7013 3.27008C25.7901 3.24726 25.7901 3.12109 25.7013 3.09826L25.5926 3.07034C25.5611 3.06228 25.5367 3.03782 25.5286 3.00649L25.5007 2.89776Z" fill="white" fill-opacity="0.88"/>
<path d="M28.2024 18.902C28.1796 18.8131 28.0533 18.8131 28.0306 18.902L28.0026 19.0107C27.9946 19.042 27.9701 19.0665 27.9387 19.0746L27.83 19.1025C27.7412 19.1253 27.7412 19.2515 27.83 19.2743L27.9387 19.3022C27.9701 19.3103 27.9946 19.3347 28.0026 19.3661L28.0306 19.4748C28.0533 19.5637 28.1796 19.5637 28.2024 19.4748L28.2303 19.3661C28.2384 19.3347 28.2628 19.3103 28.2943 19.3022L28.4029 19.2743C28.4917 19.2515 28.4917 19.1253 28.4029 19.1025L28.2943 19.0746C28.2628 19.0665 28.2384 19.042 28.2303 19.0107L28.2024 18.902Z" fill="white" fill-opacity="0.88"/>
<path d="M29.2431 11.2116C29.2204 11.1228 29.0941 11.1228 29.0713 11.2116L29.0434 11.3204C29.0353 11.3517 29.0109 11.3762 28.9795 11.3842L28.8708 11.4121C28.782 11.435 28.782 11.5611 28.8708 11.584L28.9795 11.6119C29.0109 11.6199 29.0353 11.6444 29.0434 11.6757L29.0713 11.7845C29.0941 11.8733 29.2204 11.8733 29.2431 11.7845L29.2711 11.6757C29.2791 11.6444 29.3036 11.6199 29.335 11.6119L29.4437 11.584C29.5325 11.5611 29.5325 11.435 29.4437 11.4121L29.335 11.3842C29.3036 11.3762 29.2791 11.3517 29.2711 11.3204L29.2431 11.2116Z" fill="white" fill-opacity="0.88"/>
<path d="M29.8645 26.1766C29.8417 26.0878 29.7155 26.0878 29.6927 26.1766L29.6647 26.2852C29.6567 26.3167 29.6323 26.3411 29.6008 26.3492L29.4921 26.3771C29.4033 26.3999 29.4033 26.5262 29.4921 26.5489L29.6008 26.5769C29.6323 26.5849 29.6567 26.6094 29.6647 26.6408L29.6927 26.7495C29.7155 26.8383 29.8417 26.8383 29.8645 26.7495L29.8924 26.6408C29.9005 26.6094 29.9249 26.5849 29.9564 26.5769L30.065 26.5489C30.1538 26.5262 30.1538 26.3999 30.065 26.3771L29.9564 26.3492C29.9249 26.3411 29.9005 26.3167 29.8924 26.2852L29.8645 26.1766Z" fill="white" fill-opacity="0.88"/>
<path d="M34.6465 8.92532C34.6237 8.83647 34.4974 8.83647 34.4747 8.92532L34.4467 9.03405C34.4387 9.06538 34.4142 9.08985 34.3828 9.0979L34.2741 9.12582C34.1853 9.14865 34.1853 9.27482 34.2741 9.29765L34.3828 9.32557C34.4142 9.33362 34.4387 9.35808 34.4467 9.38942L34.4747 9.49814C34.4974 9.58699 34.6237 9.58699 34.6465 9.49814L34.6744 9.38942C34.6825 9.35808 34.7069 9.33362 34.7383 9.32557L34.847 9.29765C34.9358 9.27482 34.9358 9.14865 34.847 9.12582L34.7383 9.0979C34.7069 9.08985 34.6825 9.06538 34.6744 9.03405L34.6465 8.92532Z" fill="white" fill-opacity="0.88"/>
<path d="M33.6062 14.9529C33.5834 14.864 33.4572 14.864 33.4344 14.9529L33.4064 15.0616C33.3984 15.093 33.374 15.1174 33.3425 15.1255L33.2338 15.1534C33.145 15.1762 33.145 15.3024 33.2338 15.3252L33.3425 15.3531C33.374 15.3612 33.3984 15.3856 33.4064 15.417L33.4344 15.5257C33.4572 15.6146 33.5834 15.6146 33.6062 15.5257L33.6341 15.417C33.6422 15.3856 33.6666 15.3612 33.6981 15.3531L33.8067 15.3252C33.8955 15.3024 33.8955 15.1762 33.8067 15.1534L33.6981 15.1255C33.6666 15.1174 33.6422 15.093 33.6341 15.0616L33.6062 14.9529Z" fill="white" fill-opacity="0.52"/>
<path d="M15.1074 4.76839C15.0846 4.67953 14.9584 4.67953 14.9356 4.76839L14.9077 4.87711C14.8996 4.90845 14.8752 4.93291 14.8438 4.94096L14.7351 4.96888C14.6462 4.99171 14.6462 5.11788 14.7351 5.14071L14.8438 5.16863C14.8752 5.17668 14.8996 5.20114 14.9077 5.23248L14.9356 5.3412C14.9584 5.43006 15.0846 5.43006 15.1074 5.3412L15.1353 5.23248C15.1434 5.20114 15.1679 5.17668 15.1992 5.16863L15.3079 5.14071C15.3968 5.11788 15.3968 4.99171 15.3079 4.96888L15.1992 4.94096C15.1679 4.93291 15.1434 4.90845 15.1353 4.87711L15.1074 4.76839Z" fill="white" fill-opacity="0.52"/>
<path d="M26.7483 7.47041C26.7255 7.38155 26.5992 7.38155 26.5765 7.47041L26.5485 7.57913C26.5405 7.61046 26.516 7.63493 26.4846 7.64298L26.3759 7.6709C26.2871 7.69373 26.2871 7.8199 26.3759 7.84273L26.4846 7.87065C26.516 7.8787 26.5405 7.90316 26.5485 7.9345L26.5765 8.04322C26.5992 8.13207 26.7255 8.13207 26.7483 8.04322L26.7762 7.9345C26.7843 7.90316 26.8087 7.8787 26.8402 7.87065L26.9488 7.84273C27.0376 7.8199 27.0376 7.69373 26.9488 7.6709L26.8402 7.64298C26.8087 7.63493 26.7843 7.61046 26.7762 7.57913L26.7483 7.47041Z" fill="white" fill-opacity="0.52"/>
<path d="M11.158 1.85853C11.1351 1.76968 11.009 1.76968 10.9861 1.85853L10.9582 1.96725C10.9502 1.99858 10.9257 2.02305 10.8944 2.0311L10.7856 2.05902C10.6968 2.08184 10.6968 2.20803 10.7856 2.23085L10.8944 2.25878C10.9257 2.26682 10.9502 2.29129 10.9582 2.32262L10.9861 2.43135C11.009 2.5202 11.1351 2.5202 11.158 2.43135L11.1859 2.32262C11.1939 2.29129 11.2184 2.26682 11.2497 2.25878L11.3584 2.23085C11.4473 2.20803 11.4473 2.08184 11.3584 2.05902L11.2497 2.0311C11.2184 2.02305 11.1939 1.99858 11.1859 1.96725L11.158 1.85853Z" fill="white" fill-opacity="0.92"/>
<path d="M9.84597 5.95182C9.78495 5.71423 9.44751 5.71423 9.38649 5.95182L9.31181 6.24258C9.29028 6.32637 9.22486 6.39179 9.14107 6.41331L8.85031 6.48799C8.61272 6.54901 8.61272 6.88646 8.85031 6.94748L9.14107 7.02215C9.22486 7.04368 9.29028 7.1091 9.31181 7.19289L9.38649 7.48365C9.44751 7.72124 9.78495 7.72124 9.84597 7.48365L9.92065 7.19289C9.94217 7.1091 10.0076 7.04368 10.0914 7.02215L10.3821 6.94748C10.6197 6.88646 10.6197 6.54901 10.3821 6.48799L10.0914 6.41331C10.0076 6.39179 9.94217 6.32635 9.92065 6.24258L9.84597 5.95182Z" fill="white"/>
<path d="M20.2395 2.41842C20.1785 2.18082 19.8411 2.18082 19.78 2.41842L19.7054 2.70917C19.6838 2.79297 19.6184 2.85839 19.5346 2.87992L19.2439 2.9546C19.0063 3.01562 19.0063 3.35306 19.2439 3.41408L19.5346 3.48876C19.6184 3.51028 19.6838 3.5757 19.7054 3.65949L19.78 3.95026C19.8411 4.18784 20.1785 4.18784 20.2395 3.95026L20.3142 3.65949C20.3357 3.5757 20.4012 3.51028 20.485 3.48876L20.7757 3.41408C21.0133 3.35306 21.0133 3.01562 20.7757 2.9546L20.4849 2.87992C20.4011 2.85839 20.3357 2.79295 20.3142 2.70917L20.2395 2.41842Z" fill="white"/>
<path d="M31.8802 16.7599C31.8192 16.5223 31.4817 16.5223 31.4207 16.7599L31.3459 17.0506C31.3246 17.1344 31.259 17.1998 31.1753 17.2214L30.8845 17.296C30.6469 17.357 30.6469 17.6945 30.8845 17.7555L31.1753 17.8302C31.259 17.8517 31.3246 17.9171 31.3459 18.0009L31.4207 18.2917C31.4817 18.5293 31.8192 18.5293 31.8802 18.2917L31.9549 18.0009C31.9763 17.9171 32.0419 17.8517 32.1255 17.8302L32.4163 17.7555C32.6539 17.6945 32.6539 17.357 32.4163 17.296L32.1255 17.2214C32.0419 17.1998 31.9763 17.1344 31.9549 17.0506L31.8802 16.7599Z" fill="white"/>
<path d="M25.0198 6.36751C24.9588 6.12992 24.6213 6.12992 24.5603 6.36751L24.4856 6.65827C24.4642 6.74206 24.3986 6.80748 24.315 6.829L24.0242 6.90368C23.7865 6.9647 23.7865 7.30215 24.0242 7.36317L24.315 7.43785C24.3986 7.45937 24.4642 7.52479 24.4856 7.60858L24.5603 7.89934C24.6213 8.13693 24.9588 8.13693 25.0198 7.89934L25.0945 7.60858C25.1159 7.52479 25.1815 7.45937 25.2652 7.43785L25.5559 7.36317C25.7936 7.30215 25.7936 6.9647 25.5559 6.90368L25.2652 6.829C25.1815 6.80748 25.1159 6.74204 25.0945 6.65827L25.0198 6.36751Z" fill="white"/>
<path d="M32.5954 20.8845C32.5649 20.766 32.3969 20.766 32.3665 20.8845L32.3292 21.0294C32.3184 21.0712 32.2857 21.1038 32.2439 21.1146L32.099 21.1518C31.9807 21.1822 31.9807 21.3505 32.099 21.3809L32.2439 21.4181C32.2857 21.4289 32.3184 21.4615 32.3292 21.5033L32.3665 21.6482C32.3969 21.7666 32.5649 21.7666 32.5954 21.6482L32.6326 21.5033C32.6434 21.4615 32.6761 21.4289 32.7179 21.4181L32.8628 21.3809C32.9812 21.3505 32.9812 21.1822 32.8628 21.1518L32.7179 21.1146C32.6761 21.1038 32.6434 21.0712 32.6326 21.0294L32.5954 20.8845Z" fill="white" fill-opacity="0.57"/>
<path d="M21.9938 5.29596C21.9634 5.17749 21.7953 5.17749 21.7649 5.29596L21.7276 5.44092C21.7169 5.48271 21.6842 5.51533 21.6424 5.52605L21.4975 5.56328C21.3791 5.59371 21.3791 5.76197 21.4975 5.7924L21.6424 5.82963C21.6842 5.84035 21.7169 5.87297 21.7276 5.91476L21.7649 6.05972C21.7953 6.17819 21.9634 6.17819 21.9938 6.05972L22.0311 5.91476C22.0418 5.87297 22.0745 5.84035 22.1163 5.82963L22.2612 5.7924C22.3796 5.76197 22.3796 5.59371 22.2612 5.56328L22.1163 5.52605C22.0745 5.51533 22.0418 5.48271 22.0311 5.44092L21.9938 5.29596Z" fill="white" fill-opacity="0.57"/>
<path d="M31.9721 2.80181C31.9416 2.68334 31.7736 2.68334 31.7432 2.80181L31.7059 2.94677C31.6951 2.98856 31.6624 3.02118 31.6206 3.0319L31.4758 3.06913C31.3574 3.09956 31.3574 3.26782 31.4758 3.29825L31.6206 3.33548C31.6624 3.34621 31.6951 3.37882 31.7059 3.42061L31.7432 3.56557C31.7736 3.68404 31.9416 3.68404 31.9721 3.56557L32.0093 3.42061C32.0201 3.37882 32.0528 3.34621 32.0946 3.33548L32.2395 3.29825C32.3579 3.26782 32.3579 3.09956 32.2395 3.06913L32.0946 3.0319C32.0528 3.02118 32.0201 2.98856 32.0093 2.94677L31.9721 2.80181Z" fill="white" fill-opacity="0.57"/>
</g>
<defs>
<clipPath id="clip0_250_941">
<rect width="200.571" height="36" fill="white"/>
</clipPath>
</defs>
</svg>
