<svg width="400" height="400" viewBox="0 0 400 400" fill="none" xmlns="http://www.w3.org/2000/svg">
<g clip-path="url(#clip0_246_842)">
<circle cx="200" cy="200" r="200" fill="#FCEEDC"/>
<path d="M312.4 246V94.6C312.2 81.9 302.1 71.7 289.4 71.7H131.4C97.3 72.2 69.9 100.1 69.9 134.3C69.9 145.8 73 155.7 77.7 164.4C81.7 171.6 88 178.4 94.2 183.5C96 184.9 95.1 184.3 100.5 187.6C107.9 192.1 116.4 194.4 116.4 194.4L116.3 285C116.5 289.3 116.9 293.4 118.1 297.3C121.6 310.1 130.5 319.9 142.5 324.6C147.5 326.6 153.2 327.9 159.3 328L285.5 328.4C310.6 328.4 331 308 331 282.8C331.1 267.8 323.6 254.4 312.4 246Z" fill="#FFEEDA"/>
<path d="M315.5 283.9C315 300 301.7 313 285.4 313L198.6 312.7C205.5 304.7 209.7 294.3 209.7 282.9C209.7 265.1 199.1 252.8 199.1 252.8H285.5C302.1 252.8 315.6 266.3 315.6 282.9L315.5 283.9Z" fill="#EBC28E"/>
<path d="M102.5 170.7C92.5 161.2 85.5 149 85.5 134.4V132.9C86.3 108.1 106.7 88.0999 131.5 87.3999H289.5C293.6 87.5999 296.9 90.4999 296.9 94.6999V228.4C300.5 229 302.3 229.5 305.8 230.8C308.6 231.8 312.4 234 312.4 234V94.6999C312.2 81.9999 302.1 71.7999 289.4 71.7999H131.4C97.3 72.2999 69.9 100.2 69.9 134.4C69.9 154.3 79 171.3 93.8 183.2C94.8 184 95.8 185.1 98.4 185.1C103 185.1 106.3 181.4 106.1 177.4C106.1 174 104.6 172.8 102.5 170.7Z" fill="#101010"/>
<path d="M285.4 237.2H161.5C153.2 237.3 146.5 244 146.5 252.3V270.1C146.7 278.3 153.7 285.3 162.1 285.3H171.3V270.1H162V252.7C162 252.7 164.3 252.7 167 252.7C182.7 252.7 194.2 267.2 194.2 282.8C194.2 296.6 181.6 314.2 160.6 312.8C142 311.6 131.9 295 131.9 282.8V131.8C131.9 125 126.3 119.4 119.5 119.4H107.1V134.9H116.3V282.9C115.8 313 137.7 328.1 160.6 328.1L285.5 328.5C310.6 328.5 331 308.1 331 282.9C331.1 257.7 310.6 237.2 285.4 237.2ZM315.5 283.9C315 300 301.7 313 285.4 313L198.6 312.7C205.5 304.7 209.7 294.3 209.7 282.9C209.7 265.1 199.1 252.8 199.1 252.8H285.5C302.1 252.8 315.6 266.3 315.6 282.9L315.5 283.9Z" fill="#101010"/>
<path d="M252 137.7H158.6V122.2H252C256.2 122.2 259.7 125.6 259.7 129.9C259.8 134.2 256.4 137.7 252 137.7Z" fill="#101010"/>
<path d="M252 210.4H158.6V195H252C256.2 195 259.7 198.4 259.7 202.7C259.8 206.9 256.4 210.4 252 210.4Z" fill="#101010"/>
<path d="M268.5 174H158.6V158.5H268.4C272.6 158.5 276.1 161.9 276.1 166.2C276.3 170.5 272.8 174 268.5 174Z" fill="#101010"/>
</g>
<defs>
<clipPath id="clip0_246_842">
<rect width="400" height="400" fill="white"/>
</clipPath>
</defs>
</svg>
