<svg width="300" height="137" viewBox="0 0 300 137" fill="none" xmlns="http://www.w3.org/2000/svg">
<path d="M114.912 94.8828V42.3486C116.434 41.6773 117.5 40.1565 117.5 38.3891C117.5 36.0025 115.559 34.0613 113.172 34.0613C112.54 34.0613 111.941 34.2002 111.4 34.4448L63.1872 6.61948C63.283 6.26247 63.3388 5.88876 63.3388 5.50184C63.3388 3.11533 61.397 1.17419 59.0096 1.17419C56.6222 1.17419 54.6804 3.11533 54.6804 5.50184C54.6804 5.90414 54.7399 6.29193 54.8432 6.66169L6.47733 34.5753C5.8686 34.2482 5.17368 34.0618 4.43521 34.0618C2.04827 34.0618 0.106445 36.0029 0.106445 38.3894C0.106445 40.3434 1.40876 41.9969 3.19094 42.5328V94.9277C1.56975 95.5538 0.415202 97.1239 0.415202 98.9625C0.415202 101.349 2.35703 103.29 4.74441 103.29C5.38963 103.29 5.99967 103.145 6.55033 102.89L54.6949 130.677C54.6884 130.772 54.6804 130.868 54.6804 130.964C54.6804 133.351 56.6222 135.291 59.0096 135.291C61.397 135.291 63.3388 133.351 63.3388 130.964C63.3388 130.883 63.331 130.803 63.3265 130.724L111.608 102.858C112.176 103.132 112.809 103.29 113.481 103.29C115.869 103.29 117.81 101.349 117.81 98.9625C117.809 97.0777 116.597 95.4755 114.912 94.8828Z" fill="#FFDE52"/>
<path d="M120.359 94.8827V42.3485C121.881 41.6771 122.947 40.1562 122.947 38.3888C122.947 36.0023 121.005 34.0612 118.617 34.0612C117.985 34.0612 117.388 34.2001 116.846 34.4445L68.633 6.6193C68.7289 6.26229 68.7847 5.88857 68.7847 5.50166C68.7847 3.11514 66.8428 1.17401 64.4555 1.17401C62.0681 1.17401 60.1263 3.11514 60.1263 5.50166C60.1263 5.90396 60.1856 6.29175 60.289 6.6615L11.9236 34.5751C11.3148 34.248 8.83265 36.2914 8.09419 36.2914C5.70682 36.2914 5.55225 36.0027 5.55225 38.3892C5.55225 40.3431 6.69109 40.7691 8.47326 41.3051L8.63674 94.9275C7.01555 95.5535 5.861 97.1236 5.861 98.9623C5.861 98.9623 5.87801 100.575 8.26539 100.575C9.17027 101.162 10.8578 102.189 11.9961 102.89L60.1408 130.676C60.1341 130.772 60.1263 130.866 60.1263 130.964C60.1263 133.351 62.0681 135.291 64.4555 135.291C66.8428 135.291 68.7847 133.351 68.7847 130.964C68.7847 130.883 68.7768 130.803 68.7724 130.724L117.054 102.858C117.621 103.132 118.255 103.29 118.926 103.29C121.314 103.29 123.256 101.349 123.256 98.9623C123.256 97.0774 122.044 95.4753 120.359 94.8827Z" fill="#FF3956"/>
<path d="M116.473 96.066V40.6717C117.632 40.4242 118.502 39.3971 118.502 38.1663C118.502 36.7508 117.352 35.6033 115.934 35.6033C115.507 35.6033 115.104 35.7091 114.749 35.8934L63.8791 6.58589C64.0835 6.2182 64.2005 5.79565 64.2005 5.34502C64.2005 3.92952 63.0507 2.7821 61.632 2.7821C60.2135 2.7821 59.0637 3.92952 59.0637 5.34502C59.0637 5.82857 59.2004 6.27963 59.434 6.66531L8.41494 36.0583C8.11198 35.9329 7.77999 35.8626 7.43129 35.8626C6.01275 35.8626 4.86289 37.01 4.86289 38.4256C4.86289 39.6862 5.77574 40.7322 6.97794 40.9463V96.0611C5.62713 96.1366 4.5542 97.2502 4.5542 98.6171C4.5542 100.032 5.70407 101.18 7.12261 101.18C7.60586 101.18 8.05657 101.044 8.44265 100.813C28.2671 112.234 39.3818 118.637 59.2061 130.058C59.1745 130.219 59.1573 130.384 59.1573 130.554C59.1573 131.969 60.3072 133.117 61.7257 133.117C63.1443 133.117 64.2942 131.969 64.2942 130.554C64.2942 130.384 64.2766 130.219 64.2454 130.058L114.963 100.839C115.339 101.054 115.775 101.179 116.241 101.179C117.659 101.179 118.809 100.032 118.809 98.6166C118.809 97.2801 117.783 96.1835 116.473 96.066Z" fill="url(#paint0_linear_247_845)"/>
<path d="M68.4519 110.831L62.1677 107.163H54.9106L61.1955 110.831H68.4519Z" fill="white"/>
<mask id="mask0_247_845" style="mask-type:luminance" maskUnits="userSpaceOnUse" x="2" y="0" width="119" height="135">
<path d="M120.783 0.525391H2.57935V134.527H120.783V0.525391Z" fill="white"/>
</mask>
<g mask="url(#mask0_247_845)">
<path d="M58.2815 31.1308C58.2068 30.8675 58.0948 30.5668 58.0948 30.3036C58.0574 29.7773 58.2068 29.326 58.3562 28.8748L9.78955 36.545C10.0511 36.8082 10.2752 37.109 10.4247 37.4098C10.6115 37.7857 10.7609 38.1618 10.7609 38.6129L58.2815 31.1308Z" fill="white"/>
<path d="M10.3499 98.4325L26.0033 95.8006C25.5176 95.2367 25.2934 94.4471 25.2934 93.7327L10.1631 96.2895C10.2378 97.0038 10.3125 97.7182 10.3499 98.4325Z" fill="white"/>
<path d="M63.5866 129.866L93.4364 96.891C93.2496 96.891 93.1002 96.9287 92.9133 96.9287H92.876C92.2035 96.9287 91.6431 96.6654 91.2322 96.2518L62.5032 127.985C63.0635 128.512 63.4372 129.151 63.5866 129.866Z" fill="white"/>
<path d="M6.83827 35.5674C5.64278 35.5674 4.74616 36.545 4.74616 37.6729C4.74616 38.8008 5.7175 39.7784 6.83827 39.7784C7.95903 39.7784 8.93037 38.8385 8.93037 37.6729C8.93037 36.5073 8.03376 35.5674 6.83827 35.5674ZM6.83827 41.9968C4.48466 41.9968 2.57935 40.0792 2.57935 37.7105C2.57935 35.3418 4.48466 33.3867 6.83827 33.3867C9.19189 33.3867 11.0972 35.3042 11.0972 37.7105C11.1346 40.0792 9.22924 41.9968 6.83827 41.9968Z" fill="white"/>
<path d="M61.0089 27.8972C59.8134 27.8972 58.9168 28.8748 58.9168 30.0028C58.9168 31.1308 59.8882 32.1083 61.0089 32.1083C62.1296 32.1083 63.101 31.1308 63.101 30.0028C63.101 28.8748 62.2044 27.8972 61.0089 27.8972ZM61.0089 34.3267C58.6553 34.3267 56.75 32.4091 56.75 30.0028C56.75 27.6341 58.6553 25.679 61.0089 25.679C63.3625 25.679 65.2679 27.5965 65.2679 30.0028C65.2679 32.3716 63.3625 34.3267 61.0089 34.3267Z" fill="white"/>
<path d="M114.731 35.5675C113.535 35.5675 112.638 36.545 112.638 37.6729C112.638 38.8009 113.61 39.7784 114.731 39.7784C115.852 39.7784 116.823 38.8009 116.823 37.6729C116.823 36.545 115.889 35.5675 114.731 35.5675ZM114.731 41.9968C112.377 41.9968 110.472 40.0793 110.472 37.6729C110.472 35.3042 112.377 33.3491 114.731 33.3491C117.084 33.3491 118.989 35.2666 118.989 37.6729C118.989 40.0793 117.122 41.9968 114.731 41.9968Z" fill="white"/>
<path d="M61.0089 2.70611C59.8134 2.70611 58.9168 3.68368 58.9168 4.81165C58.9168 5.93961 59.8882 6.91717 61.0089 6.91717C62.1296 6.91717 63.101 5.93961 63.101 4.81165C63.101 3.68368 62.2044 2.70611 61.0089 2.70611ZM61.0089 9.1355C58.6553 9.1355 56.75 7.21797 56.75 4.81165C56.75 2.40533 58.6553 0.525391 61.0089 0.525391C63.3625 0.525391 65.2679 2.44292 65.2679 4.84924C65.2679 7.25557 63.3625 9.1355 61.0089 9.1355Z" fill="white"/>
<path d="M61.0089 128.06C59.8134 128.06 58.9168 129.038 58.9168 130.166C58.9168 131.294 59.8882 132.271 61.0089 132.271C62.1296 132.271 63.101 131.294 63.101 130.166C63.101 129.038 62.2044 128.06 61.0089 128.06ZM61.0089 134.527C58.6553 134.527 56.75 132.61 56.75 130.203C56.75 127.834 58.6553 125.879 61.0089 125.879C63.3625 125.879 65.2679 127.797 65.2679 130.203C65.2679 132.61 63.3625 134.527 61.0089 134.527Z" fill="white"/>
<path d="M7.17445 96.1013C5.97896 96.1013 5.08235 97.0789 5.08235 98.2068C5.08235 99.41 6.05368 100.312 7.17445 100.312C8.29521 100.312 9.26655 99.3347 9.26655 98.2068C9.30391 97.0412 8.33258 96.1013 7.17445 96.1013ZM7.17445 102.531C4.82084 102.531 2.91553 100.613 2.91553 98.2068C2.91553 95.8381 4.82084 93.8829 7.17445 93.8829C9.52806 93.8829 11.4333 95.8005 11.4333 98.2068C11.4333 100.613 9.52806 102.531 7.17445 102.531Z" fill="white"/>
<path d="M28.0956 91.7775C26.9001 91.7775 26.0034 92.7551 26.0034 93.8831C26.0034 95.0111 26.9748 95.9886 28.0956 95.9886C29.2163 95.9886 30.1877 95.0111 30.1877 93.8831C30.1877 92.7551 29.291 91.7775 28.0956 91.7775ZM28.0956 98.2069C25.7419 98.2069 23.8367 96.2894 23.8367 93.8831C23.8367 91.5144 25.7419 89.5593 28.0956 89.5593C30.4492 89.5593 32.3545 91.4767 32.3545 93.8831C32.3919 96.2894 30.4492 98.2069 28.0956 98.2069Z" fill="white"/>
<path d="M115.03 96.1013C113.834 96.1013 112.937 97.0789 112.937 98.2068C112.937 99.41 113.909 100.312 115.03 100.312C116.151 100.312 117.122 99.3347 117.122 98.2068C117.16 97.0412 116.225 96.1013 115.03 96.1013ZM115.03 102.531C112.676 102.531 110.771 100.613 110.771 98.2068C110.771 95.8381 112.676 93.8829 115.03 93.8829C117.383 93.8829 119.288 95.8005 119.288 98.2068C119.326 100.613 117.421 102.531 115.03 102.531Z" fill="white"/>
<path d="M93.2124 91.7775C92.0168 91.7775 91.1202 92.7551 91.1202 93.8831C91.1202 95.0111 92.0915 95.9886 93.2124 95.9886C94.3331 95.9886 95.3044 95.0111 95.3044 93.8831C95.3044 92.7551 94.4078 91.7775 93.2124 91.7775ZM93.2124 98.2069C90.8588 98.2069 88.9534 96.2894 88.9534 93.8831C88.9534 91.5144 90.8588 89.5593 93.2124 89.5593C95.566 89.5593 97.4713 91.4767 97.4713 93.8831C97.5086 96.2894 95.6033 98.2069 93.2124 98.2069Z" fill="white"/>
<path d="M116.001 71.1357H114.282V95.6125C114.656 95.5373 114.992 95.5373 115.366 95.5373C115.926 95.5373 116.45 95.7253 116.823 95.9509V71.1357H116.001Z" fill="white"/>
<path d="M114.992 67.5263H116.001H116.823V40.4175C116.113 40.8688 115.254 41.1319 114.282 41.1319V67.5263H114.992Z" fill="white"/>
<path d="M95.7152 21.9567H92.6145L98.8161 25.6038H101.954L95.7152 21.9567Z" fill="white"/>
<path d="M6.72624 47.2606H1.94434V50.8701H6.72624V47.2606Z" fill="#00F2D5"/>
<path d="M10.1632 81.607H6.27783V85.2164H10.1632V81.607Z" fill="#FF3956"/>
<path d="M7.80964 47.2606V39.9664C7.36133 40.1544 6.87567 40.2297 6.42736 40.2297C6.16585 40.2297 5.86697 40.192 5.64282 40.0417V47.2606H7.80964Z" fill="white"/>
<path d="M5.64282 50.87V95.6878C6.12849 95.4622 6.68887 95.3494 7.24926 95.3494C7.47341 95.3494 7.66021 95.3869 7.80964 95.4246V50.87H5.64282Z" fill="white"/>
<path d="M62.9887 18.3096H62.1294V21.919H62.9887V18.3096Z" fill="#12339E"/>
<path d="M69.4965 18.3847H66.426V21.9566H69.4965V18.3847Z" fill="#FFDE52"/>
<path d="M62.1295 18.3096V7.51875C61.9426 7.55634 61.8306 7.59394 61.6438 7.66914C61.3823 7.66914 61.1208 7.66914 60.8219 7.66914C60.523 7.63154 60.2241 7.51875 59.9626 7.40594V18.3471H62.1295V18.3096Z" fill="white"/>
<path d="M59.9626 21.9567V27.8973C60.411 27.8221 60.8966 27.7845 61.345 27.7845C61.6065 27.7845 61.8679 27.8221 62.1295 27.8597V21.9567H59.9626Z" fill="white"/>
<path d="M21.2588 106.779L9.52812 99.9739C9.07981 100.688 8.40735 101.177 7.5481 101.365L16.8878 106.817H21.2588V106.779Z" fill="white"/>
<path d="M27.4605 110.315H23.0896L57.9828 130.618C57.9828 130.581 57.9828 130.468 57.9828 130.43V130.28C58.0202 129.753 58.2444 129.265 58.5433 128.813L58.8048 128.551L27.4605 110.315Z" fill="white"/>
<path d="M99.0028 110.351L114.133 101.516C113.349 101.365 112.676 100.801 112.265 100.049L94.5945 110.314L99.0028 110.351Z" fill="white"/>
<path d="M88.4302 113.961L63.2502 128.587C63.2877 128.625 63.325 128.662 63.325 128.737C63.5864 129.038 63.7733 129.414 63.848 129.789C63.9975 130.053 64.0348 130.354 64.0348 130.655L92.7638 113.961H88.4302Z" fill="white"/>
<path d="M69.1155 92.943L67.3223 95.1238H89.9992C89.9992 94.9734 89.9992 94.8606 89.9992 94.7102C90.1486 93.9582 90.5222 93.3566 91.0826 92.9055H69.1155V92.943Z" fill="white"/>
<path d="M30.8227 95.1615H62.7272L64.5205 92.9808H30.1875C30.6733 93.5824 30.9347 94.3344 30.86 95.0487C30.86 95.0487 30.86 95.0864 30.8227 95.1615Z" fill="white"/>
<path d="M115.654 67.5263H114.529H113.737H112.903V71.1734H114.529H115.321H115.654V67.5263Z" fill="white"/>
<path d="M96.9108 83.0547L94.2209 90.2361C94.9681 90.4993 95.5659 91.1761 95.9395 91.9656L99.3017 83.0547H96.9108Z" fill="white"/>
<path d="M5.64278 47.2606H4.29785V50.8701H5.64278V47.2606Z" fill="white"/>
<path d="M99.0028 110.351L92.8013 113.961H97.5084L103.673 110.351H99.0028Z" fill="white"/>
<path d="M89.0279 81.9267H86.4502L91.0827 91.0256C91.6057 90.4616 92.3529 90.0856 93.1374 90.0104L89.0279 81.9267Z" fill="white"/>
<path fill-rule="evenodd" clip-rule="evenodd" d="M83.8725 71.8503H86.4503L73.0758 45.6064H70.498L83.8725 71.8503Z" fill="white"/>
<path d="M82.3782 81.9268H86.6371L84.3957 77.6029H80.1741L82.3782 81.9268Z" fill="white"/>
<path d="M89.6461 77.6029H85.4038L87.635 81.9195H91.8769L89.6461 77.6029Z" fill="#12339E"/>
<path d="M80.2322 77.6102H75.9897L78.2209 81.9267H82.4633L80.2322 77.6102Z" fill="#00F2D5"/>
<path fill-rule="evenodd" clip-rule="evenodd" d="M70.4448 45.5196L63.5535 32.0255C63.1416 32.817 62.5423 33.3447 61.7932 33.684L67.8231 45.5196H70.4448ZM83.8904 71.8295L86.8118 77.5966V77.6343H84.2275L81.2687 71.8295H83.8904Z" fill="white"/>
<path d="M102.253 110.379L96.0889 113.988H100.871L107.035 110.379H102.253Z" fill="#00F2D5"/>
<path d="M94.8223 83.0547H96.9969L99.0653 77.6635H96.8377L94.8223 83.0547Z" fill="white"/>
<path d="M59.8132 98.7708H64.4083L67.3597 95.1238H62.7272L59.8132 98.7708Z" fill="white"/>
<path d="M67.7466 102.2H70.434L73.1973 98.771H70.5099L67.7466 102.2Z" fill="#FFDE52"/>
<path d="M71.2703 102.2H82.8608L85.6241 98.771H74.0335L71.2703 102.2Z" fill="white"/>
<path d="M61.6814 102.2H66.0531L68.8163 98.771H64.4446L61.6814 102.2Z" fill="#FF3956"/>
<path fill-rule="evenodd" clip-rule="evenodd" d="M46.0279 116.067L57.8334 129.113C58.1322 128.474 58.6927 128.023 59.4025 127.721L48.8299 116.067H46.0279ZM28.5066 96.703C29.2538 96.5526 29.9636 96.2142 30.3746 95.6878L39.0418 105.276H36.2399L28.5066 96.703Z" fill="white"/>
<path fill-rule="evenodd" clip-rule="evenodd" d="M41.6943 105.276H38.8923L48.6804 116.216H51.4823L41.6943 105.276Z" fill="white"/>
<path d="M64.894 18.3847H63.3623V21.9566H64.894V18.3847Z" fill="white"/>
<path fill-rule="evenodd" clip-rule="evenodd" d="M39.9756 18.3473L58.8045 7.40601C58.3189 6.80442 58.0947 5.93966 58.132 5.26288L35.642 18.3473H39.9756ZM9.56541 36.0187C9.26653 35.3042 8.74351 34.7027 8.07104 34.3643L29.3657 21.9943H33.7367L9.56541 36.0187Z" fill="white"/>
<path d="M98.9281 25.6037H98.5918H94.6691L88.4675 21.9942H90.074H92.6891L64.1468 5.41315C64.1468 5.56355 64.1468 5.71394 64.1468 5.86433C64.0721 6.57871 63.8106 7.10509 63.3997 7.51868L112.415 35.9433C113.013 35.3418 113.946 34.9657 114.955 34.9657C115.03 34.9657 115.141 34.9657 115.179 34.9657L98.9281 25.6037Z" fill="white"/>
<path d="M98.8909 21.9567H95.79L101.992 25.6038H105.13L98.8909 21.9567Z" fill="#00F2D5"/>
<path d="M88.6209 21.9851H85.5295L91.7121 25.6037H94.8406L88.6209 21.9851Z" fill="white"/>
<path d="M37.0158 17.5377H41.3618L32.6699 22.6493H28.2715L37.0158 17.5377Z" fill="white"/>
<path d="M92.2469 107.533L87.4275 110.315H94.6005L99.4197 107.533H92.2469Z" fill="#13F5E0"/>
<path d="M96.1392 113.961L92.6274 116.029H98.0445L101.631 113.961H96.1392Z" fill="#12339E"/>
<path d="M69.5532 113.961L67.7466 116.029H76.3948L78.2398 113.961H69.5532Z" fill="#12339E"/>
<path d="M51.7064 50.3436L60.0748 33.8754C59.365 33.6123 58.7672 32.9355 58.431 32.1459L49.166 50.3436H51.7064Z" fill="white"/>
<path d="M56.6448 50.3437H52.3858L50.1816 54.6674H54.4032L56.6448 50.3437Z" fill="#00F2D5"/>
<path d="M55.7411 50.3437H51.4822L49.2781 54.6674H53.4997L55.7411 50.3437Z" fill="white"/>
<path d="M62.0363 50.3437H57.7774L55.5732 54.6674H59.7947L62.0363 50.3437Z" fill="#FFDE52"/>
<path d="M39.9942 72.1033L38.0566 75.8732H45.66L47.5652 72.1033H39.9942Z" fill="#FF3956"/>
<path d="M48.3085 72.1033L46.4033 75.8732H47.8242L49.7617 72.1033H48.3085Z" fill="#FFDE52"/>
<path fill-rule="evenodd" clip-rule="evenodd" d="M40.424 72.1132L48.0826 57.0362H45.5422V57.0738L37.9209 72.1132H40.424Z" fill="white"/>
<path fill-rule="evenodd" clip-rule="evenodd" d="M30.7482 90.9504L38.4067 75.8732H35.8663V75.9108L28.2451 90.9504H30.7482Z" fill="white"/>
<path fill-rule="evenodd" clip-rule="evenodd" d="M11.2094 52.0357L25.7793 91.0255C26.3023 90.4616 27.0122 90.1609 27.7967 90.0481L13.563 52.0357H11.2094ZM8.96779 40.4176C9.00515 40.3425 9.07986 40.3048 9.11722 40.2297L12.1059 48.2006H9.78969L7.21191 41.2824H7.39871C7.92174 41.2073 8.40741 40.944 8.85571 40.5681C8.85571 40.5304 8.93043 40.4929 8.96779 40.4176Z" fill="white"/>
<path d="M118.206 67.5263H117.608H117.159H116.749V71.1357H117.608H117.981H118.206V67.5263Z" fill="white"/>
<path d="M106.549 49.1407L105.13 52.7877H108.118L109.575 49.1407H106.549Z" fill="#FFDE52"/>
<path d="M100.493 49.1407L99.073 52.7877H104.015L105.473 49.1407H100.493Z" fill="#00F2D5"/>
<path d="M94.5568 49.1407L93.1372 52.7877H98.0798L99.5367 49.1407H94.5568Z" fill="#12339E"/>
<path d="M114.507 41.4327C113.834 41.4327 113.236 41.0944 112.751 40.6056L109.613 49.0277H110.397L108.94 52.8252H108.156L98.293 79.2571H100.647L114.768 41.4704C114.731 41.4327 114.656 41.4327 114.507 41.4327Z" fill="white"/>
<path d="M27.3483 110.389L21.1467 106.78H25.0694L31.271 110.389H27.3483Z" fill="white"/>
<path d="M30.9347 110.389L24.7332 106.78H28.6558L34.8574 110.389H30.9347Z" fill="#FF3956"/>
<path d="M13.847 110.313L7.5896 106.663L16.6937 106.701L23.0909 110.313H13.847Z" fill="#00F2D5"/>
<path d="M64.2963 31.1308C64.371 30.8675 64.4832 30.5668 64.4832 30.3036C64.5205 29.7773 64.371 29.326 64.2217 28.8748L112.788 36.545C112.527 36.8082 112.303 37.109 112.154 37.4098C111.967 37.7857 111.817 38.1618 111.817 38.6129L64.2963 31.1308Z" fill="white"/>
<path d="M112.116 98.4325L96.4624 95.8006C96.948 95.2367 97.1722 94.4471 97.1722 93.7327L112.303 96.2895C112.19 97.0038 112.154 97.7182 112.116 98.4325Z" fill="white"/>
<path d="M15.8293 48.1831L17.343 52.0724H13.6177L12.104 48.1831H15.8293Z" fill="#00F2D5"/>
<path d="M21.5009 48.1831L23.0147 52.0724H21.0209L19.5073 48.1831H21.5009Z" fill="white"/>
<path d="M29.6396 48.1831L31.1534 52.0724H23.9647L22.4509 48.1831H29.6396Z" fill="white"/>
<path d="M18.0376 44.2412L19.5513 48.1305H15.826L14.3123 44.2412H18.0376Z" fill="#FFDE52"/>
</g>
<path d="M186.817 61.9152L186.329 58.9882H180.458V68.5101C180.446 69.7975 181.067 71.8622 184.722 72.4209C189.131 73.0767 186.183 73.684 185.087 73.8783C184.819 73.9269 184.551 74.0241 184.332 74.1941C183.845 74.5462 183.163 75.0685 183.151 75.943V85.9507H189.46V76.0887C189.46 76.0887 191.519 74.9713 191.275 74.0362C191.031 73.1131 189.995 72.6152 187.998 72.0808C185.939 71.5465 185.744 70.5141 186.28 70.0768C186.817 69.6396 186.841 69.2874 187.097 68.6801C187.219 68.4008 187.304 68.1457 187.438 67.8178C188.485 65.4981 190.776 64.5629 193.199 64.5629C195.258 64.5629 196.476 65.1458 197.755 66.2268L200.593 60.7614C199.156 59.3283 196.658 58.308 194.016 58.308C191.421 58.308 188.778 58.7939 186.817 61.9152Z" fill="white"/>
<path d="M148.777 75.9309C149.897 82.623 155.037 86.5216 161.7 86.5216C164.831 86.5216 167.961 85.5013 169.922 82.4164L170.312 85.9264H176.232V77.0969C176.232 76.4532 176.548 75.8581 177.084 75.5058C177.705 75.0929 178.413 74.4978 178.242 73.9756C177.997 73.0525 176.816 72.5545 174.527 72.0202C172.224 71.4858 171.981 70.4534 172.565 70.0161C173.199 69.579 173.491 69.3361 173.637 68.6438C173.832 67.8178 173.637 65.3281 173.637 65.3281V48.3491H167.316V62.4618C165.793 59.8263 161.639 58.3568 158.947 58.3568C152.784 58.3568 147.948 61.4537 146.45 67.4535L146.426 67.5385C146.426 67.5385 144.805 71.5465 150.396 72.3238C154.501 72.9189 152.407 73.4775 151.127 73.7205C150.409 73.854 149.739 74.2063 149.24 74.7528C148.935 75.0929 148.692 75.5058 148.777 75.9309ZM162.138 80.6676C159.008 80.6676 156.378 78.8215 155.341 75.9553C155.682 75.773 157.413 74.7772 157.193 73.9391C156.95 73.016 155.914 72.5181 153.819 71.9837C151.845 71.4858 151.48 70.3442 151.882 69.834C153.588 67.5993 156.755 64.2715 159.507 64.2715C162.443 64.2715 165.086 65.8868 166.268 68.5223C166.146 69.749 166.633 71.838 170.873 72.3845C176.025 73.0646 172.285 73.6962 171.165 73.854C170.934 73.8906 170.727 73.9634 170.531 74.0849C170.044 74.3885 169.435 74.8986 169.118 75.9431C168.01 78.9065 165.269 80.6676 162.138 80.6676Z" fill="white"/>
<path d="M231.094 72.1171C229.035 71.5706 228.84 70.526 229.376 70.0889C229.912 69.6394 230.399 69.348 230.545 68.7043C230.63 68.2913 230.63 67.927 230.63 67.927C230.642 67.7205 230.642 67.5383 230.63 67.3683V58.9881H224.565L224.37 62.4981C222.896 59.9597 219.668 58.3444 216.245 58.3444C210.423 58.2958 205.575 61.1136 203.748 66.4939C203.748 66.4939 203.431 67.6233 203.382 67.8662C203.236 68.9836 202.98 71.7285 207.292 72.4086C211.324 73.0037 209.205 73.5745 207.974 73.8053C207.304 73.9389 206.683 74.2668 206.233 74.777C205.941 75.1049 205.673 75.5056 205.734 75.9186C206.756 83.0479 211.945 86.7522 218.706 86.7036C221.544 86.655 225.563 85.1854 226.976 82.2098L227.268 85.9142H233.237V76.0036C233.237 76.0036 234.625 75.0563 234.382 74.0725C234.126 73.1616 233.103 72.6637 231.094 72.1171ZM219.424 80.9588C216.098 80.9588 213.31 79.1492 212.274 75.9307C212.811 75.6028 214.028 74.7526 213.846 74.024C213.602 73.1008 212.566 72.6029 210.569 72.0685C208.51 71.5342 208.315 70.5018 208.851 70.0645C209.388 69.6274 209.485 69.2387 209.777 68.6436C209.838 68.5343 209.887 68.4007 209.924 68.2549C211.105 65.5222 213.736 63.9555 216.83 63.9555C220.326 63.9555 222.555 65.8745 223.614 68.3278C224.285 69.6152 223.993 71.8742 227.817 72.4936C231.861 73.1008 229.717 73.6839 228.487 73.9146C227.781 74.0482 227.293 74.3275 226.915 74.947C226.745 75.2141 226.647 75.5299 226.452 76.0036C225.539 78.7605 223.2 80.9588 219.424 80.9588Z" fill="white"/>
<path d="M263.141 72.1656C261.229 71.6313 261.083 70.599 261.521 70.1617C262.008 69.7244 262.447 69.1901 262.301 68.4978C262.057 67.3319 261.862 66.5911 261.862 66.5911C260.438 61.4049 256.405 58.5872 251.63 58.5872C248.402 58.5872 245.808 59.8625 243.262 62.4009L242.873 58.9395H237.245V68.0242C237.257 69.348 237.099 71.8863 241.41 72.5665C245.748 73.2102 242.97 73.8174 241.824 74.0118C241.496 74.0725 241.191 74.2061 240.923 74.4005C240.473 74.7404 239.864 75.3113 239.839 75.9307V85.9384H246.101V76.2222C246.101 76.2222 248.207 75.1049 247.964 74.1696C247.72 73.2466 246.685 72.7487 244.687 72.2142C242.678 71.6799 242.434 70.6475 242.97 70.2103C243.506 69.773 243.603 69.3844 243.896 68.7892C243.956 68.6678 244.005 68.5343 244.054 68.3763C244.066 68.3399 244.078 68.3035 244.09 68.2792C245.113 65.9595 247.221 64.3077 249.974 64.3077C252.971 64.3077 254.895 65.9109 255.686 68.2792C255.65 69.518 256.332 71.9228 260.059 72.5543C263.762 73.1494 261.862 73.7081 260.718 73.951C260.01 74.0968 259.389 74.5219 259.048 75.1535C258.927 75.3842 258.793 75.6392 258.768 75.9186V85.9262H265.078V76.0157C265.078 76.0157 266.369 75.0927 266.174 74.1089C265.979 73.198 265.005 72.7123 263.141 72.1656Z" fill="white"/>
<path d="M299.367 74.1213C299.123 73.1982 298.149 72.7003 296.187 72.1658C294.227 71.6315 293.983 70.5992 294.519 70.1619C295.055 69.7247 295.749 69.3968 295.786 68.7044C295.798 68.413 295.798 68.4009 295.798 68.2673V48.3491H289.476V62.4618C287.953 59.8263 283.8 58.3568 281.108 58.3568C275.029 58.3568 270.23 61.3809 268.659 67.2228C268.659 67.2228 268.477 67.7694 268.416 68.0851C268.27 69.2025 268.221 71.8866 272.533 72.5667C276.565 73.1618 274.445 73.7326 273.215 73.9634C272.545 74.097 271.912 74.4127 271.436 74.9107C271.156 75.2022 270.924 75.5666 270.912 75.9309C272.034 82.623 277.173 86.5216 283.836 86.5216C286.967 86.5216 290.097 85.5013 292.058 82.4164L292.448 85.9264H298.417V75.9187C298.77 75.6638 299.525 74.9107 299.367 74.1213ZM284.287 80.6676C281.205 80.6676 278.598 78.8701 277.539 76.0767C278.075 75.7366 279.293 74.8986 279.097 74.1699C278.854 73.2468 277.819 72.7489 275.822 72.2145C273.763 71.6801 273.568 70.6477 274.104 70.2105C274.639 69.7733 274.445 69.2511 275.321 67.8178C276.577 65.5589 278.927 64.2594 281.644 64.2594C284.579 64.2594 287.223 65.8747 288.404 68.5102C289.013 69.8097 289.366 71.9594 293.008 72.5667C297.076 73.1861 294.397 73.769 293.106 73.9877C292.57 74.0727 292.095 74.3521 291.754 74.765C291.486 75.0929 291.23 75.5302 291.218 76.0281C290.109 78.943 287.393 80.6676 284.287 80.6676Z" fill="white"/>
<defs>
<linearGradient id="paint0_linear_247_845" x1="61.8889" y1="132.811" x2="61.8889" y2="2.47737" gradientUnits="userSpaceOnUse">
<stop offset="0.0106" stop-color="#2D2E82"/>
<stop offset="0.9732" stop-color="#009EE2"/>
</linearGradient>
</defs>
</svg>
