<svg width="300" height="135" viewBox="0 0 300 135" fill="none" xmlns="http://www.w3.org/2000/svg">
<g clip-path="url(#clip0_243_402)">
<path d="M115.745 94.1184V41.7254C117.263 41.0559 118.327 39.5391 118.327 37.7764C118.327 35.3963 116.39 33.4604 114.009 33.4604C113.379 33.4604 112.782 33.5989 112.242 33.8428L64.1588 6.09222C64.2544 5.73617 64.3101 5.36345 64.3101 4.97758C64.3101 2.59748 62.3735 0.66156 59.9925 0.66156C57.6116 0.66156 55.675 2.59748 55.675 4.97758C55.675 5.37879 55.7341 5.76555 55.8372 6.13431L7.60131 33.973C6.99424 33.6467 6.30117 33.4608 5.5647 33.4608C3.18417 33.4608 1.24756 35.3967 1.24756 37.7768C1.24756 39.7255 2.54638 41.3746 4.32377 41.9091V94.1632C2.70692 94.7875 1.55549 96.3534 1.55549 98.1871C1.55549 100.567 3.4921 102.503 5.87307 102.503C6.51655 102.503 7.12495 102.358 7.67414 102.105L55.6894 129.816C55.6828 129.911 55.675 130.006 55.675 130.102C55.675 132.483 57.6116 134.418 59.9925 134.418C62.3735 134.418 64.3101 132.483 64.3101 130.102C64.3101 130.022 64.3022 129.943 64.2978 129.863L112.45 102.073C113.016 102.346 113.647 102.503 114.317 102.503C116.698 102.503 118.635 100.567 118.635 98.1871C118.634 96.3073 117.425 94.7095 115.745 94.1184Z" fill="#FFDE52"/>
<path d="M121.176 94.1184V41.7254C122.694 41.0559 123.758 39.5391 123.758 37.7764C123.758 35.3963 121.821 33.4604 119.44 33.4604C118.81 33.4604 118.213 33.5989 117.673 33.8428L69.5897 6.09222C69.6854 5.73617 69.741 5.36345 69.741 4.97758C69.741 2.59748 67.8044 0.66156 65.4234 0.66156C63.0424 0.66156 61.1059 2.59748 61.1059 4.97758C61.1059 5.37879 61.1651 5.76555 61.2682 6.13431L13.0327 33.973C12.4256 33.6467 9.95006 35.6848 9.21358 35.6848C6.83262 35.6848 6.67847 35.3967 6.67847 37.7768C6.67847 39.7254 7.81426 40.1504 9.59163 40.6848L9.75468 94.1632C8.13783 94.7875 6.98639 96.3534 6.98639 98.1871C6.98639 98.1871 7.00335 99.7957 9.38432 99.7957C10.2868 100.381 11.9697 101.406 13.105 102.105L61.1204 129.816C61.1138 129.911 61.1059 130.006 61.1059 130.102C61.1059 132.483 63.0424 134.418 65.4234 134.418C67.8044 134.418 69.741 132.483 69.741 130.102C69.741 130.022 69.7331 129.943 69.7287 129.863L117.88 102.073C118.447 102.346 119.078 102.503 119.748 102.503C122.129 102.503 124.066 100.567 124.066 98.1871C124.066 96.3073 122.857 94.7095 121.176 94.1184Z" fill="#FF3956"/>
<path d="M117.301 95.2984V40.0529C118.457 39.8061 119.325 38.7817 119.325 37.5542C119.325 36.1426 118.178 34.9982 116.763 34.9982C116.337 34.9982 115.936 35.1036 115.582 35.2874L64.8485 6.05871C65.0525 5.69199 65.1692 5.27059 65.1692 4.82116C65.1692 3.40946 64.0224 2.26514 62.6076 2.26514C61.1929 2.26514 60.0462 3.40946 60.0462 4.82116C60.0462 5.30339 60.1826 5.75326 60.4154 6.1379L9.53348 35.452C9.23132 35.3268 8.90023 35.2567 8.55247 35.2567C7.13773 35.2567 5.99096 36.4011 5.99096 37.8128C5.99096 39.07 6.90137 40.1133 8.10034 40.3269V95.2936C6.75314 95.3689 5.68311 96.4794 5.68311 97.8427C5.68311 99.2543 6.82989 100.399 8.24461 100.399C8.72656 100.399 9.17607 100.263 9.5611 100.032C29.3322 111.423 40.4171 117.809 60.1882 129.199C60.1567 129.36 60.1395 129.524 60.1395 129.693C60.1395 131.105 61.2864 132.249 62.7011 132.249C64.1157 132.249 65.2626 131.105 65.2626 129.693C65.2626 129.524 65.245 129.359 65.2139 129.199L115.796 100.058C116.171 100.273 116.605 100.398 117.069 100.398C118.484 100.398 119.63 99.2539 119.63 97.8421C119.63 96.5092 118.607 95.4157 117.301 95.2984Z" fill="url(#paint0_linear_243_402)"/>
<path d="M69.4091 110.023L63.1417 106.365H55.9043L62.1722 110.023H69.4091Z" fill="white"/>
<mask id="mask0_243_402" style="mask-type:luminance" maskUnits="userSpaceOnUse" x="3" y="0" width="119" height="134">
<path d="M121.6 0.0144653H3.71362V133.656H121.6V0.0144653Z" fill="white"/>
</mask>
<g mask="url(#mask0_243_402)">
<path d="M59.2663 30.5376C59.1917 30.2751 59.0799 29.9752 59.0799 29.7126C59.0426 29.1876 59.1917 28.7378 59.3407 28.2878L10.9045 35.9374C11.1653 36.1998 11.3889 36.4998 11.5379 36.7998C11.7242 37.1747 11.8733 37.5497 11.8733 37.9997L59.2663 30.5376Z" fill="white"/>
<path d="M11.4634 97.6587L27.0747 95.0339C26.5904 94.4713 26.3668 93.6839 26.3668 92.9714L11.2771 95.5213C11.3516 96.2337 11.4261 96.9462 11.4634 97.6587Z" fill="white"/>
<path d="M64.5566 129.007L94.3263 96.1212C94.1399 96.1212 93.9909 96.1586 93.8046 96.1586H93.7674C93.0967 96.1586 92.5378 95.8962 92.128 95.4838L63.4761 127.132C64.0349 127.657 64.4076 128.294 64.5566 129.007Z" fill="white"/>
<path d="M7.9611 34.9625C6.76882 34.9625 5.87461 35.9373 5.87461 37.0623C5.87461 38.1872 6.84334 39.1622 7.9611 39.1622C9.07886 39.1622 10.0476 38.2248 10.0476 37.0623C10.0476 35.8999 9.15338 34.9625 7.9611 34.9625ZM7.9611 41.3745C5.61381 41.3745 3.71362 39.4622 3.71362 37.0998C3.71362 34.7375 5.61381 32.7876 7.9611 32.7876C10.3084 32.7876 12.2086 34.6999 12.2086 37.0998C12.2458 39.4622 10.3456 41.3745 7.9611 41.3745Z" fill="white"/>
<path d="M61.986 27.3128C60.7938 27.3128 59.8996 28.2877 59.8996 29.4127C59.8996 30.5376 60.8683 31.5126 61.986 31.5126C63.1038 31.5126 64.0725 30.5376 64.0725 29.4127C64.0725 28.2877 63.1783 27.3128 61.986 27.3128ZM61.986 33.7249C59.6387 33.7249 57.7385 31.8126 57.7385 29.4127C57.7385 27.0503 59.6387 25.1004 61.986 25.1004C64.3334 25.1004 66.2336 27.0128 66.2336 29.4127C66.2336 31.775 64.3334 33.7249 61.986 33.7249Z" fill="white"/>
<path d="M115.564 34.9624C114.372 34.9624 113.477 35.9374 113.477 37.0622C113.477 38.1872 114.446 39.1621 115.564 39.1621C116.682 39.1621 117.65 38.1872 117.65 37.0622C117.65 35.9374 116.719 34.9624 115.564 34.9624ZM115.564 41.3745C113.217 41.3745 111.316 39.4621 111.316 37.0622C111.316 34.6999 113.217 32.7499 115.564 32.7499C117.911 32.7499 119.811 34.6624 119.811 37.0622C119.811 39.4621 117.948 41.3745 115.564 41.3745Z" fill="white"/>
<path d="M61.986 2.18933C60.7938 2.18933 59.8996 3.16428 59.8996 4.28921C59.8996 5.41414 60.8683 6.38908 61.986 6.38908C63.1038 6.38908 64.0725 5.41414 64.0725 4.28921C64.0725 3.16428 63.1783 2.18933 61.986 2.18933ZM61.986 8.60145C59.6387 8.60145 57.7385 6.68906 57.7385 4.28921C57.7385 1.88936 59.6387 0.0144653 61.986 0.0144653C64.3334 0.0144653 66.2336 1.92684 66.2336 4.32671C66.2336 6.72656 64.3334 8.60145 61.986 8.60145Z" fill="white"/>
<path d="M61.986 127.207C60.7938 127.207 59.8996 128.182 59.8996 129.307C59.8996 130.432 60.8683 131.407 61.986 131.407C63.1038 131.407 64.0725 130.432 64.0725 129.307C64.0725 128.182 63.1783 127.207 61.986 127.207ZM61.986 133.656C59.6387 133.656 57.7385 131.744 57.7385 129.344C57.7385 126.982 59.6387 125.032 61.986 125.032C64.3334 125.032 66.2336 126.944 66.2336 129.344C66.2336 131.744 64.3334 133.656 61.986 133.656Z" fill="white"/>
<path d="M8.29631 95.3336C7.10403 95.3336 6.20982 96.3086 6.20982 97.4334C6.20982 98.6334 7.17854 99.5334 8.29631 99.5334C9.41407 99.5334 10.3828 98.5584 10.3828 97.4334C10.42 96.271 9.45132 95.3336 8.29631 95.3336ZM8.29631 101.746C5.94901 101.746 4.04883 99.8333 4.04883 97.4334C4.04883 95.0711 5.94901 93.1213 8.29631 93.1213C10.6436 93.1213 12.5438 95.0337 12.5438 97.4334C12.5438 99.8333 10.6436 101.746 8.29631 101.746Z" fill="white"/>
<path d="M29.1614 91.0214C27.9691 91.0214 27.0749 91.9964 27.0749 93.1213C27.0749 94.2463 28.0436 95.2211 29.1614 95.2211C30.2791 95.2211 31.2478 94.2463 31.2478 93.1213C31.2478 91.9964 30.3536 91.0214 29.1614 91.0214ZM29.1614 97.4335C26.814 97.4335 24.9138 95.5211 24.9138 93.1213C24.9138 90.759 26.814 88.809 29.1614 88.809C31.5087 88.809 33.4089 90.7214 33.4089 93.1213C33.4461 95.5211 31.5087 97.4335 29.1614 97.4335Z" fill="white"/>
<path d="M115.862 95.3336C114.67 95.3336 113.775 96.3086 113.775 97.4334C113.775 98.6334 114.744 99.5334 115.862 99.5334C116.98 99.5334 117.948 98.5584 117.948 97.4334C117.986 96.271 117.054 95.3336 115.862 95.3336ZM115.862 101.746C113.515 101.746 111.615 99.8333 111.615 97.4334C111.615 95.0711 113.515 93.1213 115.862 93.1213C118.209 93.1213 120.109 95.0337 120.109 97.4334C120.147 99.8333 118.247 101.746 115.862 101.746Z" fill="white"/>
<path d="M94.1029 91.0214C92.9107 91.0214 92.0164 91.9964 92.0164 93.1213C92.0164 94.2463 92.9851 95.2211 94.1029 95.2211C95.2207 95.2211 96.1893 94.2463 96.1893 93.1213C96.1893 91.9964 95.2951 91.0214 94.1029 91.0214ZM94.1029 97.4335C91.7557 97.4335 89.8555 95.5211 89.8555 93.1213C89.8555 90.759 91.7557 88.809 94.1029 88.809C96.4502 88.809 98.3504 90.7214 98.3504 93.1213C98.3876 95.5211 96.4874 97.4335 94.1029 97.4335Z" fill="white"/>
<path d="M116.831 70.4352H115.117V94.8462C115.489 94.7712 115.825 94.7712 116.197 94.7712C116.756 94.7712 117.278 94.9587 117.65 95.1837V70.4352H116.831Z" fill="white"/>
<path d="M115.825 66.8355H116.831H117.65V39.7996C116.942 40.2496 116.085 40.5121 115.117 40.5121V66.8355H115.825Z" fill="white"/>
<path d="M96.5993 21.3881H93.5068L99.6918 25.0254H102.822L96.5993 21.3881Z" fill="white"/>
<path d="M7.84937 46.6241H3.08032V50.224H7.84937V46.6241Z" fill="#00F2D5"/>
<path d="M11.2772 80.8784H7.40234V84.4783H11.2772V80.8784Z" fill="#FF3956"/>
<path d="M8.93005 46.6241V39.3495C8.48294 39.537 7.99857 39.612 7.55148 39.612C7.29066 39.612 6.9926 39.5745 6.76904 39.4245V46.6241H8.93005Z" fill="white"/>
<path d="M6.76904 50.224V94.9212C7.25341 94.6962 7.81229 94.5838 8.37117 94.5838C8.59471 94.5838 8.78101 94.6212 8.93005 94.6588V50.224H6.76904Z" fill="white"/>
<path d="M63.9609 17.7509H63.104V21.3508H63.9609V17.7509Z" fill="#12339E"/>
<path d="M70.451 17.8259H67.3887V21.3882H70.451V17.8259Z" fill="#FFDE52"/>
<path d="M63.1036 17.751V6.98907C62.9173 7.02657 62.8055 7.06407 62.6193 7.13907C62.3584 7.13907 62.0976 7.13907 61.7996 7.13907C61.5015 7.10157 61.2034 6.98907 60.9426 6.87659V17.7884H63.1036V17.751Z" fill="white"/>
<path d="M60.9426 21.3881V27.3126C61.3897 27.2376 61.8741 27.2002 62.3213 27.2002C62.582 27.2002 62.8428 27.2376 63.1036 27.2752V21.3881H60.9426Z" fill="white"/>
<path d="M22.3428 105.983L10.6436 99.196C10.1966 99.9084 9.52589 100.396 8.66895 100.583L17.9836 106.021H22.3428V105.983Z" fill="white"/>
<path d="M28.5279 109.509H24.1687L58.9683 129.757C58.9683 129.72 58.9683 129.607 58.9683 129.57V129.42C59.0056 128.895 59.2291 128.408 59.5271 127.958L59.7879 127.695L28.5279 109.509Z" fill="white"/>
<path d="M99.8782 109.545L114.968 100.733C114.185 100.583 113.515 100.021 113.105 99.2708L95.4817 109.508L99.8782 109.545Z" fill="white"/>
<path d="M89.3339 113.145L64.2217 127.732C64.2588 127.769 64.2961 127.807 64.2961 127.882C64.5569 128.182 64.7432 128.557 64.8178 128.932C64.9669 129.194 65.004 129.494 65.004 129.794L93.6559 113.145H89.3339Z" fill="white"/>
<path d="M70.0712 92.184L68.2827 94.3588H90.8987C90.8987 94.2088 90.8987 94.0963 90.8987 93.9464C91.0478 93.1964 91.4203 92.5964 91.9793 92.1464H70.0712V92.184Z" fill="white"/>
<path d="M31.881 94.3963H63.6999L65.4883 92.2214H31.2476C31.732 92.8213 31.9927 93.5713 31.9183 94.2837C31.9183 94.2837 31.9183 94.3213 31.881 94.3963Z" fill="white"/>
<path d="M116.485 66.8354H115.363H114.573H113.741V70.4727H115.363H116.152H116.485V66.8354Z" fill="white"/>
<path d="M97.7913 82.3221L95.1086 89.4841C95.8538 89.7465 96.45 90.4215 96.8225 91.209L100.176 82.3221H97.7913Z" fill="white"/>
<path d="M6.76881 46.6241H5.42749V50.224H6.76881V46.6241Z" fill="white"/>
<path d="M99.8777 109.545L93.6929 113.145H98.3873L104.535 109.545H99.8777Z" fill="white"/>
<path d="M89.9299 81.1971H87.3591L91.9791 90.2715C92.5008 89.7091 93.2459 89.3341 94.0284 89.2591L89.9299 81.1971Z" fill="white"/>
<path fill-rule="evenodd" clip-rule="evenodd" d="M84.7885 71.1476H87.3593L74.0207 44.9742H71.45L84.7885 71.1476Z" fill="white"/>
<path d="M83.298 81.1971H87.5455L85.3099 76.8848H81.0996L83.298 81.1971Z" fill="white"/>
<path d="M90.5464 76.8848H86.3154L88.5407 81.1898H92.7712L90.5464 76.8848Z" fill="#12339E"/>
<path d="M81.1577 76.8921H76.9268L79.152 81.197H83.3828L81.1577 76.8921Z" fill="#00F2D5"/>
<path fill-rule="evenodd" clip-rule="evenodd" d="M71.3968 44.8879L64.5239 31.43C64.1131 32.2195 63.5154 32.7457 62.7683 33.084L68.7821 44.8879H71.3968ZM84.8062 71.1271L87.7196 76.8786V76.9163H85.1424L82.1915 71.1271H84.8062Z" fill="white"/>
<path d="M103.12 109.573L96.9722 113.173H101.741L107.889 109.573H103.12Z" fill="#00F2D5"/>
<path d="M95.7085 82.3221H97.8773L99.9401 76.9453H97.7186L95.7085 82.3221Z" fill="white"/>
<path d="M60.7937 97.9961H65.3764L68.3199 94.3588H63.6998L60.7937 97.9961Z" fill="white"/>
<path d="M68.7061 101.416H71.3862L74.1421 97.996H71.4619L68.7061 101.416Z" fill="#FFDE52"/>
<path d="M72.22 101.416H83.7795L86.5353 97.996H74.9758L72.22 101.416Z" fill="white"/>
<path d="M62.6567 101.416H67.0166L69.7725 97.996H65.4126L62.6567 101.416Z" fill="#FF3956"/>
<path fill-rule="evenodd" clip-rule="evenodd" d="M47.0452 115.245L58.819 128.257C59.1171 127.619 59.6759 127.169 60.3838 126.869L49.8396 115.245H47.0452ZM29.571 95.9336C30.3162 95.7836 31.0241 95.4462 31.4339 94.9212L40.0779 104.483H37.2835L29.571 95.9336Z" fill="white"/>
<path fill-rule="evenodd" clip-rule="evenodd" d="M42.7231 104.483H39.9287L49.6904 115.395H52.4848L42.7231 104.483Z" fill="white"/>
<path d="M65.8609 17.8259H64.3333V21.3882H65.8609V17.8259Z" fill="white"/>
<path fill-rule="evenodd" clip-rule="evenodd" d="M41.0095 17.7883L59.7878 6.87644C59.3035 6.27648 59.0799 5.41403 59.1172 4.73907L36.6875 17.7883H41.0095ZM10.681 35.4122C10.3829 34.6998 9.86133 34.0998 9.19067 33.7622L30.4281 21.4255H34.7873L10.681 35.4122Z" fill="white"/>
<path d="M99.8035 25.0254H99.4681H95.556L89.3711 21.4257H90.9732H93.5812L65.1158 4.8891C65.1158 5.0391 65.1158 5.18909 65.1158 5.33907C65.0412 6.05153 64.7804 6.5765 64.3706 6.98898L113.254 35.3373C113.85 34.7373 114.781 34.3623 115.787 34.3623C115.862 34.3623 115.974 34.3623 116.011 34.3623L99.8035 25.0254Z" fill="white"/>
<path d="M99.7663 21.3881H96.6738L102.859 25.0254H105.989L99.7663 21.3881Z" fill="#00F2D5"/>
<path d="M89.5239 21.4165H86.4409L92.6067 25.0254H95.7269L89.5239 21.4165Z" fill="white"/>
<path d="M38.0576 16.9811H42.3919L33.7233 22.0791H29.3367L38.0576 16.9811Z" fill="white"/>
<path d="M93.1401 106.734L88.3337 109.509H95.4874L100.294 106.734H93.1401Z" fill="#13F5E0"/>
<path d="M97.0223 113.145L93.52 115.207H98.9225L102.499 113.145H97.0223Z" fill="#12339E"/>
<path d="M70.5078 113.145L68.7061 115.207H77.3311L79.1711 113.145H70.5078Z" fill="#12339E"/>
<path d="M52.7085 49.699L61.0546 33.275C60.3466 33.0125 59.7504 32.3375 59.4152 31.5501L50.175 49.699H52.7085Z" fill="white"/>
<path d="M57.6337 49.699H53.3862L51.188 54.0113H55.3982L57.6337 49.699Z" fill="#00F2D5"/>
<path d="M56.7326 49.699H52.4851L50.2869 54.0113H54.4972L56.7326 49.699Z" fill="white"/>
<path d="M63.0109 49.699H58.7634L56.5652 54.0113H60.7754L63.0109 49.699Z" fill="#FFDE52"/>
<path d="M41.0281 71.4L39.0957 75.1599H46.6787L48.5787 71.4H41.0281Z" fill="#FF3956"/>
<path d="M49.3201 71.4L47.4199 75.1599H48.8369L50.7693 71.4H49.3201Z" fill="#FFDE52"/>
<path fill-rule="evenodd" clip-rule="evenodd" d="M41.4565 71.4102L49.0946 56.3736H46.5609V56.4112L38.9602 71.4102H41.4565Z" fill="white"/>
<path fill-rule="evenodd" clip-rule="evenodd" d="M31.8064 90.1966L39.4444 75.16H36.9109V75.1975L29.3101 90.1966H31.8064Z" fill="white"/>
<path fill-rule="evenodd" clip-rule="evenodd" d="M12.3202 51.3864L26.851 90.2715C27.3727 89.7091 28.0806 89.4091 28.863 89.2965L14.6674 51.3864H12.3202ZM10.0847 39.7996C10.1219 39.7246 10.1964 39.6871 10.2337 39.6121L13.2144 47.5616H10.9043L8.3335 40.662H8.5198C9.04141 40.587 9.52578 40.3246 9.97289 39.9496C9.97289 39.9121 10.0474 39.8746 10.0847 39.7996Z" fill="white"/>
<path d="M119.029 66.8354H118.433H117.986H117.576V70.4353H118.433H118.805H119.029V66.8354Z" fill="white"/>
<path d="M107.404 48.4991L105.988 52.1364H108.969L110.422 48.4991H107.404Z" fill="#FFDE52"/>
<path d="M101.364 48.4991L99.948 52.1364H104.877L106.33 48.4991H101.364Z" fill="#00F2D5"/>
<path d="M95.4441 48.4991L94.0283 52.1364H98.9575L100.411 48.4991H95.4441Z" fill="#12339E"/>
<path d="M115.34 40.812C114.669 40.812 114.073 40.4746 113.589 39.9872L110.459 48.3866H111.242L109.789 52.1739H109.006L99.1699 78.5348H101.517L115.601 40.8496C115.564 40.812 115.489 40.812 115.34 40.812Z" fill="white"/>
<path d="M28.4162 109.583L22.2312 105.983H26.1433L32.3283 109.583H28.4162Z" fill="white"/>
<path d="M31.9927 109.583L25.8079 105.983H29.72L35.9049 109.583H31.9927Z" fill="#FF3956"/>
<path d="M14.9511 109.507L8.71045 105.867L17.7902 105.905L24.17 109.507H14.9511Z" fill="#00F2D5"/>
<path d="M65.265 30.5376C65.3395 30.2751 65.4512 29.9752 65.4512 29.7126C65.4885 29.1876 65.3395 28.7378 65.1904 28.2878L113.627 35.9374C113.366 36.1998 113.142 36.4998 112.993 36.7998C112.807 37.1747 112.658 37.5497 112.658 37.9997L65.265 30.5376Z" fill="white"/>
<path d="M112.956 97.6587L97.3442 95.0339C97.8286 94.4713 98.0521 93.6839 98.0521 92.9714L113.142 95.5213C113.03 96.2337 112.993 96.9462 112.956 97.6587Z" fill="white"/>
<path d="M16.9281 47.5439L18.4377 51.4228H14.7222L13.2126 47.5439H16.9281Z" fill="#00F2D5"/>
<path d="M22.5842 47.5439L24.0938 51.4228H22.1056L20.5959 47.5439H22.5842Z" fill="white"/>
<path d="M30.7014 47.5439L32.2111 51.4228H25.0416L23.532 47.5439H30.7014Z" fill="white"/>
<path d="M19.1303 43.6127L20.6399 47.4915H16.9244L15.4148 43.6127H19.1303Z" fill="#FFDE52"/>
</g>
<path d="M187.456 61.2391L186.97 58.3199H181.115V67.8163C181.102 69.1002 181.722 71.1594 185.367 71.7166C189.764 72.3706 186.824 72.9763 185.73 73.17C185.463 73.2185 185.196 73.3154 184.978 73.4849C184.492 73.8362 183.812 74.3571 183.8 75.2292V85.21H190.091V75.3745C190.091 75.3745 192.145 74.2602 191.902 73.3275C191.659 72.407 190.627 71.9103 188.634 71.3773C186.581 70.8444 186.387 69.8149 186.921 69.3788C187.456 68.9427 187.481 68.5915 187.735 67.9858C187.856 67.7073 187.942 67.4528 188.075 67.1259C189.12 64.8123 191.404 63.8797 193.822 63.8797C195.874 63.8797 197.089 64.4611 198.365 65.539L201.195 60.0884C199.761 58.6591 197.272 57.6416 194.635 57.6416C192.048 57.6416 189.411 58.1261 187.456 61.2391Z" fill="#040E2E"/>
<path d="M149.518 75.2172C150.636 81.8912 155.762 85.7794 162.407 85.7794C165.529 85.7794 168.651 84.762 170.607 81.6854L170.996 85.1859H176.9V76.3801C176.9 75.7381 177.215 75.1445 177.75 74.7932C178.369 74.3815 179.074 73.7879 178.903 73.2671C178.661 72.3466 177.483 71.8499 175.199 71.3169C172.903 70.784 172.66 69.7545 173.243 69.3184C173.875 68.8823 174.167 68.6401 174.313 67.9496C174.507 67.126 174.313 64.6429 174.313 64.6429V47.7094H168.007V61.7844C166.489 59.1559 162.346 57.6902 159.662 57.6902C153.515 57.6902 148.691 60.7789 147.197 66.7626L147.174 66.8473C147.174 66.8473 145.558 70.8445 151.134 71.6198C155.228 72.2132 153.138 72.7704 151.862 73.0128C151.145 73.146 150.478 73.4972 149.979 74.0423C149.675 74.3815 149.433 74.7932 149.518 75.2172ZM162.844 79.9411C159.723 79.9411 157.098 78.1 156.066 75.2414C156.406 75.0598 158.13 74.0665 157.912 73.2307C157.669 72.3102 156.637 71.8136 154.547 71.2806C152.579 70.7839 152.214 69.6455 152.616 69.1367C154.316 66.9079 157.475 63.589 160.221 63.589C163.148 63.589 165.785 65.2001 166.962 67.8285C166.841 69.0519 167.327 71.1353 171.555 71.6804C176.693 72.3587 172.964 72.9885 171.846 73.146C171.615 73.1823 171.409 73.255 171.215 73.3761C170.729 73.679 170.121 74.1876 169.806 75.2293C168.699 78.1849 165.966 79.9411 162.844 79.9411Z" fill="#040E2E"/>
<path d="M231.614 71.4137C229.561 70.8686 229.367 69.8269 229.9 69.3909C230.436 68.9427 230.922 68.6519 231.067 68.0101C231.153 67.5982 231.153 67.2348 231.153 67.2348C231.164 67.0289 231.164 66.8472 231.153 66.6776V58.32H225.102L224.908 61.8205C223.438 59.2889 220.219 57.678 216.805 57.678C210.999 57.6295 206.163 60.4396 204.341 65.8055C204.341 65.8055 204.026 66.932 203.977 67.1742C203.831 68.2886 203.576 71.0261 207.877 71.7044C211.898 72.2979 209.784 72.8672 208.556 73.0973C207.889 73.2305 207.27 73.5576 206.82 74.0664C206.528 74.3934 206.261 74.7931 206.322 75.2049C207.343 82.315 212.517 86.0094 219.259 85.961C222.089 85.9125 226.098 84.4468 227.507 81.4793L227.799 85.1737H233.752V75.2898C233.752 75.2898 235.137 74.3449 234.894 73.3639C234.639 72.4553 233.619 71.9588 231.614 71.4137ZM219.976 80.2317C216.659 80.2317 213.878 78.4268 212.844 75.217C213.38 74.89 214.595 74.0422 214.412 73.3154C214.17 72.3948 213.136 71.8981 211.145 71.3653C209.092 70.8323 208.898 69.8027 209.432 69.3667C209.966 68.9306 210.063 68.5429 210.355 67.9494C210.416 67.8404 210.464 67.7072 210.501 67.5619C211.679 64.8366 214.303 63.2739 217.389 63.2739C220.874 63.2739 223.098 65.1878 224.155 67.6345C224.822 68.9185 224.532 71.1714 228.345 71.7891C232.379 72.3948 230.242 72.9762 229.014 73.2063C228.31 73.3396 227.824 73.6182 227.447 74.2359C227.278 74.5023 227.18 74.8173 226.986 75.2898C226.075 78.0393 223.742 80.2317 219.976 80.2317Z" fill="#040E2E"/>
<path d="M263.576 71.4622C261.669 70.9292 261.523 69.8997 261.959 69.4636C262.446 69.0275 262.882 68.4947 262.737 67.8041C262.494 66.6414 262.3 65.9026 262.3 65.9026C260.879 60.7305 256.858 57.9202 252.095 57.9202C248.876 57.9202 246.289 59.1921 243.75 61.7236L243.36 58.2716H237.749V67.3318C237.761 68.6521 237.603 71.1837 241.903 71.862C246.228 72.5039 243.458 73.1096 242.316 73.3033C241.988 73.3639 241.684 73.4971 241.417 73.6909C240.967 74.0301 240.36 74.5994 240.336 75.2172V85.1979H246.581V75.5078C246.581 75.5078 248.682 74.3935 248.438 73.4608C248.196 72.5403 247.163 72.0436 245.171 71.5106C243.166 70.9777 242.924 69.9482 243.458 69.5121C243.992 69.076 244.09 68.6884 244.382 68.0949C244.442 67.9738 244.49 67.8406 244.54 67.683C244.552 67.6467 244.563 67.6104 244.576 67.5861C245.597 65.2727 247.698 63.6253 250.443 63.6253C253.431 63.6253 255.351 65.2243 256.141 67.5861C256.105 68.8216 256.785 71.22 260.502 71.8499C264.195 72.4434 262.3 73.0005 261.158 73.2428C260.454 73.3881 259.834 73.8121 259.493 74.442C259.372 74.6721 259.238 74.9264 259.214 75.205V85.1858H265.507V75.3019C265.507 75.3019 266.795 74.3813 266.601 73.4002C266.405 72.4918 265.434 72.0073 263.576 71.4622Z" fill="#040E2E"/>
<path d="M299.704 73.4124C299.461 72.4919 298.489 71.9952 296.534 71.4623C294.577 70.9294 294.335 69.8998 294.868 69.4637C295.404 69.0277 296.096 68.7006 296.132 68.0102C296.144 67.7195 296.144 67.7074 296.144 67.5741V47.7094H289.84V61.7844C288.321 59.1559 284.179 57.6902 281.494 57.6902C275.432 57.6902 270.646 60.7063 269.078 66.5325C269.078 66.5325 268.896 67.0776 268.836 67.3924C268.69 68.5068 268.642 71.1837 272.941 71.862C276.962 72.4556 274.848 73.0249 273.622 73.255C272.953 73.3882 272.322 73.7032 271.848 74.1998C271.569 74.4905 271.338 74.8539 271.325 75.2172C272.444 81.8912 277.57 85.7794 284.216 85.7794C287.337 85.7794 290.459 84.762 292.415 81.6854L292.804 85.1859H298.756V75.2051C299.108 74.9508 299.861 74.1998 299.704 73.4124ZM284.664 79.9411C281.591 79.9411 278.992 78.1485 277.935 75.3625C278.469 75.0234 279.684 74.1876 279.49 73.4608C279.246 72.5403 278.214 72.0437 276.222 71.5107C274.168 70.9779 273.974 69.9482 274.508 69.5121C275.044 69.0762 274.848 68.5553 275.724 67.126C276.974 64.873 279.319 63.5769 282.029 63.5769C284.956 63.5769 287.593 65.188 288.771 67.8164C289.378 69.1125 289.73 71.2564 293.363 71.862C297.42 72.4798 294.747 73.0612 293.459 73.2792C292.925 73.364 292.452 73.6426 292.111 74.0544C291.844 74.3815 291.589 74.8174 291.577 75.3141C290.472 78.2212 287.762 79.9411 284.664 79.9411Z" fill="#040E2E"/>
</g>
<defs>
<linearGradient id="paint0_linear_243_402" x1="62.8637" y1="131.946" x2="62.8637" y2="1.9612" gradientUnits="userSpaceOnUse">
<stop offset="0.0106" stop-color="#2D2E82"/>
<stop offset="0.9732" stop-color="#009EE2"/>
</linearGradient>
<clipPath id="clip0_243_402">
<rect width="300" height="134.862" fill="white"/>
</clipPath>
</defs>
</svg>
