<svg width="400" height="400" viewBox="0 0 400 400" fill="none" xmlns="http://www.w3.org/2000/svg">
<g clip-path="url(#clip0_244_803)">
<circle cx="200" cy="200" r="199" fill="#D9D9D9"/>
<mask id="mask0_244_803" style="mask-type:luminance" maskUnits="userSpaceOnUse" x="0" y="0" width="400" height="400">
<path d="M399.253 0H0V399.253H399.253V0Z" fill="white"/>
</mask>
<g mask="url(#mask0_244_803)">
<path d="M65.7067 175.68C65.5249 164.111 69.2865 152.825 76.3734 143.68L149.12 216.426C139.951 223.468 128.681 227.225 117.12 227.093C103.502 227.037 90.4577 221.602 80.8278 211.972C71.1979 202.342 65.7633 189.298 65.7067 175.68Z" fill="#04795B"/>
<path d="M282.134 227.04C288.945 227.068 295.695 225.748 301.994 223.156C308.292 220.564 314.016 216.752 318.834 211.938C323.653 207.124 327.472 201.405 330.07 195.109C332.668 188.812 333.995 182.064 333.974 175.253C334.102 163.693 330.345 152.425 323.307 143.253L250.347 216.213C259.417 223.308 270.62 227.124 282.134 227.04Z" fill="#04795B"/>
<path d="M338.4 128.48C349.615 141.65 355.779 158.382 355.787 175.68C355.773 195.134 348.035 213.787 334.273 227.538C320.512 241.289 301.854 249.013 282.4 249.013C265.192 249.033 248.531 242.969 235.36 231.893L200.053 267.2L164.747 231.893C151.567 242.989 134.881 249.054 117.653 249.013C107.998 249.049 98.4308 247.178 89.5001 243.509C80.5689 239.84 72.45 234.445 65.6079 227.633C58.7657 220.82 53.3348 212.724 49.6269 203.81C45.9191 194.894 44.0069 185.336 43.9999 175.68C44.0137 158.461 50.0729 141.795 61.1199 128.587L44.6399 112.107L28.9068 96.1067C9.95406 127.268 -0.0476817 163.048 -7.49809e-05 199.52C-0.00708617 225.735 5.15219 251.694 15.1825 275.914C25.2129 300.134 39.9178 322.14 58.4569 340.674C76.9961 359.209 99.0063 373.908 123.229 383.932C147.452 393.955 173.412 399.108 199.627 399.093C252.529 399.08 303.265 378.072 340.693 340.684C378.121 303.296 399.183 252.583 399.254 199.68C399.583 163.214 389.678 127.387 370.667 96.2667L338.4 128.48Z" fill="#04795B"/>
<path d="M344.214 61.8665C325.599 42.294 303.193 26.7153 278.364 16.0793C253.534 5.44327 226.799 -0.0275864 199.787 -1.83997e-05C172.77 -0.0130904 146.032 5.46407 121.195 16.099C96.3592 26.734 73.9426 42.3049 55.3074 61.8665C50.4541 67.1998 45.7077 72.5331 41.281 78.2398L199.627 236.533L357.974 78.0798C353.793 72.3438 349.194 66.9246 344.214 61.8665ZM199.787 199.573L77.1207 76.9065C93.1586 60.6979 112.268 47.8495 133.33 39.1131C154.393 30.3769 176.985 25.928 199.787 26.0267C222.594 25.9011 245.194 30.3377 266.26 39.0755C287.327 47.8133 306.433 60.6761 322.454 76.9065L199.787 199.573Z" fill="#04795B"/>
</g>
</g>
<defs>
<clipPath id="clip0_244_803">
<rect width="400" height="400" fill="white"/>
</clipPath>
</defs>
</svg>
