<svg width="400" height="400" viewBox="0 0 400 400" fill="none" xmlns="http://www.w3.org/2000/svg">
<g clip-path="url(#clip0_244_812)">
<path d="M200 400C310.457 400 400 310.457 400 200C400 89.5431 310.457 0 200 0C89.5431 0 0 89.5431 0 200C0 310.457 89.5431 400 200 400Z" fill="#FF0420"/>
<path d="M141.706 253.157C129.798 253.157 120.041 250.354 112.435 244.75C104.93 239.046 101.177 230.941 101.177 220.433C101.177 218.231 101.427 215.529 101.927 212.326C103.229 205.122 105.08 196.465 107.482 186.358C114.286 158.838 131.85 145.078 160.17 145.078C167.876 145.078 174.781 146.378 180.886 148.98C186.99 151.482 191.794 155.285 195.296 160.389C198.798 165.392 200.55 171.397 200.55 178.402C200.55 180.503 200.3 183.155 199.799 186.358C198.298 195.264 196.497 203.921 194.395 212.326C190.893 226.037 184.838 236.294 176.232 243.099C167.626 249.804 156.118 253.157 141.706 253.157ZM143.808 231.541C149.413 231.541 154.166 229.89 158.069 226.587C162.072 223.285 164.924 218.231 166.625 211.426C168.926 202.019 170.678 193.813 171.879 186.808C172.279 184.706 172.479 182.555 172.479 180.353C172.479 171.246 167.726 166.693 158.219 166.693C152.614 166.693 147.811 168.344 143.808 171.646C139.906 174.95 137.103 180.003 135.402 186.808C133.601 193.513 131.799 201.719 129.998 211.426C129.598 213.427 129.398 215.529 129.398 217.73C129.398 226.938 134.202 231.541 143.808 231.541Z" fill="white"/>
<path d="M207.442 251.656C206.342 251.656 205.49 251.306 204.89 250.605C204.39 249.804 204.24 248.904 204.44 247.903L225.155 150.331C225.355 149.23 225.906 148.33 226.806 147.629C227.707 146.929 228.658 146.578 229.658 146.578H269.588C280.696 146.578 289.602 148.88 296.307 153.483C303.113 158.087 306.515 164.742 306.515 173.448C306.515 175.95 306.215 178.552 305.614 181.254C303.113 192.762 298.059 201.269 290.454 206.773C282.948 212.277 272.64 215.029 259.53 215.029H239.266L232.361 247.903C232.16 249.004 231.61 249.904 230.71 250.605C229.809 251.306 228.858 251.656 227.858 251.656H207.442ZM260.582 194.314C264.784 194.314 268.437 193.162 271.539 190.861C274.742 188.559 276.843 185.257 277.844 180.954C278.144 179.252 278.294 177.751 278.294 176.45C278.294 173.548 277.444 171.346 275.742 169.846C274.041 168.244 271.139 167.444 267.036 167.444H249.022L243.318 194.314H260.582Z" fill="white"/>
</g>
<defs>
<clipPath id="clip0_244_812">
<rect width="400" height="400" fill="white"/>
</clipPath>
</defs>
</svg>
