<svg width="262" height="258" viewBox="0 0 262 258" fill="none" xmlns="http://www.w3.org/2000/svg">
<g clip-path="url(#clip0_242_22)">
<path d="M243.4 175V23.6C243.2 10.9 233.1 0.700012 220.4 0.700012H62.4C28.3 1.20001 0.899994 29.1 0.899994 63.3C0.899994 74.8 3.99999 84.7 8.69999 93.4C12.7 100.6 19 107.4 25.2 112.5C27 113.9 26.1 113.3 31.5 116.6C38.9 121.1 47.4 123.4 47.4 123.4L47.3 214C47.5 218.3 47.9 222.4 49.1 226.3C52.6 239.1 61.5 248.9 73.5 253.6C78.5 255.6 84.2 256.9 90.3 257L216.5 257.4C241.6 257.4 262 237 262 211.8C262.1 196.8 254.6 183.4 243.4 175Z" fill="#FFEEDA"/>
<path d="M246.5 212.9C246 229 232.7 242 216.4 242L129.6 241.7C136.5 233.7 140.7 223.3 140.7 211.9C140.7 194.1 130.1 181.8 130.1 181.8H216.5C233.1 181.8 246.6 195.3 246.6 211.9L246.5 212.9Z" fill="#EBC28E"/>
<path d="M33.5 99.7C23.5 90.2 16.5 78 16.5 63.4V61.9C17.3 37.1 37.7 17.1 62.5 16.4H220.5C224.6 16.6 227.9 19.5 227.9 23.7V157.4C231.5 158 233.3 158.5 236.8 159.8C239.6 160.8 243.4 163 243.4 163V23.7C243.2 11 233.1 0.800049 220.4 0.800049H62.4C28.3 1.30005 0.899994 29.2 0.899994 63.4C0.899994 83.3 10 100.3 24.8 112.2C25.8 113 26.8 114.1 29.4 114.1C34 114.1 37.3 110.4 37.1 106.4C37.1 103 35.6 101.8 33.5 99.7Z" fill="#101010"/>
<path d="M216.4 166.2H92.5C84.2 166.3 77.5 173 77.5 181.3V199.1C77.7 207.3 84.7 214.3 93.1 214.3H102.3V199.1H93V181.7C93 181.7 95.3 181.7 98 181.7C113.7 181.7 125.2 196.2 125.2 211.8C125.2 225.6 112.6 243.2 91.6 241.8C73 240.6 62.9 224 62.9 211.8V60.8C62.9 54 57.3 48.4 50.5 48.4H38.1V63.9H47.3V211.9C46.8 242 68.7 257.1 91.6 257.1L216.5 257.5C241.6 257.5 262 237.1 262 211.9C262.1 186.7 241.6 166.2 216.4 166.2ZM246.5 212.9C246 229 232.7 242 216.4 242L129.6 241.7C136.5 233.7 140.7 223.3 140.7 211.9C140.7 194.1 130.1 181.8 130.1 181.8H216.5C233.1 181.8 246.6 195.3 246.6 211.9L246.5 212.9Z" fill="#101010"/>
<path d="M183 66.7H89.6V51.2H183C187.2 51.2 190.7 54.6 190.7 58.9C190.8 63.2 187.4 66.7 183 66.7Z" fill="#101010"/>
<path d="M183 139.4H89.6V124H183C187.2 124 190.7 127.4 190.7 131.7C190.8 135.9 187.4 139.4 183 139.4Z" fill="#101010"/>
<path d="M199.5 103H89.6V87.5H199.4C203.6 87.5 207.1 90.9 207.1 95.2C207.3 99.5 203.8 103 199.5 103Z" fill="#101010"/>
</g>
<defs>
<clipPath id="clip0_242_22">
<rect width="262.001" height="258" fill="white"/>
</clipPath>
</defs>
</svg>
